SplineFontDB: 3.2
FontName: CSLSans-ThinItalic
FullName: CSL Sans Thin Italic
FamilyName: CSL Sans Thin
Weight: Thin
Copyright: Copyright (c) 2019 IBM Corp. with Reserved Font Name "Plex"\n\nCopyright (c) 2019 The HMI Sans Project Authors (https://github.com/somegoodpixels/hmi-sans)\nCopyright (c) 2021 The CSL Sans Project Authors (https://github.com/cssobral2013/CSL-Sans)\nThis Font Software is licensed under the SIL Open Font License, Version 1.1.\nThis license is copied below, and is also available with a FAQ at: http://scripts.sil.org/OFL.
Version: 2.001;January 31, 2022;FontCreator 14.0.0.2808 64-bit
ItalicAngle: -11.3
UnderlinePosition: -99
UnderlineWidth: 16
Ascent: 800
Descent: 200
InvalidEm: 0
sfntRevision: 0x00020041
LayerCount: 2
Layer: 0 1 "Back" 1
Layer: 1 1 "Fore" 0
XUID: [1021 651 537639564 6627]
StyleMap: 0x0001
FSType: 0
OS2Version: 4
OS2_WeightWidthSlopeOnly: 0
OS2_UseTypoMetrics: 0
CreationTime: 1550580378
ModificationTime: 1643660361
PfmFamily: 81
TTFWeight: 100
TTFWidth: 5
LineGap: 0
VLineGap: 0
Panose: 0 0 3 0 0 0 0 0 0 0
OS2TypoAscent: 1000
OS2TypoAOffset: 0
OS2TypoDescent: -220
OS2TypoDOffset: 0
OS2TypoLinegap: 0
OS2WinAscent: 1000
OS2WinAOffset: 0
OS2WinDescent: 220
OS2WinDOffset: 0
HheadAscent: 1000
HheadAOffset: 0
HheadDescent: -220
HheadDOffset: 0
OS2SubXSize: 650
OS2SubYSize: 600
OS2SubXOff: -15
OS2SubYOff: 75
OS2SupXSize: 650
OS2SupYSize: 600
OS2SupXOff: 70
OS2SupYOff: 350
OS2StrikeYSize: 16
OS2StrikeYPos: 303
OS2CapHeight: 698
OS2XHeight: 506
OS2Vendor: 'UKWN'
OS2CodePages: 2000019f.00000000
OS2UnicodeRanges: 20000287.10000013.00000000.00000000
Lookup: 258 0 0 "'kern' Kerning Horizontal lookup 0" { "'kern' Kerning Horizontal lookup 0 per glyph data 0"  "'kern' Kerning Horizontal lookup 0 kerning class 1"  "'kern' Kerning Horizontal lookup 0 kerning class 2"  "'kern' Kerning Horizontal lookup 0 kerning class 3"  } ['kern' ('DFLT' <'dflt' > 'cyrl' <'dflt' > 'grek' <'dflt' > 'latn' <'dflt' > ) ]
DEI: 91125

StartChar: .notdef
Encoding: 65536 -1 0
Width: 472
Flags: W
LayerCount: 2
Fore
SplineSet
440 0 m 1,0,-1
 440 780 l 1,1,-1
 32 780 l 1,2,-1
 32 0 l 1,3,-1
 440 0 l 1,0,-1
424 16 m 1,4,-1
 48 16 l 1,5,-1
 48 764 l 1,6,-1
 424 764 l 1,7,-1
 424 16 l 1,4,-1
EndSplineSet
EndChar

StartChar: exclam
Encoding: 33 33 2
Width: 247
GlyphClass: 1
Flags: W
LayerCount: 2
Fore
SplineSet
114 176 m 1,0,-1
 167 415 l 1,1,-1
 223 698 l 1,2,-1
 201 698 l 1,3,-1
 145 415 l 1,4,-1
 102 176 l 1,5,-1
 114 176 l 1,0,-1
75 -5 m 0,6,7
 90 -5 90 -5 95.5 1 c 128,-1,8
 101 7 101 7 103.5 17.5 c 128,-1,9
 106 28 106 28 106 34 c 0,10,11
 106 53 106 53 81 53 c 0,12,13
 49 53 49 53 49 14 c 0,14,15
 49 -5 49 -5 75 -5 c 0,6,7
EndSplineSet
EndChar

StartChar: quotedbl
Encoding: 34 34 3
Width: 373
GlyphClass: 7
Flags: W
LayerCount: 2
Fore
SplineSet
167 490 m 1,0,-1
 217 740 l 1,1,-1
 197 740 l 1,2,-1
 147 490 l 1,3,-1
 167 490 l 1,0,-1
320 490 m 1,4,-1
 370 740 l 1,5,-1
 350 740 l 1,6,-1
 300 490 l 1,7,-1
 320 490 l 1,4,-1
EndSplineSet
EndChar

StartChar: numbersign
Encoding: 35 35 4
Width: 710
GlyphClass: 5
Flags: W
LayerCount: 2
Fore
SplineSet
339 0 m 1,0,-1
 421 220 l 1,1,-1
 575 220 l 1,2,-1
 579 239 l 1,3,-1
 428 239 l 1,4,-1
 509 459 l 1,5,-1
 662 459 l 1,6,-1
 666 478 l 1,7,-1
 517 478 l 1,8,-1
 599 698 l 1,9,-1
 578 698 l 1,10,-1
 496 478 l 1,11,-1
 310 478 l 1,12,-1
 392 698 l 1,13,-1
 371 698 l 1,14,-1
 289 478 l 1,15,-1
 135 478 l 1,16,-1
 131 459 l 1,17,-1
 282 459 l 1,18,-1
 201 239 l 1,19,-1
 48 239 l 1,20,-1
 44 220 l 1,21,-1
 193 220 l 1,22,-1
 111 0 l 1,23,-1
 132 0 l 1,24,-1
 214 220 l 1,25,-1
 400 220 l 1,26,-1
 318 0 l 1,27,-1
 339 0 l 1,0,-1
407 239 m 1,28,-1
 221 239 l 1,29,-1
 303 459 l 1,30,-1
 489 459 l 1,31,-1
 407 239 l 1,28,-1
EndSplineSet
EndChar

StartChar: dollar
Encoding: 36 36 5
Width: 536
Flags: W
LayerCount: 2
Fore
SplineSet
269 372 m 1,0,-1
 330 678 l 1,1,2
 317 679 317 679 303 679 c 0,3,4
 218 679 218 679 170 643 c 0,5,6
 122 606 122 606 121 528 c 2,7,-1
 121 526 l 2,8,9
 121 426 121 426 247 380 c 2,10,-1
 269 372 l 1,0,-1
218 20 m 1,11,12
 229 19 229 19 241 19 c 0,13,14
 329 19 329 19 377 61 c 0,15,16
 415 93 415 93 423 149 c 0,17,18
 425 169 425 169 426 191 c 0,19,20
 426 238 426 238 399 273 c 1,21,22
 361 313 361 313 302 335 c 2,23,-1
 283 343 l 1,24,-1
 218 20 l 1,11,12
287 364 m 1,25,26
 335 344 335 344 368 326 c 0,27,28
 412 301 412 301 432 260 c 0,29,30
 449 229 449 229 449 189 c 0,31,32
 449 94 449 94 392 47 c 256,33,34
 335 0 335 0 241 0 c 0,35,36
 227 0 227 0 215 1 c 1,37,-1
 198 -82 l 1,38,-1
 178 -82 l 1,39,-1
 195 3 l 1,40,41
 81 18 81 18 14 110 c 1,42,-1
 32 123 l 1,43,44
 94 36 94 36 199 22 c 1,45,-1
 264 350 l 1,46,-1
 238 361 l 2,47,48
 143 400 143 400 117 453 c 0,49,50
 99 485 99 485 99 526 c 0,51,52
 99 613 99 613 156 655 c 0,53,54
 211 698 211 698 305 698 c 0,55,56
 320 698 320 698 333 697 c 1,57,-1
 350 780 l 1,58,-1
 370 780 l 1,59,-1
 353 695 l 1,60,61
 454 681 454 681 505 606 c 1,62,-1
 487 594 l 1,63,64
 441 663 441 663 349 676 c 1,65,-1
 287 364 l 1,25,26
EndSplineSet
EndChar

StartChar: percent
Encoding: 37 37 6
Width: 883
Flags: W
LayerCount: 2
Fore
SplineSet
171 0 m 1,0,-1
 776 698 l 1,1,-1
 752 698 l 1,2,-1
 147 0 l 1,3,-1
 171 0 l 1,0,-1
240 327 m 0,4,5
 334 327 334 327 381 414 c 0,6,7
 418 485 418 485 418 578 c 0,8,9
 418 634 418 634 388 672 c 128,-1,10
 358 710 358 710 302 710 c 0,11,12
 207 710 207 710 162 624 c 0,13,14
 124 554 124 554 124 459 c 0,15,16
 124 404 124 404 154.5 365.5 c 128,-1,17
 185 327 185 327 240 327 c 0,4,5
241 344 m 0,18,19
 192 344 192 344 167.5 378 c 128,-1,20
 143 412 143 412 143 460 c 0,21,22
 143 484 143 484 147 509 c 2,23,-1
 154 542 l 2,24,25
 186 693 186 693 301 693 c 0,26,27
 351 693 351 693 375 659 c 128,-1,28
 399 625 399 625 399 577 c 0,29,30
 399 553 399 553 395 528 c 2,31,-1
 388 495 l 2,32,33
 357 344 357 344 241 344 c 0,18,19
619 -12 m 0,34,35
 713 -12 713 -12 760 75 c 0,36,37
 797 146 797 146 797 239 c 0,38,39
 797 295 797 295 767 333 c 128,-1,40
 737 371 737 371 681 371 c 0,41,42
 586 371 586 371 541 285 c 0,43,44
 503 215 503 215 503 120 c 0,45,46
 503 65 503 65 533.5 26.5 c 128,-1,47
 564 -12 564 -12 619 -12 c 0,34,35
620 5 m 0,48,49
 571 5 571 5 546.5 39 c 128,-1,50
 522 73 522 73 522 121 c 0,51,52
 522 145 522 145 526 170 c 2,53,-1
 533 203 l 2,54,55
 565 354 565 354 680 354 c 0,56,57
 730 354 730 354 754 320 c 128,-1,58
 778 286 778 286 778 238 c 0,59,60
 778 214 778 214 774 189 c 2,61,-1
 767 156 l 2,62,63
 736 5 736 5 620 5 c 0,48,49
EndSplineSet
EndChar

StartChar: ampersand
Encoding: 38 38 7
Width: 677
GlyphClass: 3
Flags: W
LayerCount: 2
Fore
SplineSet
229 -12 m 0,0,1
 302 -12 302 -12 365 23.5 c 128,-1,2
 428 59 428 59 471 115 c 1,3,-1
 563 0 l 1,4,-1
 589 0 l 1,5,-1
 483 132 l 1,6,7
 537 220 537 220 560 331 c 1,8,-1
 650 331 l 1,9,-1
 654 351 l 1,10,-1
 545 351 l 1,11,12
 523 236 523 236 471 147 c 1,13,-1
 294 368 l 1,14,15
 434 436 434 436 486 483 c 0,16,17
 535 527 535 527 535 593 c 0,18,19
 535 644 535 644 498 677 c 128,-1,20
 461 710 461 710 391 710 c 0,21,22
 300 710 300 710 249 655.5 c 128,-1,23
 198 601 198 601 198 524 c 0,24,25
 198 461 198 461 264 374 c 1,26,27
 140 314 140 314 94 255 c 0,28,29
 49 201 49 201 49 136 c 0,30,31
 49 60 49 60 99.5 24 c 128,-1,32
 150 -12 150 -12 229 -12 c 0,0,1
282 383 m 1,33,34
 220 465 220 465 220 524 c 0,35,36
 220 530 220 530 221 535 c 128,-1,37
 222 540 222 540 223 546 c 0,38,39
 232 618 232 618 280 657 c 0,40,41
 322 691 322 691 387 691 c 0,42,43
 509 691 509 691 513 592 c 0,44,45
 513 532 513 532 465 490 c 0,46,47
 413 445 413 445 282 383 c 1,33,34
233 8 m 0,48,49
 160 8 160 8 115.5 38 c 128,-1,50
 71 68 71 68 71 133 c 0,51,52
 71 141 71 141 71.5 147.5 c 128,-1,53
 72 154 72 154 74 162 c 0,54,55
 82 218 82 218 127 263.5 c 128,-1,56
 172 309 172 309 276 359 c 1,57,-1
 459 130 l 1,58,59
 419 75 419 75 361 41.5 c 128,-1,60
 303 8 303 8 233 8 c 0,48,49
EndSplineSet
EndChar

StartChar: quotesingle
Encoding: 39 39 8
Width: 220
Flags: W
LayerCount: 2
Fore
SplineSet
167 490 m 1,0,-1
 217 740 l 1,1,-1
 197 740 l 1,2,-1
 147 490 l 1,3,-1
 167 490 l 1,0,-1
EndSplineSet
EndChar

StartChar: parenleft
Encoding: 40 40 9
Width: 330
Flags: W
LayerCount: 2
Fore
SplineSet
247 -138 m 1,0,1
 184 -63 184 -63 155.5 28.5 c 128,-1,2
 127 120 127 120 127 232 c 0,3,4
 127 276 127 276 134 319 c 2,5,-1
 140 353 l 2,6,7
 165 481 165 481 233.5 587.5 c 128,-1,8
 302 694 302 694 398 760 c 1,9,-1
 372 760 l 1,10,11
 261 681 261 681 186 541 c 0,12,13
 108 392 108 392 108 232 c 0,14,15
 108 114 108 114 139.5 21 c 128,-1,16
 171 -72 171 -72 226 -138 c 1,17,-1
 247 -138 l 1,0,1
EndSplineSet
EndChar

StartChar: parenright
Encoding: 41 41 10
Width: 330
GlyphClass: 3
Flags: W
LayerCount: 2
Fore
SplineSet
-23 -138 m 1,0,1
 88 -59 88 -59 163 81 c 0,2,3
 241 230 241 230 241 390 c 0,4,5
 241 508 241 508 209.5 601.5 c 128,-1,6
 178 695 178 695 123 760 c 1,7,-1
 102 760 l 1,8,9
 165 685 165 685 193.5 593.5 c 128,-1,10
 222 502 222 502 222 390 c 0,11,12
 222 347 222 347 215 303 c 2,13,-1
 209 269 l 2,14,15
 184 142 184 142 115.5 35.5 c 128,-1,16
 47 -71 47 -71 -49 -138 c 1,17,-1
 -23 -138 l 1,0,1
EndSplineSet
EndChar

StartChar: asterisk
Encoding: 42 42 11
Width: 363
Flags: W
LayerCount: 2
Fore
SplineSet
312 436 m 1,0,-1
 328 446 l 1,1,-1
 260 574 l 1,2,-1
 418 621 l 1,3,-1
 413 640 l 1,4,-1
 257 590 l 1,5,-1
 288 747 l 1,6,-1
 268 747 l 1,7,-1
 239 591 l 1,8,-1
 100 640 l 1,9,-1
 92 621 l 1,10,-1
 230 576 l 1,11,-1
 111 447 l 1,12,-1
 126 436 l 1,13,-1
 244 565 l 1,14,-1
 312 436 l 1,0,-1
EndSplineSet
EndChar

StartChar: plus
Encoding: 43 43 12
Width: 600
Flags: W
LayerCount: 2
Fore
SplineSet
272 62 m 1,0,-1
 319 296 l 1,1,-1
 547 296 l 1,2,-1
 551 315 l 1,3,-1
 323 315 l 1,4,-1
 370 549 l 1,5,-1
 349 549 l 1,6,-1
 302 315 l 1,7,-1
 74 315 l 1,8,-1
 70 296 l 1,9,-1
 298 296 l 1,10,-1
 251 62 l 1,11,-1
 272 62 l 1,0,-1
EndSplineSet
EndChar

StartChar: comma
Encoding: 44 44 13
Width: 240
GlyphClass: 3
Flags: W
LayerCount: 2
Fore
SplineSet
-8 -147 m 1,0,1
 30 -116 30 -116 59.5 -71.5 c 128,-1,2
 89 -27 89 -27 99 15 c 0,3,4
 102 27 102 27 102 34 c 0,5,6
 102 53 102 53 77 53 c 0,7,8
 45 53 45 53 45 14 c 0,9,10
 45 -5 45 -5 72 -5 c 1,11,12
 52 -76 52 -76 -29 -147 c 1,13,-1
 -8 -147 l 1,0,1
EndSplineSet
EndChar

StartChar: hyphen
Encoding: 45 45 14
Width: 388
Flags: W
LayerCount: 2
Fore
SplineSet
317 295 m 1,0,-1
 321 315 l 1,1,-1
 92 315 l 1,2,-1
 88 295 l 1,3,-1
 317 295 l 1,0,-1
EndSplineSet
EndChar

StartChar: period
Encoding: 46 46 15
Width: 240
Flags: W
LayerCount: 2
Fore
SplineSet
71 -5 m 0,0,1
 86 -5 86 -5 91.5 1 c 128,-1,2
 97 7 97 7 99.5 17.5 c 128,-1,3
 102 28 102 28 102 34 c 0,4,5
 102 53 102 53 77 53 c 0,6,7
 45 53 45 53 45 14 c 0,8,9
 45 -5 45 -5 71 -5 c 0,0,1
EndSplineSet
EndChar

StartChar: slash
Encoding: 47 47 16
Width: 301
GlyphClass: 3
Flags: W
LayerCount: 2
Fore
SplineSet
-57 -151 m 1,0,-1
 369 740 l 1,1,-1
 349 740 l 1,2,-1
 -77 -151 l 1,3,-1
 -57 -151 l 1,0,-1
EndSplineSet
EndChar

StartChar: zero
Encoding: 48 48 17
Width: 600
GlyphClass: 5
Flags: W
LayerCount: 2
Fore
SplineSet
254 -12 m 0,0,1
 359 -12 359 -12 431 71 c 0,2,3
 497 151 497 151 528 264 c 0,4,5
 557 379 557 379 557 479 c 0,6,7
 557 710 557 710 378 710 c 0,8,9
 273 710 273 710 202 627 c 0,10,11
 135 547 135 547 105 433.5 c 128,-1,12
 75 320 75 320 75 219 c 0,13,14
 75 -12 75 -12 254 -12 c 0,0,1
254 8 m 0,15,16
 167 8 167 8 131.5 63.5 c 128,-1,17
 96 119 96 119 96 219 c 0,18,19
 96 272 96 272 107 331 c 2,20,-1
 119 390 l 2,21,22
 149 535 149 535 215.5 612.5 c 128,-1,23
 282 690 282 690 378 690 c 0,24,25
 465 690 465 690 500.5 634.5 c 128,-1,26
 536 579 536 579 536 479 c 0,27,28
 536 427 536 427 525 367 c 2,29,-1
 513 308 l 2,30,31
 483 163 483 163 416.5 85.5 c 128,-1,32
 350 8 350 8 254 8 c 0,15,16
EndSplineSet
EndChar

StartChar: one
Encoding: 49 49 18
Width: 600
Flags: W
LayerCount: 2
Fore
SplineSet
309 0 m 1,0,-1
 287 0 l 1,1,-1
 421 674 l 1,2,-1
 254 588 l 1,3,-1
 259 612 l 1,4,-1
 424 698 l 1,5,-1
 448 698 l 1,6,-1
 309 0 l 1,0,-1
EndSplineSet
EndChar

StartChar: two
Encoding: 50 50 19
Width: 600
Flags: W
LayerCount: 2
Fore
SplineSet
467 0 m 1,0,-1
 470 20 l 1,1,-1
 63 20 l 1,2,-1
 383 289 l 2,3,4
 463 355 463 355 500.5 416.5 c 128,-1,5
 538 478 538 478 538 556 c 0,6,7
 538 622 538 622 497 666 c 128,-1,8
 456 710 456 710 370 710 c 0,9,10
 206 710 206 710 146 557 c 1,11,-1
 165 551 l 1,12,13
 223 690 223 690 368 690 c 0,14,15
 445 690 445 690 481 652.5 c 128,-1,16
 517 615 517 615 517 556 c 0,17,18
 517 531 517 531 508 490 c 0,19,20
 484 394 484 394 367 302 c 1,21,-1
 38 24 l 1,22,-1
 33 0 l 1,23,-1
 467 0 l 1,0,-1
EndSplineSet
EndChar

StartChar: three
Encoding: 51 51 20
Width: 600
Flags: W
LayerCount: 2
Fore
SplineSet
245 -12 m 0,0,1
 349 -12 349 -12 415 50 c 128,-1,2
 481 112 481 112 481 216 c 0,3,4
 481 277 481 277 447.5 316.5 c 128,-1,5
 414 356 414 356 361 363 c 1,6,-1
 362 366 l 1,7,8
 442 379 442 379 487.5 429 c 128,-1,9
 533 479 533 479 533 560 c 0,10,11
 533 632 533 632 484 671 c 128,-1,12
 435 710 435 710 363 710 c 0,13,14
 214 710 214 710 154 599 c 1,15,-1
 172 590 l 1,16,17
 201 642 201 642 245.5 666 c 128,-1,18
 290 690 290 690 360 690 c 256,19,20
 430 690 430 690 470.5 655 c 128,-1,21
 511 620 511 620 511 558 c 0,22,23
 511 543 511 543 504 512 c 0,24,25
 489 446 489 446 437.5 411 c 128,-1,26
 386 376 386 376 305 376 c 2,27,-1
 211 376 l 1,28,-1
 207 356 l 1,29,-1
 302 356 l 2,30,31
 381 356 381 356 420 317.5 c 128,-1,32
 459 279 459 279 459 216 c 0,33,34
 459 209 459 209 458 200 c 128,-1,35
 457 191 457 191 455 181 c 128,-1,36
 453 171 453 171 451 160 c 0,37,38
 436 89 436 89 382 48.5 c 128,-1,39
 328 8 328 8 246 8 c 0,40,41
 174 8 174 8 127 31 c 128,-1,42
 80 54 80 54 57 105 c 1,43,-1
 40 95 l 1,44,45
 87 -12 87 -12 245 -12 c 0,0,1
EndSplineSet
EndChar

StartChar: four
Encoding: 52 52 21
Width: 600
GlyphClass: 2
Flags: W
LayerCount: 2
Fore
SplineSet
379 0 m 1,0,-1
 411 160 l 1,1,-1
 528 160 l 1,2,-1
 532 179 l 1,3,-1
 415 179 l 1,4,-1
 519 698 l 1,5,-1
 490 698 l 1,6,-1
 29 181 l 1,7,-1
 25 160 l 1,8,-1
 390 160 l 1,9,-1
 358 0 l 1,10,-1
 379 0 l 1,0,-1
394 179 m 1,11,-1
 53 179 l 1,12,-1
 489 670 l 1,13,-1
 492 670 l 1,14,-1
 394 179 l 1,11,-1
EndSplineSet
EndChar

StartChar: five
Encoding: 53 53 22
Width: 600
Flags: W
LayerCount: 2
Fore
SplineSet
260 -12 m 0,0,1
 370 -12 370 -12 437.5 56.5 c 128,-1,2
 505 125 505 125 505 245 c 0,3,4
 505 324 505 324 461 368.5 c 128,-1,5
 417 413 417 413 329 413 c 0,6,7
 221 413 221 413 161 343 c 1,8,-1
 158 344 l 1,9,-1
 248 678 l 1,10,-1
 572 678 l 1,11,-1
 575 698 l 1,12,-1
 233 698 l 1,13,-1
 133 326 l 1,14,-1
 157 323 l 1,15,16
 192 358 192 358 230.5 375.5 c 128,-1,17
 269 393 269 393 328 393 c 0,18,19
 408 393 408 393 445.5 353.5 c 128,-1,20
 483 314 483 314 483 245 c 0,21,22
 483 222 483 222 474 178 c 0,23,24
 459 99 459 99 406 53.5 c 128,-1,25
 353 8 353 8 259 8 c 0,26,27
 201 8 201 8 152 30 c 128,-1,28
 103 52 103 52 78 105 c 1,29,-1
 61 95 l 1,30,31
 86 40 86 40 140 14 c 128,-1,32
 194 -12 194 -12 260 -12 c 0,0,1
EndSplineSet
EndChar

StartChar: six
Encoding: 54 54 23
Width: 600
GlyphClass: 2
Flags: W
LayerCount: 2
Fore
SplineSet
267 -12 m 0,0,1
 377 -12 377 -12 447.5 62.5 c 128,-1,2
 518 137 518 137 518 245 c 0,3,4
 518 325 518 325 469.5 370.5 c 128,-1,5
 421 416 421 416 339 416 c 0,6,7
 194 416 194 416 128 296 c 1,8,-1
 125 297 l 1,9,10
 168 422 168 422 257 518.5 c 128,-1,11
 346 615 346 615 494 698 c 1,12,-1
 460 698 l 1,13,14
 297 610 297 610 193 471 c 0,15,16
 85 324 85 324 85 168 c 0,17,18
 85 89 85 89 128 38.5 c 128,-1,19
 171 -12 171 -12 267 -12 c 0,0,1
266 8 m 0,20,21
 184 8 184 8 145 50.5 c 128,-1,22
 106 93 106 93 106 160 c 0,23,24
 106 170 106 170 114 221 c 0,25,26
 130 296 130 296 189 346 c 128,-1,27
 248 396 248 396 336 396 c 0,28,29
 418 396 418 396 457 354 c 128,-1,30
 496 312 496 312 496 245 c 0,31,32
 496 229 496 229 493 210 c 2,33,-1
 488 183 l 2,34,35
 475 108 475 108 415 58 c 128,-1,36
 355 8 355 8 266 8 c 0,20,21
EndSplineSet
EndChar

StartChar: seven
Encoding: 55 55 24
Width: 600
Flags: W
LayerCount: 2
Fore
SplineSet
169 0 m 1,0,-1
 144 0 l 1,1,-1
 579 678 l 1,2,-1
 169 678 l 1,3,-1
 173 698 l 1,4,-1
 608 698 l 1,5,-1
 604 678 l 1,6,-1
 169 0 l 1,0,-1
EndSplineSet
EndChar

StartChar: eight
Encoding: 56 56 25
Width: 600
Flags: W
LayerCount: 2
Fore
SplineSet
245 -12 m 0,0,1
 359 -12 359 -12 432.5 50 c 128,-1,2
 506 112 506 112 506 209 c 0,3,4
 506 331 506 331 388 362 c 1,5,-1
 389 366 l 1,6,7
 462 381 462 381 507.5 433 c 128,-1,8
 553 485 553 485 553 561 c 0,9,10
 553 630 553 630 506 670 c 128,-1,11
 459 710 459 710 372 710 c 0,12,13
 270 710 270 710 204.5 654 c 128,-1,14
 139 598 139 598 139 506 c 0,15,16
 139 397 139 397 242 371 c 1,17,-1
 242 367 l 1,18,19
 154 352 154 352 100.5 295 c 128,-1,20
 47 238 47 238 47 154 c 0,21,22
 47 79 47 79 98 33.5 c 128,-1,23
 149 -12 149 -12 245 -12 c 0,0,1
246 8 m 0,24,25
 160 8 160 8 115 47.5 c 128,-1,26
 70 87 70 87 70 150 c 0,27,28
 70 168 70 168 76 200 c 0,29,30
 91 271 91 271 154 313.5 c 128,-1,31
 217 356 217 356 307 356 c 0,32,33
 393 356 393 356 438.5 316.5 c 128,-1,34
 484 277 484 277 484 214 c 0,35,36
 484 207 484 207 482.5 198 c 128,-1,37
 481 189 481 189 477 164 c 0,38,39
 463 93 463 93 399.5 50.5 c 128,-1,40
 336 8 336 8 246 8 c 0,24,25
322 376 m 0,41,42
 244 376 244 376 203 409.5 c 128,-1,43
 162 443 162 443 162 501 c 0,44,45
 162 521 162 521 168 550 c 0,46,47
 182 616 182 616 235 653 c 128,-1,48
 288 690 288 690 370 690 c 0,49,50
 448 690 448 690 489 656.5 c 128,-1,51
 530 623 530 623 530 565 c 0,52,53
 530 553 530 553 523 516 c 0,54,55
 510 450 510 450 457 413 c 128,-1,56
 404 376 404 376 322 376 c 0,41,42
EndSplineSet
EndChar

StartChar: nine
Encoding: 57 57 26
Width: 600
GlyphClass: 1
Flags: W
LayerCount: 2
Fore
SplineSet
172 0 m 1,0,1
 334 88 334 88 439 228 c 0,2,3
 547 374 547 374 547 530 c 0,4,5
 547 610 547 610 504 660 c 128,-1,6
 461 710 461 710 365 710 c 0,7,8
 256 710 256 710 185 635.5 c 128,-1,9
 114 561 114 561 114 453 c 0,10,11
 114 373 114 373 162.5 327.5 c 128,-1,12
 211 282 211 282 293 282 c 0,13,14
 438 282 438 282 504 402 c 1,15,-1
 507 401 l 1,16,17
 463 276 463 276 375 179.5 c 128,-1,18
 287 83 287 83 138 0 c 1,19,-1
 172 0 l 1,0,1
296 302 m 0,20,21
 214 302 214 302 175 344 c 128,-1,22
 136 386 136 386 136 453 c 1,23,-1
 137 468 l 1,24,-1
 144 515 l 2,25,26
 157 591 157 591 217.5 640.5 c 128,-1,27
 278 690 278 690 366 690 c 0,28,29
 448 690 448 690 487 648 c 128,-1,30
 526 606 526 606 526 539 c 0,31,32
 526 522 526 522 522 500 c 2,33,-1
 518 477 l 2,34,35
 503 402 503 402 444 352 c 128,-1,36
 385 302 385 302 296 302 c 0,20,21
EndSplineSet
EndChar

StartChar: colon
Encoding: 58 58 27
Width: 258
Flags: W
LayerCount: 2
Fore
SplineSet
78 -5 m 0,0,1
 93 -5 93 -5 98.5 1 c 128,-1,2
 104 7 104 7 106.5 17.5 c 128,-1,3
 109 28 109 28 109 34 c 0,4,5
 109 53 109 53 84 53 c 0,6,7
 52 53 52 53 52 14 c 0,8,9
 52 -5 52 -5 78 -5 c 0,0,1
168 436 m 0,10,11
 183 436 183 436 188.5 442 c 128,-1,12
 194 448 194 448 196.5 458.5 c 128,-1,13
 199 469 199 469 199 475 c 0,14,15
 199 494 199 494 174 494 c 0,16,17
 142 494 142 494 142 455 c 0,18,19
 142 436 142 436 168 436 c 0,10,11
EndSplineSet
EndChar

StartChar: semicolon
Encoding: 59 59 28
Width: 258
GlyphClass: 2
Flags: W
LayerCount: 2
Fore
SplineSet
-1 -147 m 1,0,1
 37 -116 37 -116 66.5 -71.5 c 128,-1,2
 96 -27 96 -27 106 15 c 0,3,4
 109 27 109 27 109 34 c 0,5,6
 109 53 109 53 84 53 c 0,7,8
 52 53 52 53 52 14 c 0,9,10
 52 -5 52 -5 79 -5 c 1,11,12
 59 -76 59 -76 -22 -147 c 1,13,-1
 -1 -147 l 1,0,1
168 436 m 0,14,15
 183 436 183 436 188.5 442 c 128,-1,16
 194 448 194 448 196.5 458.5 c 128,-1,17
 199 469 199 469 199 475 c 0,18,19
 199 494 199 494 174 494 c 0,20,21
 142 494 142 494 142 455 c 0,22,23
 142 436 142 436 168 436 c 0,14,15
EndSplineSet
EndChar

StartChar: less
Encoding: 60 60 29
Width: 600
Flags: W
LayerCount: 2
Fore
SplineSet
475 38 m 1,0,-1
 479 59 l 1,1,-1
 121 302 l 1,2,-1
 121 304 l 1,3,-1
 577 547 l 1,4,-1
 581 572 l 1,5,-1
 100 314 l 1,6,-1
 96 296 l 1,7,-1
 475 38 l 1,0,-1
EndSplineSet
EndChar

StartChar: equal
Encoding: 61 61 30
Width: 600
GlyphClass: 2
Flags: W
LayerCount: 2
Fore
SplineSet
554 385 m 1,0,-1
 558 404 l 1,1,-1
 82 404 l 1,2,-1
 78 385 l 1,3,-1
 554 385 l 1,0,-1
518 207 m 1,4,-1
 522 226 l 1,5,-1
 46 226 l 1,6,-1
 42 207 l 1,7,-1
 518 207 l 1,4,-1
EndSplineSet
EndChar

StartChar: greater
Encoding: 62 62 31
Width: 600
GlyphClass: 5
Flags: W
LayerCount: 2
Fore
SplineSet
39 38 m 1,0,-1
 520 296 l 1,1,-1
 524 314 l 1,2,-1
 145 572 l 1,3,-1
 141 551 l 1,4,-1
 499 308 l 1,5,-1
 499 306 l 1,6,-1
 43 63 l 1,7,-1
 39 38 l 1,0,-1
EndSplineSet
EndChar

StartChar: question
Encoding: 63 63 32
Width: 453
GlyphClass: 3
Flags: W
LayerCount: 2
Fore
SplineSet
201 176 m 1,0,-1
 231 331 l 1,1,2
 354 343 354 343 411.5 401 c 128,-1,3
 469 459 469 459 469 554 c 0,4,5
 469 625 469 625 423.5 667.5 c 128,-1,6
 378 710 378 710 300 710 c 0,7,8
 148 710 148 710 91 560 c 1,9,-1
 110 554 l 1,10,11
 136 618 136 618 180 654.5 c 128,-1,12
 224 691 224 691 299 691 c 0,13,14
 371 691 371 691 409 654.5 c 128,-1,15
 447 618 447 618 447 554 c 0,16,17
 447 534 447 534 442 508 c 0,18,19
 425 364 425 364 212 349 c 1,20,-1
 179 176 l 1,21,-1
 201 176 l 1,0,-1
157 -5 m 0,22,23
 172 -5 172 -5 177.5 1 c 128,-1,24
 183 7 183 7 185.5 17.5 c 128,-1,25
 188 28 188 28 188 34 c 0,26,27
 188 53 188 53 163 53 c 0,28,29
 131 53 131 53 131 14 c 0,30,31
 131 -5 131 -5 157 -5 c 0,22,23
EndSplineSet
EndChar

StartChar: at
Encoding: 64 64 33
Width: 880
Flags: W
LayerCount: 2
Fore
SplineSet
600 -121 m 1,0,-1
 603 -103 l 1,1,-1
 367 -103 l 2,2,3
 240 -103 240 -103 162.5 -26.5 c 128,-1,4
 85 50 85 50 85 186 c 0,5,6
 85 228 85 228 95 274 c 2,7,-1
 106 326 l 2,8,9
 141 485 141 485 257 587 c 0,10,11
 377 692 377 692 528 692 c 0,12,13
 656 692 656 692 735 620 c 128,-1,14
 814 548 814 548 814 414 c 0,15,16
 814 378 814 378 806 342 c 2,17,-1
 797 295 l 2,18,19
 777 195 777 195 732 141 c 128,-1,20
 687 87 687 87 633 87 c 0,21,22
 575 87 575 87 573 138 c 0,23,24
 573 155 573 155 574 161 c 0,25,26
 575 162 575 162 641 496 c 1,27,-1
 621 496 l 1,28,-1
 608 426 l 1,29,-1
 605 426 l 1,30,31
 598 459 598 459 566 483.5 c 128,-1,32
 534 508 534 508 486 508 c 0,33,34
 402 508 402 508 346 454 c 128,-1,35
 290 400 290 400 269 287 c 0,36,37
 261 245 261 245 261 210 c 0,38,39
 261 144 261 144 296.5 106.5 c 128,-1,40
 332 69 332 69 398 69 c 0,41,42
 452 69 452 69 490.5 94.5 c 128,-1,43
 529 120 529 120 549 150 c 1,44,-1
 552 150 l 1,45,-1
 552 138 l 2,46,47
 552 107 552 107 573 88 c 128,-1,48
 594 69 594 69 630 69 c 0,49,50
 704 69 704 69 756 141 c 0,51,52
 805 210 805 210 824 320 c 0,53,54
 834 371 834 371 834 414 c 0,55,56
 834 558 834 558 749 635 c 0,57,58
 663 710 663 710 532 710 c 0,59,60
 448 710 448 710 374 681 c 0,61,62
 223 620 223 620 139 469 c 0,63,64
 98 392 98 392 82 315 c 128,-1,65
 66 238 66 238 66 186 c 0,66,67
 66 38 66 38 147 -41 c 0,68,69
 226 -121 226 -121 364 -121 c 2,70,-1
 600 -121 l 1,0,-1
401 87 m 0,71,72
 341 87 341 87 311.5 120 c 128,-1,73
 282 153 282 153 282 210 c 0,74,75
 282 236 282 236 288 268 c 2,76,-1
 295 306 l 2,77,78
 313 393 313 393 361 441.5 c 128,-1,79
 409 490 409 490 482 490 c 0,80,81
 538 490 538 490 572 455 c 0,82,83
 596 428 596 428 596 388 c 0,84,85
 596 376 596 376 594 362 c 2,86,-1
 564 212 l 2,87,88
 552 161 552 161 503.5 124 c 128,-1,89
 455 87 455 87 401 87 c 0,71,72
EndSplineSet
EndChar

StartChar: A
Encoding: 65 65 34
Width: 594
GlyphClass: 5
Flags: W
LayerCount: 2
Fore
SplineSet
519 0 m 1,0,-1
 384 698 l 1,1,-1
 354 698 l 1,2,-1
 -12 0 l 1,3,-1
 12 0 l 1,4,-1
 134 234 l 1,5,-1
 452 234 l 1,6,-1
 497 0 l 1,7,-1
 519 0 l 1,0,-1
448 253 m 1,8,-1
 144 253 l 1,9,-1
 364 673 l 1,10,-1
 367 673 l 1,11,-1
 448 253 l 1,8,-1
EndSplineSet
EndChar

StartChar: B
Encoding: 66 66 35
Width: 606
GlyphClass: 7
Flags: W
LayerCount: 2
Fore
SplineSet
321 0 m 2,0,1
 419 0 419 0 475 59.5 c 128,-1,2
 531 119 531 119 531 228 c 0,3,4
 531 279 531 279 505 317 c 128,-1,5
 479 355 479 355 429 367 c 1,6,-1
 429 370 l 1,7,8
 507 388 507 388 537 443 c 0,9,10
 564 491 564 491 564 561 c 0,11,12
 564 693 564 693 414 698 c 1,13,-1
 193 698 l 1,14,-1
 55 0 l 1,15,-1
 321 0 l 2,0,1
323 20 m 2,16,-1
 81 20 l 1,17,-1
 148 358 l 1,18,-1
 377 358 l 2,19,20
 445 358 445 358 477 319.5 c 128,-1,21
 509 281 509 281 509 228 c 0,22,23
 509 200 509 200 500 159 c 0,24,25
 488 98 488 98 444.5 59 c 128,-1,26
 401 20 401 20 323 20 c 2,16,-1
367 378 m 2,27,-1
 152 378 l 1,28,-1
 211 678 l 1,29,-1
 413 678 l 2,30,31
 542 678 542 678 542 562 c 0,32,33
 542 541 542 541 533 495 c 0,34,35
 522 440 522 440 480 409 c 128,-1,36
 438 378 438 378 367 378 c 2,27,-1
EndSplineSet
EndChar

StartChar: C
Encoding: 67 67 36
Width: 595
Flags: W
LayerCount: 2
Fore
SplineSet
291 -12 m 0,0,1
 437 -12 437 -12 519 141 c 1,2,-1
 500 151 l 1,3,4
 461 79 461 79 411 43.5 c 128,-1,5
 361 8 361 8 291 8 c 0,6,7
 194 8 194 8 142.5 65 c 128,-1,8
 91 122 91 122 91 220 c 0,9,10
 91 279 91 279 112 384 c 0,11,12
 141 526 141 526 216 608 c 128,-1,13
 291 690 291 690 397 690 c 0,14,15
 475 690 475 690 514 655.5 c 128,-1,16
 553 621 553 621 568 564 c 1,17,-1
 589 569 l 1,18,19
 572 635 572 635 527 672.5 c 128,-1,20
 482 710 482 710 398 710 c 0,21,22
 285 710 285 710 206 627 c 0,23,24
 134 547 134 547 101 435 c 0,25,26
 69 333 69 333 69 220 c 0,27,28
 69 106 69 106 131 48 c 0,29,30
 191 -12 191 -12 291 -12 c 0,0,1
EndSplineSet
EndChar

StartChar: D
Encoding: 68 68 37
Width: 648
Flags: W
LayerCount: 2
Fore
SplineSet
282 0 m 2,0,1
 367 0 367 0 429.5 40.5 c 128,-1,2
 492 81 492 81 532 148.5 c 128,-1,3
 572 216 572 216 591 299.5 c 128,-1,4
 610 383 610 383 610 468 c 0,5,6
 610 577 610 577 551.5 637.5 c 128,-1,7
 493 698 493 698 378 698 c 2,8,-1
 193 698 l 1,9,-1
 55 0 l 1,10,-1
 282 0 l 2,0,1
282 20 m 2,11,-1
 81 20 l 1,12,-1
 211 678 l 1,13,-1
 375 678 l 2,14,15
 483 678 483 678 535.5 621.5 c 128,-1,16
 588 565 588 565 588 468 c 0,17,18
 588 408 588 408 567 303 c 0,19,20
 544 186 544 186 472 104 c 0,21,22
 395 20 395 20 282 20 c 2,11,-1
EndSplineSet
EndChar

StartChar: E
Encoding: 69 69 38
Width: 553
Flags: W
LayerCount: 2
Fore
SplineSet
432 0 m 1,0,-1
 436 20 l 1,1,-1
 80 20 l 1,2,-1
 145 344 l 1,3,-1
 489 344 l 1,4,-1
 493 364 l 1,5,-1
 149 364 l 1,6,-1
 212 678 l 1,7,-1
 568 678 l 1,8,-1
 572 698 l 1,9,-1
 194 698 l 1,10,-1
 54 0 l 1,11,-1
 432 0 l 1,0,-1
EndSplineSet
EndChar

StartChar: F
Encoding: 70 70 39
Width: 528
GlyphClass: 2
Flags: W
LayerCount: 2
Fore
SplineSet
76 0 m 1,0,-1
 145 344 l 1,1,-1
 479 344 l 1,2,-1
 483 364 l 1,3,-1
 149 364 l 1,4,-1
 212 678 l 1,5,-1
 560 678 l 1,6,-1
 564 698 l 1,7,-1
 194 698 l 1,8,-1
 54 0 l 1,9,-1
 76 0 l 1,0,-1
EndSplineSet
EndChar

StartChar: G
Encoding: 71 71 40
Width: 660
Flags: W
LayerCount: 2
Fore
SplineSet
295 -12 m 0,0,1
 447 -12 447 -12 522 114 c 1,2,-1
 525 114 l 1,3,-1
 502 0 l 1,4,-1
 523 0 l 1,5,-1
 589 332 l 1,6,-1
 391 332 l 1,7,-1
 387 312 l 1,8,-1
 563 312 l 1,9,-1
 541 205 l 2,10,11
 516 102 516 102 448 55 c 0,12,13
 375 8 375 8 295 8 c 0,14,15
 195 8 195 8 143 65 c 128,-1,16
 91 122 91 122 91 220 c 0,17,18
 91 279 91 279 112 384 c 0,19,20
 142 526 142 526 217.5 608 c 128,-1,21
 293 690 293 690 402 690 c 0,22,23
 487 690 487 690 530 656 c 128,-1,24
 573 622 573 622 589 564 c 1,25,-1
 610 569 l 1,26,27
 573 710 573 710 403 710 c 0,28,29
 286 710 286 710 207 627 c 0,30,31
 134 547 134 547 101 435 c 0,32,33
 69 318 69 318 69 220 c 0,34,35
 69 106 69 106 132 47 c 128,-1,36
 195 -12 195 -12 295 -12 c 0,0,1
EndSplineSet
EndChar

StartChar: H
Encoding: 72 72 41
Width: 680
GlyphClass: 5
Flags: W
LayerCount: 2
Fore
SplineSet
524 0 m 1,0,-1
 664 698 l 1,1,-1
 642 698 l 1,2,-1
 575 364 l 1,3,-1
 149 364 l 1,4,-1
 216 698 l 1,5,-1
 194 698 l 1,6,-1
 54 0 l 1,7,-1
 76 0 l 1,8,-1
 145 344 l 1,9,-1
 571 344 l 1,10,-1
 502 0 l 1,11,-1
 524 0 l 1,0,-1
EndSplineSet
EndChar

StartChar: I
Encoding: 73 73 42
Width: 232
Flags: W
LayerCount: 2
Fore
SplineSet
76 0 m 1,0,-1
 216 698 l 1,1,-1
 194 698 l 1,2,-1
 54 0 l 1,3,-1
 76 0 l 1,0,-1
EndSplineSet
EndChar

StartChar: J
Encoding: 74 74 43
Width: 455
Flags: W
LayerCount: 2
Fore
SplineSet
142 -12 m 0,0,1
 69 -12 69 -12 30 24.5 c 128,-1,2
 -9 61 -9 61 -14 118 c 1,3,-1
 6 123 l 1,4,5
 12 65 12 65 48 36.5 c 128,-1,6
 84 8 84 8 142 8 c 0,7,8
 285 8 285 8 322 184 c 2,9,-1
 425 698 l 1,10,-1
 446 698 l 1,11,-1
 343 178 l 2,12,13
 324 86 324 86 272 37 c 128,-1,14
 220 -12 220 -12 142 -12 c 0,0,1
EndSplineSet
EndChar

StartChar: K
Encoding: 75 75 44
Width: 564
GlyphClass: 1
Flags: W
LayerCount: 2
Fore
SplineSet
497 0 m 1,0,-1
 307 402 l 1,1,-1
 633 698 l 1,2,-1
 604 698 l 1,3,4
 368 485 368 485 134 271 c 1,5,-1
 131 271 l 1,6,-1
 216 698 l 1,7,-1
 194 698 l 1,8,-1
 54 0 l 1,9,-1
 76 0 l 1,10,-1
 125 237 l 1,11,-1
 290 388 l 1,12,-1
 474 0 l 1,13,-1
 497 0 l 1,0,-1
EndSplineSet
EndChar

StartChar: L
Encoding: 76 76 45
Width: 468
GlyphClass: 3
Flags: W
LayerCount: 2
Fore
SplineSet
401 0 m 1,0,-1
 405 20 l 1,1,-1
 80 20 l 1,2,-1
 216 698 l 1,3,-1
 194 698 l 1,4,-1
 54 0 l 1,5,-1
 401 0 l 1,0,-1
EndSplineSet
EndChar

StartChar: M
Encoding: 77 77 46
Width: 780
GlyphClass: 1
Flags: W
LayerCount: 2
Fore
SplineSet
624 0 m 1,0,-1
 764 698 l 1,1,-1
 729 698 l 1,2,-1
 395 278 l 1,3,-1
 392 278 l 1,4,-1
 226 698 l 1,5,-1
 194 698 l 1,6,-1
 54 0 l 1,7,-1
 75 0 l 1,8,-1
 210 673 l 1,9,-1
 213 673 l 1,10,-1
 386 236 l 1,11,-1
 735 673 l 1,12,-1
 738 673 l 1,13,-1
 603 0 l 1,14,-1
 624 0 l 1,0,-1
EndSplineSet
EndChar

StartChar: N
Encoding: 78 78 47
Width: 680
GlyphClass: 5
Flags: W
LayerCount: 2
Fore
SplineSet
524 0 m 1,0,-1
 664 698 l 1,1,-1
 643 698 l 1,2,-1
 509 27 l 1,3,-1
 506 27 l 1,4,-1
 224 698 l 1,5,-1
 194 698 l 1,6,-1
 54 0 l 1,7,-1
 75 0 l 1,8,-1
 209 671 l 1,9,-1
 212 671 l 1,10,-1
 494 0 l 1,11,-1
 524 0 l 1,0,-1
EndSplineSet
EndChar

StartChar: O
Encoding: 79 79 48
Width: 658
GlyphClass: 1
Flags: W
LayerCount: 2
Fore
SplineSet
291 -12 m 0,0,1
 407 -12 407 -12 486 71 c 0,2,3
 559 151 559 151 592 263 c 0,4,5
 623 366 623 366 623 478 c 0,6,7
 623 592 623 592 561 651 c 128,-1,8
 499 710 499 710 401 710 c 0,9,10
 284 710 284 710 207 627 c 0,11,12
 134 547 134 547 101 435 c 0,13,14
 69 318 69 318 69 220 c 0,15,16
 69 106 69 106 131 48 c 0,17,18
 191 -12 191 -12 291 -12 c 0,0,1
291 8 m 0,19,20
 194 8 194 8 142.5 65 c 128,-1,21
 91 122 91 122 91 220 c 0,22,23
 91 279 91 279 112 384 c 0,24,25
 142 526 142 526 217.5 608 c 128,-1,26
 293 690 293 690 401 690 c 0,27,28
 498 690 498 690 549.5 633 c 128,-1,29
 601 576 601 576 601 478 c 0,30,31
 601 419 601 419 580 314 c 0,32,33
 551 173 551 173 475 90.5 c 128,-1,34
 399 8 399 8 291 8 c 0,19,20
EndSplineSet
EndChar

StartChar: P
Encoding: 80 80 49
Width: 582
GlyphClass: 3
Flags: W
LayerCount: 2
Fore
SplineSet
76 0 m 1,0,-1
 141 322 l 1,1,-1
 386 322 l 2,2,3
 484 322 484 322 540 381.5 c 128,-1,4
 596 441 596 441 596 550 c 0,5,6
 596 614 596 614 557 656 c 128,-1,7
 518 698 518 698 445 698 c 2,8,-1
 194 698 l 1,9,-1
 54 0 l 1,10,-1
 76 0 l 1,0,-1
388 342 m 2,11,-1
 145 342 l 1,12,-1
 211 678 l 1,13,-1
 443 678 l 2,14,15
 511 678 511 678 543 641 c 0,16,17
 574 603 574 603 574 550 c 0,18,19
 574 522 574 522 565 481 c 0,20,21
 553 420 553 420 509.5 381 c 128,-1,22
 466 342 466 342 388 342 c 2,11,-1
EndSplineSet
EndChar

StartChar: Q
Encoding: 81 81 50
Width: 680
GlyphClass: 3
Flags: W
LayerCount: 2
Fore
SplineSet
291 8 m 0,0,1
 194 8 194 8 142.5 65 c 128,-1,2
 91 122 91 122 91 220 c 0,3,4
 91 279 91 279 112 384 c 0,5,6
 142 526 142 526 217.5 608 c 128,-1,7
 293 690 293 690 401 690 c 0,8,9
 498 690 498 690 549.5 633 c 128,-1,10
 601 576 601 576 601 478 c 0,11,12
 601 419 601 419 580 314 c 0,13,14
 551 173 551 173 475 90.5 c 128,-1,15
 399 8 399 8 291 8 c 0,0,1
486 71 m 0,17,18
 559 151 559 151 592 263 c 0,19,20
 623 366 623 366 623 478 c 0,21,22
 623 592 623 592 561 651 c 128,-1,23
 499 710 499 710 401 710 c 0,24,25
 284 710 284 710 207 627 c 0,26,27
 134 547 134 547 101 435 c 0,28,29
 69 318 69 318 69 220 c 0,30,31
 69 106 69 106 131 48 c 0,32,33
 191 -12 191 -12 291 -12 c 0,34,35
 340 -12 340 -12 382 3 c 1,36,-1
 567 -118 l 1,37,-1
 581 -101 l 1,38,-1
 406 13 l 1,39,16
 450 33 450 33 486 71 c 0,17,18
EndSplineSet
EndChar

StartChar: R
Encoding: 82 82 51
Width: 630
GlyphClass: 1
Flags: W
LayerCount: 2
Fore
SplineSet
507 0 m 1,0,-1
 382 322 l 1,1,2
 484 322 484 322 540 381.5 c 128,-1,3
 596 441 596 441 596 550 c 0,4,5
 596 614 596 614 557 656 c 128,-1,6
 518 698 518 698 445 698 c 2,7,-1
 194 698 l 1,8,-1
 54 0 l 1,9,-1
 76 0 l 1,10,-1
 141 322 l 1,11,-1
 359 322 l 1,12,-1
 484 0 l 1,13,-1
 507 0 l 1,0,-1
388 342 m 2,14,-1
 145 342 l 1,15,-1
 211 678 l 1,16,-1
 443 678 l 2,17,18
 511 678 511 678 543 641 c 0,19,20
 574 603 574 603 574 550 c 0,21,22
 574 522 574 522 565 481 c 0,23,24
 553 420 553 420 509.5 381 c 128,-1,25
 466 342 466 342 388 342 c 2,14,-1
EndSplineSet
EndChar

StartChar: S
Encoding: 83 83 52
Width: 547
GlyphClass: 7
Flags: W
LayerCount: 2
Fore
SplineSet
240 -12 m 0,0,1
 338 -12 338 -12 396.5 36.5 c 128,-1,2
 455 85 455 85 455 184 c 0,3,4
 455 225 455 225 438 257 c 0,5,6
 411 313 411 313 313 354 c 2,7,-1
 247 381 l 1,8,9
 115 429 115 429 116 534 c 0,10,11
 118 615 118 615 167 652.5 c 128,-1,12
 216 690 216 690 305 690 c 0,13,14
 435 690 435 690 495 602 c 1,15,-1
 513 615 l 1,16,17
 449 710 449 710 307 710 c 0,18,19
 210 710 210 710 151.5 666 c 128,-1,20
 93 622 93 622 93 532 c 0,21,22
 93 490 93 490 112 457 c 0,23,24
 139 401 139 401 237 361 c 2,25,-1
 303 335 l 2,26,27
 364 312 364 312 404 270 c 1,28,29
 432 234 432 234 432 186 c 2,30,-1
 430 153 l 1,31,-1
 429 142 l 2,32,33
 420 84 420 84 381 51 c 0,34,35
 331 8 331 8 240 8 c 0,36,37
 101 8 101 8 24 115 c 1,38,-1
 6 102 l 1,39,40
 89 -12 89 -12 240 -12 c 0,0,1
EndSplineSet
EndChar

StartChar: T
Encoding: 84 84 53
Width: 548
GlyphClass: 5
Flags: W
LayerCount: 2
Fore
SplineSet
234 0 m 1,0,-1
 370 678 l 1,1,-1
 619 678 l 1,2,-1
 623 698 l 1,3,-1
 103 698 l 1,4,-1
 99 678 l 1,5,-1
 348 678 l 1,6,-1
 212 0 l 1,7,-1
 234 0 l 1,0,-1
EndSplineSet
EndChar

StartChar: U
Encoding: 85 85 54
Width: 639
GlyphClass: 7
Flags: W
LayerCount: 2
Fore
SplineSet
273 -12 m 0,0,1
 398 -12 398 -12 457 50 c 128,-1,2
 516 112 516 112 545 270 c 2,3,-1
 631 698 l 1,4,-1
 609 698 l 1,5,-1
 523 271 l 2,6,7
 496 124 496 124 441.5 66 c 128,-1,8
 387 8 387 8 273 8 c 0,9,10
 104 8 104 8 104 148 c 0,11,12
 104 171 104 171 109 199 c 0,13,14
 112 221 112 221 207 698 c 1,15,-1
 185 698 l 1,16,-1
 97 256 l 2,17,18
 82 197 82 197 82 148 c 0,19,20
 82 68 82 68 132 28 c 128,-1,21
 182 -12 182 -12 273 -12 c 0,0,1
EndSplineSet
EndChar

StartChar: V
Encoding: 86 86 55
Width: 566
Flags: W
LayerCount: 2
Fore
SplineSet
247 0 m 1,0,-1
 627 698 l 1,1,-1
 603 698 l 1,2,-1
 238 25 l 1,3,-1
 235 25 l 1,4,-1
 139 698 l 1,5,-1
 117 698 l 1,6,-1
 217 0 l 1,7,-1
 247 0 l 1,0,-1
EndSplineSet
EndChar

StartChar: W
Encoding: 87 87 56
Width: 864
Flags: W
LayerCount: 2
Fore
SplineSet
600 0 m 1,0,-1
 929 698 l 1,1,-1
 905 698 l 1,2,-1
 592 31 l 1,3,-1
 589 31 l 1,4,-1
 538 698 l 1,5,-1
 507 698 l 1,6,-1
 184 31 l 1,7,-1
 181 31 l 1,8,-1
 143 698 l 1,9,-1
 121 698 l 1,10,-1
 161 0 l 1,11,-1
 192 0 l 1,12,-1
 516 668 l 1,13,-1
 519 668 l 1,14,-1
 569 0 l 1,15,-1
 600 0 l 1,0,-1
EndSplineSet
EndChar

StartChar: X
Encoding: 88 88 57
Width: 552
Flags: W
LayerCount: 2
Fore
SplineSet
473 0 m 1,0,-1
 306 355 l 1,1,-1
 602 698 l 1,2,-1
 574 698 l 1,3,-1
 297 375 l 1,4,-1
 294 375 l 1,5,-1
 142 698 l 1,6,-1
 118 698 l 1,7,-1
 279 356 l 1,8,-1
 -29 0 l 1,9,-1
 -1 0 l 1,10,-1
 289 336 l 1,11,-1
 292 336 l 1,12,-1
 449 0 l 1,13,-1
 473 0 l 1,0,-1
EndSplineSet
EndChar

StartChar: Y
Encoding: 89 89 58
Width: 540
Flags: W
LayerCount: 2
Fore
SplineSet
230 0 m 1,0,-1
 289 294 l 1,1,-1
 609 698 l 1,2,-1
 583 698 l 1,3,-1
 283 320 l 1,4,-1
 280 320 l 1,5,-1
 132 698 l 1,6,-1
 109 698 l 1,7,-1
 267 294 l 1,8,-1
 208 0 l 1,9,-1
 230 0 l 1,0,-1
EndSplineSet
EndChar

StartChar: Z
Encoding: 90 90 59
Width: 543
Flags: W
LayerCount: 2
Fore
SplineSet
462 0 m 1,0,-1
 466 20 l 1,1,-1
 9 20 l 1,2,-1
 576 676 l 1,3,-1
 581 698 l 1,4,-1
 141 698 l 1,5,-1
 137 678 l 1,6,-1
 550 678 l 1,7,-1
 -17 22 l 1,8,-1
 -22 0 l 1,9,-1
 462 0 l 1,0,-1
EndSplineSet
EndChar

StartChar: bracketleft
Encoding: 91 91 60
Width: 302
Flags: W
LayerCount: 2
Fore
SplineSet
156 -138 m 1,0,-1
 160 -120 l 1,1,-1
 56 -120 l 1,2,-1
 228 742 l 1,3,-1
 332 742 l 1,4,-1
 336 760 l 1,5,-1
 212 760 l 1,6,-1
 32 -138 l 1,7,-1
 156 -138 l 1,0,-1
EndSplineSet
EndChar

StartChar: backslash
Encoding: 92 92 61
Width: 301
Flags: W
LayerCount: 2
Fore
SplineSet
217 -151 m 1,0,-1
 145 740 l 1,1,-1
 126 740 l 1,2,-1
 198 -151 l 1,3,-1
 217 -151 l 1,0,-1
EndSplineSet
EndChar

StartChar: bracketright
Encoding: 93 93 62
Width: 302
Flags: W
LayerCount: 2
Fore
SplineSet
113 -138 m 1,0,-1
 293 760 l 1,1,-1
 169 760 l 1,2,-1
 165 742 l 1,3,-1
 269 742 l 1,4,-1
 97 -120 l 1,5,-1
 -7 -120 l 1,6,-1
 -11 -138 l 1,7,-1
 113 -138 l 1,0,-1
EndSplineSet
EndChar

StartChar: asciicircum
Encoding: 94 94 63
Width: 600
Flags: W
LayerCount: 2
Fore
SplineSet
520 322 m 1,0,-1
 538 332 l 1,1,-1
 391 698 l 1,2,-1
 369 698 l 1,3,-1
 74 332 l 1,4,-1
 92 322 l 1,5,-1
 376 676 l 1,6,-1
 378 676 l 1,7,-1
 520 322 l 1,0,-1
EndSplineSet
EndChar

StartChar: underscore
Encoding: 95 95 64
Width: 559
Flags: W
LayerCount: 2
Fore
SplineSet
454 -141 m 1,0,-1
 458 -123 l 1,1,-1
 -51 -123 l 1,2,-1
 -55 -141 l 1,3,-1
 454 -141 l 1,0,-1
EndSplineSet
EndChar

StartChar: grave
Encoding: 96 96 65
Width: 600
Flags: W
LayerCount: 2
Fore
SplineSet
319 587 m 1,0,-1
 335 596 l 1,1,-1
 254 751 l 1,2,-1
 235 740 l 1,3,-1
 319 587 l 1,0,-1
EndSplineSet
EndChar

StartChar: a
Encoding: 97 97 66
Width: 567
Flags: W
LayerCount: 2
Fore
SplineSet
223 -12 m 0,0,1
 287 -12 287 -12 329.5 21 c 128,-1,2
 372 54 372 54 404 111 c 1,3,-1
 407 111 l 1,4,-1
 392 35 l 2,5,6
 392 32 392 32 391 28 c 128,-1,7
 390 24 390 24 390 19 c 0,8,9
 390 0 390 0 413 0 c 2,10,-1
 491 0 l 1,11,-1
 495 19 l 1,12,-1
 410 19 l 1,13,-1
 507 506 l 1,14,-1
 486 506 l 1,15,-1
 468 413 l 1,16,-1
 465 413 l 1,17,18
 451 461 451 461 412 489.5 c 128,-1,19
 373 518 373 518 309 518 c 0,20,21
 192 518 192 518 125 416 c 0,22,23
 60 314 60 314 60 176 c 0,24,25
 60 97 60 97 102.5 42.5 c 128,-1,26
 145 -12 145 -12 223 -12 c 0,0,1
223 7 m 0,27,28
 153 7 153 7 117 56.5 c 128,-1,29
 81 106 81 106 81 176 c 0,30,31
 81 218 81 218 87 247 c 2,32,-1
 94 282 l 2,33,34
 113 382 113 382 168 440.5 c 128,-1,35
 223 499 223 499 309 499 c 0,36,37
 393 499 393 499 431 448 c 0,38,39
 457 411 457 411 457 372 c 0,40,41
 457 359 457 359 454 346 c 2,42,-1
 426 204 l 1,43,44
 398 96 398 96 333 47 c 1,45,46
 288 7 288 7 223 7 c 0,27,28
EndSplineSet
EndChar

StartChar: b
Encoding: 98 98 67
Width: 560
Flags: W
LayerCount: 2
Fore
SplineSet
251 -12 m 0,0,1
 311 -12 311 -12 357.5 15 c 128,-1,2
 404 42 404 42 436 90 c 0,3,4
 500 192 500 192 500 330 c 0,5,6
 500 410 500 410 457.5 464 c 128,-1,7
 415 518 415 518 337 518 c 0,8,9
 273 518 273 518 230.5 485 c 128,-1,10
 188 452 188 452 156 395 c 1,11,-1
 153 395 l 1,12,-1
 222 740 l 1,13,-1
 201 740 l 1,14,-1
 53 0 l 1,15,-1
 74 0 l 1,16,-1
 92 93 l 1,17,-1
 95 93 l 1,18,19
 109 45 109 45 148 16.5 c 128,-1,20
 187 -12 187 -12 251 -12 c 0,0,1
251 7 m 0,21,22
 167 7 167 7 129 59 c 0,23,24
 103 95 103 95 103 134 c 0,25,26
 103 147 103 147 106 160 c 2,27,-1
 134 302 l 1,28,29
 163 410 163 410 227 459 c 0,30,31
 273 499 273 499 337 499 c 0,32,33
 406 499 406 499 445 449 c 0,34,35
 479 401 479 401 479 330 c 0,36,37
 479 288 479 288 473 259 c 2,38,-1
 466 224 l 2,39,40
 446 124 446 124 391.5 65.5 c 128,-1,41
 337 7 337 7 251 7 c 0,21,22
EndSplineSet
EndChar

StartChar: c
Encoding: 99 99 68
Width: 479
Flags: W
LayerCount: 2
Fore
SplineSet
223 -12 m 0,0,1
 289 -12 289 -12 337.5 22 c 128,-1,2
 386 56 386 56 422 114 c 1,3,-1
 405 123 l 1,4,5
 370 69 370 69 326 38 c 128,-1,6
 282 7 282 7 223 7 c 0,7,8
 151 7 151 7 115 60 c 0,9,10
 81 106 81 106 81 186 c 0,11,12
 81 205 81 205 82.5 219 c 128,-1,13
 84 233 84 233 96 297 c 0,14,15
 114 392 114 392 168 445.5 c 128,-1,16
 222 499 222 499 299 499 c 0,17,18
 350 499 350 499 385 473 c 128,-1,19
 420 447 420 447 432 398 c 1,20,-1
 451 403 l 1,21,22
 439 455 439 455 400 486.5 c 128,-1,23
 361 518 361 518 301 518 c 0,24,25
 243 518 243 518 198 492.5 c 128,-1,26
 153 467 153 467 123 422 c 0,27,28
 61 326 61 326 61 186 c 0,29,30
 61 101 61 101 102.5 44.5 c 128,-1,31
 144 -12 144 -12 223 -12 c 0,0,1
EndSplineSet
EndChar

StartChar: d
Encoding: 100 100 69
Width: 567
Flags: W
LayerCount: 2
Fore
SplineSet
223 -12 m 0,0,1
 287 -12 287 -12 329.5 21 c 128,-1,2
 372 54 372 54 404 111 c 1,3,-1
 407 111 l 1,4,-1
 392 35 l 2,5,6
 392 32 392 32 391 28 c 128,-1,7
 390 24 390 24 390 19 c 0,8,9
 390 0 390 0 413 0 c 2,10,-1
 491 0 l 1,11,-1
 495 19 l 1,12,-1
 410 19 l 1,13,-1
 554 740 l 1,14,-1
 533 740 l 1,15,-1
 468 413 l 1,16,-1
 465 413 l 1,17,18
 451 461 451 461 412 489.5 c 128,-1,19
 373 518 373 518 309 518 c 0,20,21
 192 518 192 518 125 416 c 0,22,23
 60 314 60 314 60 176 c 0,24,25
 60 97 60 97 102.5 42.5 c 128,-1,26
 145 -12 145 -12 223 -12 c 0,0,1
223 7 m 0,27,28
 153 7 153 7 117 56.5 c 128,-1,29
 81 106 81 106 81 176 c 0,30,31
 81 218 81 218 87 247 c 2,32,-1
 94 282 l 2,33,34
 113 382 113 382 168 440.5 c 128,-1,35
 223 499 223 499 309 499 c 0,36,37
 393 499 393 499 431 448 c 0,38,39
 457 411 457 411 457 372 c 0,40,41
 457 359 457 359 454 346 c 2,42,-1
 426 204 l 1,43,44
 398 96 398 96 333 47 c 1,45,46
 288 7 288 7 223 7 c 0,27,28
EndSplineSet
EndChar

StartChar: e
Encoding: 101 101 70
Width: 505
Flags: W
LayerCount: 2
Fore
SplineSet
237 -12 m 0,0,1
 371 -12 371 -12 445 124 c 1,2,-1
 426 132 l 1,3,4
 362 7 362 7 237 7 c 0,5,6
 159 7 159 7 120.5 49.5 c 128,-1,7
 82 92 82 92 82 189 c 0,8,9
 82 201 82 201 85 233 c 1,10,11
 317 239 317 239 403 293 c 0,12,13
 466 332 466 332 466 395 c 0,14,15
 466 452 466 452 423 485 c 128,-1,16
 380 518 380 518 308 518 c 0,17,18
 253 518 253 518 208 492.5 c 128,-1,19
 163 467 163 467 130 422 c 0,20,21
 61 325 61 325 61 187 c 0,22,23
 61 -12 61 -12 237 -12 c 0,0,1
87 252 m 1,24,-1
 90 269 l 2,25,26
 109 371 109 371 165.5 435 c 128,-1,27
 222 499 222 499 306 499 c 0,28,29
 379 499 379 499 411.5 470 c 128,-1,30
 444 441 444 441 444 395 c 0,31,32
 444 335 444 335 378 300 c 0,33,34
 305 258 305 258 87 252 c 1,24,-1
EndSplineSet
EndChar

StartChar: f
Encoding: 102 102 71
Width: 282
Flags: W
LayerCount: 2
Fore
SplineSet
22 -200 m 2,0,1
 43 -200 43 -200 50.5 -193.5 c 128,-1,2
 58 -187 58 -187 61 -167 c 2,3,-1
 190 487 l 1,4,-1
 294 487 l 1,5,-1
 298 506 l 1,6,-1
 194 506 l 1,7,-1
 236 721 l 1,8,-1
 341 721 l 1,9,-1
 345 740 l 1,10,-1
 251 740 l 2,11,12
 230 740 230 740 222.5 733.5 c 128,-1,13
 215 727 215 727 212 707 c 2,14,-1
 173 506 l 1,15,-1
 73 506 l 1,16,-1
 69 487 l 1,17,-1
 169 487 l 1,18,-1
 37 -181 l 1,19,-1
 -58 -181 l 1,20,-1
 -62 -200 l 1,21,-1
 22 -200 l 2,0,1
EndSplineSet
EndChar

StartChar: g
Encoding: 103 103 72
Width: 551
Flags: W
LayerCount: 2
Fore
SplineSet
174 -212 m 0,0,1
 69 -212 69 -212 18 -145 c 1,2,-1
 34 -131 l 1,3,4
 78 -193 78 -193 174 -193 c 0,5,6
 347 -193 347 -193 383 -13 c 2,7,-1
 407 111 l 1,8,-1
 404 111 l 1,9,10
 373 55 373 55 330 21.5 c 128,-1,11
 287 -12 287 -12 223 -12 c 0,12,13
 144 -12 144 -12 102 42 c 128,-1,14
 60 96 60 96 60 176 c 0,15,16
 60 268 60 268 89 346 c 128,-1,17
 118 424 118 424 173.5 471 c 128,-1,18
 229 518 229 518 309 518 c 0,19,20
 373 518 373 518 412 489 c 128,-1,21
 451 460 451 460 465 413 c 1,22,-1
 468 413 l 1,23,-1
 487 506 l 1,24,-1
 508 506 l 1,25,-1
 403 -18 l 2,26,27
 364 -212 364 -212 174 -212 c 0,0,1
223 7 m 0,28,29
 321 7 321 7 389 111 c 0,30,31
 415 151 415 151 426 204 c 2,32,-1
 454 346 l 2,33,34
 457 359 457 359 457 371 c 0,35,36
 457 393 457 393 447 421.5 c 128,-1,37
 437 450 437 450 403 474.5 c 128,-1,38
 369 499 369 499 309 499 c 0,39,40
 223 499 223 499 168.5 440.5 c 128,-1,41
 114 382 114 382 94 282 c 2,42,-1
 87 247 l 2,43,44
 81 218 81 218 81 176 c 0,45,46
 81 130 81 130 96 91.5 c 128,-1,47
 111 53 111 53 142.5 30 c 128,-1,48
 174 7 174 7 223 7 c 0,28,29
EndSplineSet
EndChar

StartChar: h
Encoding: 104 104 73
Width: 549
Flags: W
LayerCount: 2
Fore
SplineSet
482 0 m 1,0,-1
 486 19 l 1,1,-1
 401 19 l 1,2,-1
 461 321 l 2,3,4
 468 356 468 356 468 386 c 0,5,6
 468 449 468 449 434 483.5 c 128,-1,7
 400 518 400 518 336 518 c 0,8,9
 273 518 273 518 230.5 488 c 128,-1,10
 188 458 188 458 158 401 c 1,11,-1
 155 401 l 1,12,-1
 222 740 l 1,13,-1
 201 740 l 1,14,-1
 54 0 l 1,15,-1
 75 0 l 1,16,-1
 137 312 l 2,17,18
 153 384 153 384 200 437 c 0,19,20
 254 499 254 499 333 499 c 0,21,22
 447 499 447 499 447 383 c 0,23,24
 447 361 447 361 440 320 c 0,25,26
 381 25 381 25 381 19 c 0,27,28
 381 0 381 0 404 0 c 2,29,-1
 482 0 l 1,0,-1
EndSplineSet
EndChar

StartChar: i
Encoding: 105 105 74
Width: 235
Flags: W
LayerCount: 2
Fore
SplineSet
200 673 m 0,0,1
 226 673 226 673 227 692 c 0,2,3
 228 696 228 696 228.5 699 c 128,-1,4
 229 702 229 702 229 706 c 0,5,6
 229 722 229 722 209 722 c 0,7,8
 184 722 184 722 182 703 c 0,9,10
 181 699 181 699 180.5 696 c 128,-1,11
 180 693 180 693 180 689 c 0,12,13
 180 673 180 673 200 673 c 0,0,1
159 0 m 1,14,-1
 163 19 l 1,15,-1
 78 19 l 1,16,-1
 176 506 l 1,17,-1
 155 506 l 1,18,19
 58 25 58 25 58 19 c 0,20,21
 58 0 58 0 81 0 c 2,22,-1
 159 0 l 1,14,-1
EndSplineSet
EndChar

StartChar: j
Encoding: 106 106 75
Width: 229
Flags: W
LayerCount: 2
Fore
SplineSet
0 -200 m 2,0,1
 21 -200 21 -200 29.5 -193.5 c 128,-1,2
 38 -187 38 -187 41 -167 c 2,3,-1
 175 506 l 1,4,-1
 154 506 l 1,5,-1
 17 -181 l 1,6,-1
 -68 -181 l 1,7,-1
 -72 -200 l 1,8,-1
 0 -200 l 2,0,1
199 673 m 0,9,10
 225 673 225 673 226 692 c 0,11,12
 227 696 227 696 227.5 699 c 128,-1,13
 228 702 228 702 228 706 c 0,14,15
 228 722 228 722 208 722 c 0,16,17
 183 722 183 722 181 703 c 0,18,19
 180 699 180 699 179.5 696 c 128,-1,20
 179 693 179 693 179 689 c 0,21,22
 179 673 179 673 199 673 c 0,9,10
EndSplineSet
EndChar

StartChar: k
Encoding: 107 107 76
Width: 479
Flags: W
LayerCount: 2
Fore
SplineSet
431 0 m 1,0,-1
 435 19 l 1,1,-1
 378 19 l 1,2,-1
 237 292 l 1,3,-1
 480 506 l 1,4,-1
 453 506 l 1,5,-1
 234 315 l 1,6,-1
 122 221 l 1,7,-1
 118 221 l 1,8,-1
 222 740 l 1,9,-1
 201 740 l 1,10,-1
 53 0 l 1,11,-1
 74 0 l 1,12,-1
 112 189 l 1,13,-1
 221 280 l 1,14,-1
 354 21 l 2,15,16
 360 10 360 10 366 5 c 128,-1,17
 372 0 372 0 383 0 c 2,18,-1
 431 0 l 1,0,-1
EndSplineSet
EndChar

StartChar: l
Encoding: 108 108 77
Width: 235
Flags: W
LayerCount: 2
Fore
SplineSet
159 0 m 1,0,-1
 163 19 l 1,1,-1
 78 19 l 1,2,-1
 222 740 l 1,3,-1
 201 740 l 1,4,5
 58 25 58 25 58 19 c 0,6,7
 58 0 58 0 81 0 c 2,8,-1
 159 0 l 1,0,-1
EndSplineSet
EndChar

StartChar: m
Encoding: 109 109 78
Width: 843
Flags: W
LayerCount: 2
Fore
SplineSet
776 0 m 1,0,-1
 780 19 l 1,1,-1
 695 19 l 1,2,-1
 755 321 l 2,3,4
 762 356 762 356 762 386 c 0,5,6
 762 449 762 449 729.5 483.5 c 128,-1,7
 697 518 697 518 636 518 c 0,8,9
 573 518 573 518 527.5 485 c 128,-1,10
 482 452 482 452 456 394 c 1,11,-1
 453 394 l 1,12,13
 452 447 452 447 420.5 482.5 c 128,-1,14
 389 518 389 518 327 518 c 0,15,16
 215 518 215 518 157 401 c 1,17,-1
 154 401 l 1,18,-1
 175 506 l 1,19,-1
 154 506 l 1,20,-1
 53 0 l 1,21,-1
 74 0 l 1,22,-1
 136 312 l 1,23,24
 158 396 158 396 199 437 c 0,25,26
 255 499 255 499 324 499 c 0,27,28
 432 499 432 499 432 383 c 0,29,30
 432 361 432 361 425 320 c 2,31,-1
 361 0 l 1,32,-1
 382 0 l 1,33,-1
 446 319 l 2,34,35
 465 398 465 398 504 437 c 1,36,37
 557 499 557 499 633 499 c 0,38,39
 740 499 740 499 741 383 c 0,40,41
 741 361 741 361 734 320 c 0,42,43
 675 25 675 25 675 19 c 0,44,45
 675 0 675 0 698 0 c 2,46,-1
 776 0 l 1,0,-1
EndSplineSet
EndChar

StartChar: n
Encoding: 110 110 79
Width: 548
Flags: W
LayerCount: 2
Fore
SplineSet
481 0 m 1,0,-1
 485 19 l 1,1,-1
 400 19 l 1,2,-1
 460 321 l 2,3,4
 467 356 467 356 467 386 c 0,5,6
 467 449 467 449 433 483.5 c 128,-1,7
 399 518 399 518 335 518 c 0,8,9
 272 518 272 518 229.5 488 c 128,-1,10
 187 458 187 458 157 401 c 1,11,-1
 154 401 l 1,12,-1
 175 506 l 1,13,-1
 154 506 l 1,14,-1
 53 0 l 1,15,-1
 74 0 l 1,16,-1
 136 312 l 2,17,18
 152 384 152 384 199 437 c 0,19,20
 253 499 253 499 332 499 c 0,21,22
 446 499 446 499 446 383 c 0,23,24
 446 361 446 361 439 320 c 0,25,26
 380 25 380 25 380 19 c 0,27,28
 380 0 380 0 403 0 c 2,29,-1
 481 0 l 1,0,-1
EndSplineSet
EndChar

StartChar: o
Encoding: 111 111 80
Width: 534
Flags: W
LayerCount: 2
Fore
SplineSet
225 -12 m 0,0,1
 287 -12 287 -12 334 16 c 128,-1,2
 381 44 381 44 412.5 92.5 c 128,-1,3
 444 141 444 141 459.5 204 c 128,-1,4
 475 267 475 267 475 337 c 0,5,6
 475 411 475 411 432 464.5 c 128,-1,7
 389 518 389 518 309 518 c 0,8,9
 190 518 190 518 123 414 c 0,10,11
 59 309 59 309 59 169 c 0,12,13
 59 93 59 93 102.5 40.5 c 128,-1,14
 146 -12 146 -12 225 -12 c 0,0,1
227 7 m 0,15,16
 154 7 154 7 115 55 c 0,17,18
 80 103 80 103 80 169 c 0,19,20
 80 210 80 210 85 241 c 2,21,-1
 93 281 l 2,22,23
 114 384 114 384 168 441.5 c 128,-1,24
 222 499 222 499 307 499 c 0,25,26
 380 499 380 499 419 451 c 0,27,28
 454 403 454 403 454 337 c 0,29,30
 454 297 454 297 449 265 c 2,31,-1
 441 225 l 2,32,33
 421 122 421 122 366.5 64.5 c 128,-1,34
 312 7 312 7 227 7 c 0,15,16
EndSplineSet
EndChar

StartChar: p
Encoding: 112 112 81
Width: 561
Flags: W
LayerCount: 2
Fore
SplineSet
35 -200 m 1,0,-1
 93 93 l 1,1,-1
 96 93 l 1,2,3
 110 45 110 45 149 16.5 c 128,-1,4
 188 -12 188 -12 252 -12 c 0,5,6
 312 -12 312 -12 358.5 15 c 128,-1,7
 405 42 405 42 437 90 c 0,8,9
 501 192 501 192 501 330 c 0,10,11
 501 410 501 410 458.5 464 c 128,-1,12
 416 518 416 518 338 518 c 0,13,14
 274 518 274 518 231.5 485 c 128,-1,15
 189 452 189 452 157 395 c 1,16,-1
 154 395 l 1,17,-1
 176 506 l 1,18,-1
 155 506 l 1,19,-1
 14 -200 l 1,20,-1
 35 -200 l 1,0,-1
252 7 m 0,21,22
 168 7 168 7 130 59 c 0,23,24
 104 95 104 95 104 134 c 0,25,26
 104 147 104 147 107 160 c 2,27,-1
 135 302 l 1,28,29
 164 410 164 410 228 459 c 0,30,31
 274 499 274 499 338 499 c 0,32,33
 407 499 407 499 446 449 c 0,34,35
 480 401 480 401 480 330 c 0,36,37
 480 288 480 288 474 259 c 2,38,-1
 467 224 l 2,39,40
 447 124 447 124 392.5 65.5 c 128,-1,41
 338 7 338 7 252 7 c 0,21,22
EndSplineSet
EndChar

StartChar: q
Encoding: 113 113 82
Width: 560
Flags: W
LayerCount: 2
Fore
SplineSet
366 -200 m 1,0,-1
 507 506 l 1,1,-1
 486 506 l 1,2,-1
 468 413 l 1,3,-1
 465 413 l 1,4,5
 451 461 451 461 412 489.5 c 128,-1,6
 373 518 373 518 309 518 c 0,7,8
 192 518 192 518 125 416 c 0,9,10
 60 314 60 314 60 176 c 0,11,12
 60 97 60 97 102.5 42.5 c 128,-1,13
 145 -12 145 -12 223 -12 c 0,14,15
 287 -12 287 -12 329.5 21 c 128,-1,16
 372 54 372 54 404 111 c 1,17,-1
 407 111 l 1,18,-1
 345 -200 l 1,19,-1
 366 -200 l 1,0,-1
223 7 m 0,20,21
 153 7 153 7 117 56.5 c 128,-1,22
 81 106 81 106 81 176 c 0,23,24
 81 218 81 218 87 247 c 2,25,-1
 94 282 l 2,26,27
 113 382 113 382 168 440.5 c 128,-1,28
 223 499 223 499 309 499 c 0,29,30
 393 499 393 499 431 448 c 0,31,32
 457 411 457 411 457 372 c 0,33,34
 457 359 457 359 454 346 c 2,35,-1
 426 204 l 1,36,37
 398 96 398 96 333 47 c 1,38,39
 288 7 288 7 223 7 c 0,20,21
EndSplineSet
EndChar

StartChar: r
Encoding: 114 114 83
Width: 338
Flags: W
LayerCount: 2
Fore
SplineSet
74 0 m 1,0,-1
 132 293 l 2,1,2
 149 375 149 375 199 431 c 0,3,4
 252 487 252 487 325 487 c 2,5,-1
 354 487 l 1,6,-1
 358 506 l 1,7,-1
 328 506 l 2,8,9
 258 506 258 506 220 474 c 0,10,11
 179 443 179 443 155 392 c 1,12,-1
 152 392 l 1,13,-1
 175 506 l 1,14,-1
 154 506 l 1,15,-1
 53 0 l 1,16,-1
 74 0 l 1,0,-1
EndSplineSet
EndChar

StartChar: s
Encoding: 115 115 84
Width: 462
Flags: W
LayerCount: 2
Fore
SplineSet
210 -12 m 0,0,1
 288 -12 288 -12 333 23.5 c 128,-1,2
 378 59 378 59 378 131 c 0,3,4
 378 219 378 219 259 260 c 1,5,-1
 217 276 l 2,6,7
 113 314 113 314 113 383 c 0,8,9
 113 444 113 444 151.5 471.5 c 128,-1,10
 190 499 190 499 253 499 c 0,11,12
 313 499 313 499 346.5 478.5 c 128,-1,13
 380 458 380 458 403 431 c 1,14,-1
 419 445 l 1,15,16
 361 518 361 518 252 518 c 0,17,18
 185 518 185 518 138 486 c 128,-1,19
 91 454 91 454 91 385 c 0,20,21
 91 298 91 298 209 257 c 2,22,-1
 251 241 l 2,23,24
 356 204 356 204 356 131 c 0,25,26
 356 119 356 119 354 98 c 0,27,28
 338 10 338 10 210 7 c 0,29,30
 98 7 98 7 41 93 c 1,31,-1
 23 81 l 1,32,33
 58 31 58 31 103.5 9.5 c 128,-1,34
 149 -12 149 -12 210 -12 c 0,0,1
EndSplineSet
EndChar

StartChar: t
Encoding: 116 116 85
Width: 302
Flags: W
LayerCount: 2
Fore
SplineSet
206 0 m 1,0,-1
 210 19 l 1,1,-1
 97 19 l 1,2,-1
 190 487 l 1,3,-1
 311 487 l 1,4,-1
 315 506 l 1,5,-1
 194 506 l 1,6,-1
 223 650 l 1,7,-1
 202 650 l 1,8,-1
 178 531 l 2,9,10
 176 517 176 517 170 511.5 c 128,-1,11
 164 506 164 506 150 506 c 2,12,-1
 78 506 l 1,13,-1
 74 487 l 1,14,-1
 169 487 l 1,15,16
 77 25 77 25 77 19 c 0,17,18
 77 0 77 0 100 0 c 2,19,-1
 206 0 l 1,0,-1
EndSplineSet
EndChar

StartChar: u
Encoding: 117 117 86
Width: 548
Flags: W
LayerCount: 2
Fore
SplineSet
206 -12 m 0,0,1
 269 -12 269 -12 312 18 c 128,-1,2
 355 48 355 48 384 105 c 1,3,-1
 387 105 l 1,4,5
 371 25 371 25 371 19 c 0,6,7
 371 0 371 0 394 0 c 2,8,-1
 472 0 l 1,9,-1
 476 19 l 1,10,-1
 391 19 l 1,11,-1
 488 506 l 1,12,-1
 467 506 l 1,13,-1
 405 194 l 2,14,15
 389 122 389 122 342 69 c 0,16,17
 288 7 288 7 209 7 c 0,18,19
 95 7 95 7 95 123 c 0,20,21
 95 145 95 145 102 186 c 2,22,-1
 166 506 l 1,23,-1
 145 506 l 1,24,-1
 81 185 l 2,25,26
 74 150 74 150 74 120 c 0,27,28
 74 57 74 57 108 22.5 c 128,-1,29
 142 -12 142 -12 206 -12 c 0,0,1
EndSplineSet
EndChar

StartChar: v
Encoding: 118 118 87
Width: 460
Flags: W
LayerCount: 2
Fore
SplineSet
189 0 m 1,0,-1
 477 506 l 1,1,-1
 454 506 l 1,2,-1
 181 24 l 1,3,-1
 178 24 l 1,4,-1
 93 506 l 1,5,-1
 73 506 l 1,6,-1
 163 0 l 1,7,-1
 189 0 l 1,0,-1
EndSplineSet
EndChar

StartChar: w
Encoding: 119 119 88
Width: 718
Flags: W
LayerCount: 2
Fore
SplineSet
476 0 m 1,0,-1
 732 506 l 1,1,-1
 710 506 l 1,2,-1
 469 27 l 1,3,-1
 467 27 l 1,4,-1
 416 506 l 1,5,-1
 394 506 l 1,6,-1
 149 27 l 1,7,-1
 146 27 l 1,8,-1
 98 506 l 1,9,-1
 78 506 l 1,10,-1
 130 0 l 1,11,-1
 156 0 l 1,12,-1
 398 472 l 1,13,-1
 401 472 l 1,14,-1
 450 0 l 1,15,-1
 476 0 l 1,0,-1
EndSplineSet
EndChar

StartChar: x
Encoding: 120 120 89
Width: 473
Flags: W
LayerCount: 2
Fore
SplineSet
381 0 m 1,0,-1
 249 253 l 1,1,-1
 473 506 l 1,2,-1
 446 506 l 1,3,-1
 240 271 l 1,4,-1
 237 271 l 1,5,-1
 110 506 l 1,6,-1
 88 506 l 1,7,-1
 221 257 l 1,8,-1
 -4 0 l 1,9,-1
 23 0 l 1,10,-1
 230 239 l 1,11,-1
 233 239 l 1,12,-1
 359 0 l 1,13,-1
 381 0 l 1,0,-1
EndSplineSet
EndChar

StartChar: y
Encoding: 121 121 90
Width: 460
Flags: W
LayerCount: 2
Fore
SplineSet
51 -200 m 2,0,1
 65 -200 65 -200 73 -194.5 c 128,-1,2
 81 -189 81 -189 89 -175 c 2,3,-1
 477 506 l 1,4,-1
 454 506 l 1,5,-1
 181 24 l 1,6,-1
 178 24 l 1,7,-1
 93 506 l 1,8,-1
 73 506 l 1,9,-1
 164 -3 l 1,10,-1
 64 -181 l 1,11,-1
 -20 -181 l 1,12,-1
 -24 -200 l 1,13,-1
 51 -200 l 2,0,1
EndSplineSet
EndChar

StartChar: z
Encoding: 122 122 91
Width: 430
Flags: W
LayerCount: 2
Fore
SplineSet
346 0 m 1,0,-1
 350 19 l 1,1,-1
 28 19 l 1,2,-1
 426 486 l 1,3,-1
 430 506 l 1,4,-1
 96 506 l 1,5,-1
 92 487 l 1,6,-1
 402 487 l 1,7,-1
 3 20 l 1,8,-1
 -1 0 l 1,9,-1
 346 0 l 1,0,-1
EndSplineSet
EndChar

StartChar: braceleft
Encoding: 123 123 92
Width: 316
Flags: W
LayerCount: 2
Fore
SplineSet
171 -138 m 1,0,-1
 175 -120 l 1,1,-1
 70 -120 l 1,2,-1
 134 201 l 2,3,4
 137 217 137 217 137 230 c 0,5,6
 137 303 137 303 57 303 c 2,7,-1
 55 303 l 1,8,-1
 59 319 l 1,9,10
 104 319 104 319 136 345 c 128,-1,11
 168 371 168 371 178 421 c 2,12,-1
 242 742 l 1,13,-1
 347 742 l 1,14,-1
 351 760 l 1,15,-1
 251 760 l 2,16,17
 226 760 226 760 221 734 c 2,18,-1
 158 421 l 2,19,20
 142 335 142 335 44 335 c 1,21,-1
 34 287 l 1,22,23
 72 287 72 287 94.5 274.5 c 128,-1,24
 117 262 117 262 117 228 c 0,25,26
 117 216 117 216 114 201 c 0,27,28
 50 -117 50 -117 50 -120 c 0,29,30
 50 -138 50 -138 71 -138 c 2,31,-1
 171 -138 l 1,0,-1
EndSplineSet
EndChar

StartChar: bar
Encoding: 124 124 93
Width: 231
Flags: W
LayerCount: 2
Fore
SplineSet
47 -138 m 1,0,-1
 227 760 l 1,1,-1
 207 760 l 1,2,-1
 27 -138 l 1,3,-1
 47 -138 l 1,0,-1
EndSplineSet
EndChar

StartChar: braceright
Encoding: 125 125 94
Width: 316
Flags: W
LayerCount: 2
Fore
SplineSet
88 -138 m 2,0,1
 114 -138 114 -138 118 -112 c 2,2,-1
 181 201 l 2,3,4
 198 287 198 287 295 287 c 1,5,-1
 305 335 l 1,6,7
 267 335 267 335 244.5 347.5 c 128,-1,8
 222 360 222 360 222 394 c 0,9,10
 222 406 222 406 225 421 c 0,11,12
 289 739 289 739 289 742 c 0,13,14
 289 760 289 760 268 760 c 2,15,-1
 168 760 l 1,16,-1
 164 742 l 1,17,-1
 269 742 l 1,18,-1
 205 421 l 2,19,20
 202 404 202 404 202 392 c 0,21,22
 202 319 202 319 284 319 c 1,23,-1
 280 303 l 1,24,25
 235 303 235 303 203 277 c 128,-1,26
 171 251 171 251 161 201 c 2,27,-1
 97 -120 l 1,28,-1
 -8 -120 l 1,29,-1
 -12 -138 l 1,30,-1
 88 -138 l 2,0,1
EndSplineSet
EndChar

StartChar: asciitilde
Encoding: 126 126 95
Width: 600
Flags: W
LayerCount: 2
Fore
SplineSet
425 256 m 0,0,1
 488 256 488 256 546 304 c 1,2,-1
 534 318 l 1,3,4
 506 295 506 295 482 285.5 c 128,-1,5
 458 276 458 276 429 276 c 0,6,7
 401 276 401 276 378 284.5 c 128,-1,8
 355 293 355 293 316 312 c 2,9,-1
 279 330 l 1,10,-1
 272 333 l 2,11,12
 233 352 233 352 195 352 c 0,13,14
 132 352 132 352 74 304 c 1,15,-1
 86 290 l 1,16,17
 115 313 115 313 138.5 322.5 c 128,-1,18
 162 332 162 332 191 332 c 0,19,20
 217 332 217 332 241 323.5 c 128,-1,21
 265 315 265 315 304 296 c 0,22,23
 380 256 380 256 425 256 c 0,0,1
EndSplineSet
EndChar

StartChar: exclamdown
Encoding: 161 161 97
Width: 247
Flags: W
LayerCount: 2
Fore
SplineSet
46 -192 m 1,0,-1
 102 91 l 1,1,-1
 145 330 l 1,2,-1
 133 330 l 1,3,-1
 80 91 l 1,4,-1
 24 -192 l 1,5,-1
 46 -192 l 1,0,-1
166 453 m 0,6,7
 198 453 198 453 198 492 c 0,8,9
 198 511 198 511 172 511 c 0,10,11
 157 511 157 511 151.5 505 c 128,-1,12
 146 499 146 499 143.5 488.5 c 128,-1,13
 141 478 141 478 141 472 c 0,14,15
 141 453 141 453 166 453 c 0,6,7
EndSplineSet
EndChar

StartChar: cent
Encoding: 162 162 98
Width: 488
Flags: W
LayerCount: 2
Fore
SplineSet
198 -114 m 1,0,-1
 218 -12 l 1,1,2
 281 -12 281 -12 329.5 18 c 128,-1,3
 378 48 378 48 422 114 c 1,4,-1
 405 123 l 1,5,6
 368 66 368 66 324.5 36.5 c 128,-1,7
 281 7 281 7 222 7 c 1,8,-1
 320 498 l 1,9,10
 408 487 408 487 432 398 c 1,11,-1
 451 403 l 1,12,13
 428 499 428 499 323 517 c 1,14,-1
 344 620 l 1,15,-1
 324 620 l 1,16,-1
 304 518 l 1,17,18
 187 518 187 518 124 422 c 128,-1,19
 61 326 61 326 61 186 c 0,20,21
 61 108 61 108 95 53.5 c 128,-1,22
 129 -1 129 -1 199 -11 c 1,23,-1
 178 -114 l 1,24,-1
 198 -114 l 1,0,-1
202 8 m 1,25,26
 138 17 138 17 109.5 66.5 c 128,-1,27
 81 116 81 116 81 186 c 0,28,29
 81 205 81 205 82.5 219 c 128,-1,30
 84 233 84 233 96 297 c 0,31,32
 114 390 114 390 168 444.5 c 128,-1,33
 222 499 222 499 300 499 c 1,34,-1
 202 8 l 1,25,26
EndSplineSet
EndChar

StartChar: sterling
Encoding: 163 163 99
Width: 579
Flags: W
LayerCount: 2
Fore
SplineSet
463 0 m 1,0,-1
 467 20 l 1,1,-1
 63 20 l 1,2,-1
 64 22 l 1,3,4
 131 54 131 54 169.5 116.5 c 128,-1,5
 208 179 208 179 208 260 c 0,6,7
 208 286 208 286 205 311 c 1,8,-1
 412 311 l 1,9,-1
 416 331 l 1,10,-1
 203 331 l 1,11,12
 189 419 189 419 189 497 c 0,13,14
 189 589 189 589 247 639.5 c 128,-1,15
 305 690 305 690 389 690 c 0,16,17
 450 690 450 690 492 664.5 c 128,-1,18
 534 639 534 639 557 582 c 1,19,-1
 577 592 l 1,20,21
 528 710 528 710 390 710 c 0,22,23
 299 710 299 710 233 654 c 0,24,25
 167 595 167 595 167 497 c 0,26,27
 167 419 167 419 181 331 c 1,28,-1
 90 331 l 1,29,-1
 86 311 l 1,30,-1
 183 311 l 1,31,32
 186 286 186 286 186 260 c 0,33,34
 186 98 186 98 38 25 c 1,35,-1
 33 0 l 1,36,-1
 463 0 l 1,0,-1
EndSplineSet
EndChar

StartChar: yen
Encoding: 165 165 100
Width: 566
Flags: W
LayerCount: 2
Fore
SplineSet
243 0 m 1,0,-1
 277 168 l 1,1,-1
 475 168 l 1,2,-1
 479 187 l 1,3,-1
 281 187 l 1,4,-1
 309 325 l 1,5,-1
 507 325 l 1,6,-1
 511 344 l 1,7,-1
 325 344 l 1,8,-1
 612 698 l 1,9,-1
 586 698 l 1,10,-1
 302 348 l 1,11,-1
 299 348 l 1,12,-1
 155 698 l 1,13,-1
 132 698 l 1,14,-1
 279 344 l 1,15,-1
 93 344 l 1,16,-1
 89 325 l 1,17,-1
 287 325 l 1,18,-1
 259 187 l 1,19,-1
 61 187 l 1,20,-1
 57 168 l 1,21,-1
 255 168 l 1,22,-1
 221 0 l 1,23,-1
 243 0 l 1,0,-1
EndSplineSet
EndChar

StartChar: brokenbar
Encoding: 166 166 101
Width: 231
Flags: W
LayerCount: 2
Fore
SplineSet
155 401 m 1,0,-1
 227 760 l 1,1,-1
 207 760 l 1,2,-1
 135 401 l 1,3,-1
 155 401 l 1,0,-1
47 -138 m 1,4,-1
 119 221 l 1,5,-1
 99 221 l 1,6,-1
 27 -138 l 1,7,-1
 47 -138 l 1,4,-1
EndSplineSet
EndChar

StartChar: section
Encoding: 167 167 102
Width: 564
Flags: W
LayerCount: 2
Fore
SplineSet
200 -154 m 0,0,1
 284 -154 284 -154 337 -113.5 c 128,-1,2
 390 -73 390 -73 390 3 c 0,3,4
 390 81 390 81 329 120 c 1,5,-1
 329 123 l 1,6,7
 399 144 399 144 438 182.5 c 128,-1,8
 477 221 477 221 477 283 c 0,9,10
 477 336 477 336 450.5 363.5 c 128,-1,11
 424 391 424 391 369 408 c 2,12,-1
 293 433 l 2,13,14
 247 447 247 447 222 474.5 c 128,-1,15
 197 502 197 502 197 553 c 0,16,17
 197 621 197 621 242 656 c 128,-1,18
 287 691 287 691 365 691 c 0,19,20
 449 691 449 691 498 643 c 1,21,-1
 512 657 l 1,22,23
 459 710 459 710 366 710 c 0,24,25
 282 710 282 710 229 670 c 128,-1,26
 176 630 176 630 176 553 c 0,27,28
 176 475 176 475 237 436 c 1,29,-1
 237 433 l 1,30,31
 167 412 167 412 128 373.5 c 128,-1,32
 89 335 89 335 89 273 c 0,33,34
 89 220 89 220 115.5 192.5 c 128,-1,35
 142 165 142 165 197 148 c 2,36,-1
 273 123 l 2,37,38
 319 109 319 109 344 81.5 c 128,-1,39
 369 54 369 54 369 3 c 0,40,41
 369 -65 369 -65 324 -100 c 128,-1,42
 279 -135 279 -135 201 -135 c 0,43,44
 117 -135 117 -135 68 -87 c 1,45,-1
 54 -101 l 1,46,47
 107 -154 107 -154 200 -154 c 0,0,1
310 130 m 1,48,49
 303 133 303 133 205 165 c 0,50,51
 152 181 152 181 131 205 c 128,-1,52
 110 229 110 229 110 273 c 0,53,54
 110 332 110 332 149 368 c 128,-1,55
 188 404 188 404 256 426 c 1,56,57
 263 423 263 423 361 391 c 0,58,59
 414 375 414 375 435 351 c 128,-1,60
 456 327 456 327 456 283 c 0,61,62
 456 224 456 224 417 188.5 c 128,-1,63
 378 153 378 153 310 130 c 1,48,49
EndSplineSet
EndChar

StartChar: dieresis
Encoding: 168 168 103
Width: 600
Flags: W
LayerCount: 2
Fore
SplineSet
231 642 m 0,0,1
 257 642 257 642 257 674 c 0,2,3
 257 691 257 691 237 691 c 0,4,5
 225 691 225 691 220.5 685.5 c 128,-1,6
 216 680 216 680 213.5 672.5 c 128,-1,7
 211 665 211 665 211 659 c 0,8,9
 211 642 211 642 231 642 c 0,0,1
413 642 m 0,10,11
 439 642 439 642 439 674 c 0,12,13
 439 691 439 691 419 691 c 0,14,15
 407 691 407 691 402.5 685.5 c 128,-1,16
 398 680 398 680 395.5 672.5 c 128,-1,17
 393 665 393 665 393 659 c 0,18,19
 393 642 393 642 413 642 c 0,10,11
EndSplineSet
EndChar

StartChar: copyright
Encoding: 169 169 104
Width: 701
Flags: W
LayerCount: 2
Fore
SplineSet
317 -12 m 0,0,1
 475 -12 475 -12 584 106 c 0,2,3
 636 163 636 163 665 241 c 128,-1,4
 694 319 694 319 694 415 c 0,5,6
 694 552 694 552 617 631 c 128,-1,7
 540 710 540 710 409 710 c 0,8,9
 252 710 252 710 142 592 c 0,10,11
 91 535 91 535 61.5 457 c 128,-1,12
 32 379 32 379 32 283 c 0,13,14
 32 147 32 147 110 68 c 0,15,16
 187 -12 187 -12 317 -12 c 0,0,1
317 6 m 0,17,18
 190 6 190 6 121 84 c 128,-1,19
 52 162 52 162 52 283 c 0,20,21
 52 328 52 328 68 403 c 0,22,23
 95 525 95 525 184 607 c 0,24,25
 278 692 278 692 409 692 c 0,26,27
 534 692 534 692 604 614.5 c 128,-1,28
 674 537 674 537 674 415 c 0,29,30
 674 396 674 396 671.5 370 c 128,-1,31
 669 344 669 344 658 295 c 0,32,33
 633 173 633 173 543 92 c 0,34,35
 448 6 448 6 317 6 c 0,17,18
338 149 m 0,36,37
 383 149 383 149 417.5 172.5 c 128,-1,38
 452 196 452 196 471 230 c 1,39,-1
 456 238 l 1,40,41
 416 167 416 167 339 167 c 0,42,43
 231 167 231 167 226 301 c 0,44,45
 226 325 226 325 234 369 c 0,46,47
 249 447 249 447 294 486.5 c 128,-1,48
 339 526 339 526 396 526 c 0,49,50
 470 526 470 526 496 458 c 1,51,-1
 513 464 l 1,52,53
 501 497 501 497 472.5 520 c 128,-1,54
 444 543 444 543 397 543 c 0,55,56
 313 543 313 543 259.5 476 c 128,-1,57
 206 409 206 409 206 301 c 0,58,59
 206 226 206 226 243.5 187.5 c 128,-1,60
 281 149 281 149 338 149 c 0,36,37
EndSplineSet
EndChar

StartChar: ordfeminine
Encoding: 170 170 105
Width: 354
Flags: W
LayerCount: 2
Fore
SplineSet
170 367 m 0,0,1
 255 367 255 367 292 422 c 1,2,-1
 294 422 l 1,3,-1
 287 386 l 2,4,5
 287 374 287 374 302 374 c 2,6,-1
 350 374 l 1,7,-1
 354 391 l 1,8,-1
 306 391 l 1,9,-1
 348 605 l 2,10,11
 350 615 350 615 350 625 c 0,12,13
 350 710 350 710 252 710 c 0,14,15
 165 710 165 710 124 643 c 1,16,-1
 139 635 l 1,17,18
 159 667 159 667 186.5 680 c 128,-1,19
 214 693 214 693 249 693 c 0,20,21
 332 693 332 693 332 625 c 0,22,23
 332 615 332 615 330 604 c 2,24,-1
 319 548 l 1,25,-1
 222 548 l 2,26,27
 146 548 146 548 108 517 c 0,28,29
 76 487 76 487 76 443 c 0,30,31
 76 408 76 408 100 387.5 c 128,-1,32
 124 367 124 367 170 367 c 0,0,1
170 384 m 0,33,34
 97 384 97 384 97 443 c 0,35,36
 97 452 97 452 101 468 c 0,37,38
 112 531 112 531 220 531 c 2,39,-1
 316 531 l 1,40,-1
 304 473 l 2,41,42
 293 430 293 430 255 407 c 128,-1,43
 217 384 217 384 170 384 c 0,33,34
EndSplineSet
EndChar

StartChar: guillemotleft
Encoding: 171 171 106
Width: 463
Flags: W
LayerCount: 2
Fore
SplineSet
204 106 m 1,0,-1
 216 118 l 1,1,-1
 67 291 l 1,2,-1
 286 465 l 1,3,-1
 280 482 l 1,4,-1
 46 304 l 1,5,-1
 42 284 l 1,6,-1
 204 106 l 1,0,-1
381 106 m 1,7,-1
 393 118 l 1,8,-1
 244 291 l 1,9,-1
 463 465 l 1,10,-1
 457 482 l 1,11,-1
 223 304 l 1,12,-1
 219 284 l 1,13,-1
 381 106 l 1,7,-1
EndSplineSet
EndChar

StartChar: logicalnot
Encoding: 172 172 107
Width: 601
Flags: W
LayerCount: 2
Fore
SplineSet
489 104 m 1,0,-1
 531 315 l 1,1,-1
 71 315 l 1,2,-1
 67 296 l 1,3,-1
 506 296 l 1,4,-1
 468 104 l 1,5,-1
 489 104 l 1,0,-1
EndSplineSet
EndChar

StartChar: u00AD
Encoding: 173 173 108
Width: 388
Flags: W
LayerCount: 2
Fore
SplineSet
317 295 m 1,0,-1
 321 315 l 1,1,-1
 92 315 l 1,2,-1
 88 295 l 1,3,-1
 317 295 l 1,0,-1
EndSplineSet
EndChar

StartChar: registered
Encoding: 174 174 109
Width: 466
Flags: W
LayerCount: 2
Fore
SplineSet
251 298 m 0,0,1
 315 298 315 298 359.5 322 c 128,-1,2
 404 346 404 346 432 383 c 128,-1,3
 460 420 460 420 472.5 463 c 128,-1,4
 485 506 485 506 485 544 c 0,5,6
 485 619 485 619 438 664.5 c 128,-1,7
 391 710 391 710 313 710 c 0,8,9
 249 710 249 710 204.5 686 c 128,-1,10
 160 662 160 662 132 625 c 128,-1,11
 104 588 104 588 91.5 545 c 128,-1,12
 79 502 79 502 79 464 c 0,13,14
 79 389 79 389 126 343.5 c 128,-1,15
 173 298 173 298 251 298 c 0,0,1
254 314 m 0,16,17
 182 314 182 314 139.5 355.5 c 128,-1,18
 97 397 97 397 97 464 c 0,19,20
 97 478 97 478 105 524 c 0,21,22
 120 599 120 599 175 646 c 0,23,24
 228 694 228 694 310 694 c 0,25,26
 382 694 382 694 424.5 652.5 c 128,-1,27
 467 611 467 611 467 544 c 0,28,29
 467 525 467 525 463 504 c 2,30,-1
 459 484 l 2,31,32
 443 409 443 409 390 363 c 0,33,34
 334 314 334 314 254 314 c 0,16,17
347 397 m 1,35,-1
 311 489 l 1,36,37
 336 490 336 490 354 508 c 128,-1,38
 372 526 372 526 372 562 c 0,39,40
 372 609 372 609 318 609 c 2,41,-1
 239 609 l 1,42,-1
 197 397 l 1,43,-1
 213 397 l 1,44,-1
 231 488 l 1,45,-1
 295 488 l 1,46,-1
 330 397 l 1,47,-1
 347 397 l 1,35,-1
295 503 m 2,48,-1
 234 503 l 1,49,-1
 252 594 l 1,50,-1
 314 594 l 2,51,52
 355 594 355 594 355 562 c 0,53,54
 355 555 355 555 352 542 c 0,55,56
 347 519 347 519 333.5 511 c 128,-1,57
 320 503 320 503 295 503 c 2,48,-1
EndSplineSet
EndChar

StartChar: macron
Encoding: 175 175 110
Width: 600
Flags: W
LayerCount: 2
Fore
SplineSet
451 658 m 1,0,-1
 454 676 l 1,1,-1
 196 676 l 1,2,-1
 193 658 l 1,3,-1
 451 658 l 1,0,-1
EndSplineSet
EndChar

StartChar: degree
Encoding: 176 176 111
Width: 466
Flags: W
LayerCount: 2
Fore
SplineSet
271 374 m 0,0,1
 345 374 345 374 397.5 426 c 128,-1,2
 450 478 450 478 450 560 c 0,3,4
 450 626 450 626 412 668 c 128,-1,5
 374 710 374 710 309 710 c 0,6,7
 233 710 233 710 181.5 657 c 128,-1,8
 130 604 130 604 130 524 c 0,9,10
 130 458 130 458 168.5 416 c 128,-1,11
 207 374 207 374 271 374 c 0,0,1
273 393 m 0,12,13
 213 393 213 393 182 430.5 c 128,-1,14
 151 468 151 468 151 525 c 0,15,16
 151 597 151 597 196 644 c 128,-1,17
 241 691 241 691 307 691 c 0,18,19
 367 691 367 691 398 653.5 c 128,-1,20
 429 616 429 616 429 559 c 0,21,22
 429 487 429 487 384 440 c 128,-1,23
 339 393 339 393 273 393 c 0,12,13
EndSplineSet
EndChar

StartChar: plusminus
Encoding: 177 177 112
Width: 600
Flags: W
LayerCount: 2
Fore
SplineSet
283 115 m 1,0,-1
 330 349 l 1,1,-1
 558 349 l 1,2,-1
 561 368 l 1,3,-1
 333 368 l 1,4,-1
 380 602 l 1,5,-1
 359 602 l 1,6,-1
 312 368 l 1,7,-1
 84 368 l 1,8,-1
 81 349 l 1,9,-1
 309 349 l 1,10,-1
 262 115 l 1,11,-1
 283 115 l 1,0,-1
487 0 m 1,12,-1
 491 19 l 1,13,-1
 15 19 l 1,14,-1
 11 0 l 1,15,-1
 487 0 l 1,12,-1
EndSplineSet
EndChar

StartChar: u00B2
Encoding: 178 178 113
Width: 338
Flags: W
LayerCount: 2
Fore
SplineSet
310 329 m 1,0,-1
 314 346 l 1,1,-1
 80 346 l 1,2,-1
 232 452 l 2,3,4
 294 494 294 494 323.5 529.5 c 128,-1,5
 353 565 353 565 353 608 c 0,6,7
 353 648 353 648 325 676 c 128,-1,8
 297 704 297 704 246 704 c 0,9,10
 148 704 148 704 107 615 c 1,11,-1
 124 609 l 1,12,13
 157 687 157 687 243 687 c 0,14,15
 288 687 288 687 310.5 665 c 128,-1,16
 333 643 333 643 333 608 c 2,17,-1
 333 599 l 1,18,-1
 330 583 l 2,19,20
 320 531 320 531 220 463 c 2,21,-1
 58 349 l 1,22,-1
 54 329 l 1,23,-1
 310 329 l 1,0,-1
EndSplineSet
EndChar

StartChar: u00B3
Encoding: 179 179 114
Width: 345
Flags: W
LayerCount: 2
Fore
SplineSet
192 323 m 0,0,1
 255 323 255 323 292 355.5 c 128,-1,2
 329 388 329 388 329 445 c 0,3,4
 329 510 329 510 266 520 c 1,5,-1
 266 522 l 1,6,7
 357 539 357 539 357 617 c 0,8,9
 357 657 357 657 331 680.5 c 128,-1,10
 305 704 305 704 254 704 c 0,11,12
 170 704 170 704 130 651 c 1,13,-1
 143 641 l 1,14,15
 163 663 163 663 187.5 675 c 128,-1,16
 212 687 212 687 252 687 c 0,17,18
 337 687 337 687 337 617 c 0,19,20
 337 606 337 606 336 601 c 2,21,-1
 335 598 l 1,22,23
 323 529 323 529 218 529 c 2,24,-1
 172 529 l 1,25,-1
 169 512 l 1,26,-1
 222 512 l 2,27,28
 271 512 271 512 290.5 494.5 c 128,-1,29
 310 477 310 477 310 444 c 0,30,31
 310 432 310 432 307 420 c 0,32,33
 290 340 290 340 193 340 c 0,34,35
 148 340 148 340 124.5 353.5 c 128,-1,36
 101 367 101 367 88 390 c 1,37,-1
 74 380 l 1,38,39
 103 323 103 323 192 323 c 0,0,1
EndSplineSet
EndChar

StartChar: acute
Encoding: 180 180 115
Width: 600
Flags: W
LayerCount: 2
Fore
SplineSet
288 587 m 1,0,-1
 435 738 l 1,1,-1
 418 751 l 1,2,-1
 275 598 l 1,3,-1
 288 587 l 1,0,-1
EndSplineSet
EndChar

StartChar: mu
Encoding: 181 181 116
Width: 555
Flags: W
LayerCount: 2
Fore
SplineSet
36 -200 m 1,0,-1
 68 -44 l 1,1,-1
 87 79 l 1,2,-1
 89 79 l 1,3,4
 111 -12 111 -12 217 -12 c 0,5,6
 282 -12 282 -12 323.5 19 c 128,-1,7
 365 50 365 50 395 108 c 1,8,-1
 398 108 l 1,9,-1
 387 51 l 2,10,11
 382 29 382 29 382 21 c 0,12,13
 382 8 382 8 388.5 4 c 128,-1,14
 395 0 395 0 406 0 c 2,15,-1
 482 0 l 1,16,-1
 486 19 l 1,17,-1
 401 19 l 1,18,-1
 498 506 l 1,19,-1
 477 506 l 1,20,-1
 415 194 l 2,21,22
 399 125 399 125 354 69 c 0,23,24
 303 7 303 7 220 7 c 0,25,26
 106 7 106 7 106 123 c 0,27,28
 106 145 106 145 113 186 c 2,29,-1
 177 506 l 1,30,-1
 156 506 l 1,31,-1
 15 -200 l 1,32,-1
 36 -200 l 1,0,-1
EndSplineSet
EndChar

StartChar: paragraph
Encoding: 182 182 117
Width: 590
Flags: W
LayerCount: 2
Fore
SplineSet
343 -149 m 1,0,-1
 509 680 l 1,1,-1
 578 680 l 1,2,-1
 582 698 l 1,3,-1
 349 698 l 2,4,5
 241 698 241 698 170 641 c 128,-1,6
 99 584 99 584 99 486 c 0,7,8
 99 413 99 413 146 371.5 c 128,-1,9
 193 330 193 330 265 330 c 1,10,-1
 169 -149 l 1,11,-1
 190 -149 l 1,12,-1
 356 680 l 1,13,-1
 488 680 l 1,14,-1
 322 -149 l 1,15,-1
 343 -149 l 1,0,-1
EndSplineSet
EndChar

StartChar: periodcentered
Encoding: 183 183 118
Width: 298
Flags: W
LayerCount: 2
Fore
SplineSet
157 277 m 0,0,1
 172 277 172 277 177.5 283 c 128,-1,2
 183 289 183 289 185.5 299.5 c 128,-1,3
 188 310 188 310 188 316 c 0,4,5
 188 335 188 335 163 335 c 0,6,7
 131 335 131 335 131 296 c 0,8,9
 131 277 131 277 157 277 c 0,0,1
EndSplineSet
EndChar

StartChar: cedilla
Encoding: 184 184 119
Width: 600
Flags: W
LayerCount: 2
Fore
SplineSet
273 -202 m 0,0,1
 316 -202 316 -202 341.5 -179.5 c 128,-1,2
 367 -157 367 -157 367 -125 c 0,3,4
 367 -75 367 -75 310 -72 c 0,5,6
 291 -72 291 -72 281 -75 c 1,7,-1
 279 -73 l 1,8,-1
 313 3 l 1,9,-1
 295 3 l 1,10,-1
 257 -84 l 1,11,-1
 294 -86 l 2,12,13
 323 -88 323 -88 334.5 -98.5 c 128,-1,14
 346 -109 346 -109 346 -126 c 0,15,16
 346 -178 346 -178 273 -184 c 0,17,18
 233 -184 233 -184 212 -157 c 1,19,-1
 198 -170 l 1,20,21
 206 -183 206 -183 225.5 -192.5 c 128,-1,22
 245 -202 245 -202 273 -202 c 0,0,1
EndSplineSet
EndChar

StartChar: u00B9
Encoding: 185 185 120
Width: 304
Flags: W
LayerCount: 2
Fore
SplineSet
205 329 m 1,0,-1
 186 329 l 1,1,-1
 254 680 l 1,2,-1
 166 639 l 1,3,-1
 170 659 l 1,4,-1
 254 698 l 1,5,-1
 277 698 l 1,6,-1
 205 329 l 1,0,-1
EndSplineSet
EndChar

StartChar: ordmasculine
Encoding: 186 186 121
Width: 364
Flags: W
LayerCount: 2
Fore
SplineSet
209 367 m 0,0,1
 289 367 289 367 336 435 c 0,2,3
 380 504 380 504 380 583 c 0,4,5
 380 641 380 641 349.5 675.5 c 128,-1,6
 319 710 319 710 267 710 c 0,7,8
 188 710 188 710 140 643 c 1,9,10
 96 574 96 574 96 494 c 0,11,12
 96 436 96 436 127 401.5 c 128,-1,13
 158 367 158 367 209 367 c 0,0,1
210 384 m 0,14,15
 160 384 160 384 137.5 415.5 c 128,-1,16
 115 447 115 447 115 494 c 0,17,18
 115 511 115 511 119 528 c 128,-1,19
 123 545 123 545 126 562 c 0,20,21
 137 620 137 620 173 656.5 c 128,-1,22
 209 693 209 693 266 693 c 0,23,24
 316 693 316 693 338.5 661.5 c 128,-1,25
 361 630 361 630 361 583 c 0,26,27
 361 567 361 567 357.5 550 c 128,-1,28
 354 533 354 533 350 515 c 0,29,30
 339 457 339 457 303 420.5 c 128,-1,31
 267 384 267 384 210 384 c 0,14,15
EndSplineSet
EndChar

StartChar: guillemotright
Encoding: 187 187 122
Width: 463
Flags: W
LayerCount: 2
Fore
SplineSet
198 106 m 1,0,-1
 432 284 l 1,1,-1
 436 304 l 1,2,-1
 274 482 l 1,3,-1
 262 470 l 1,4,-1
 411 297 l 1,5,-1
 192 123 l 1,6,-1
 198 106 l 1,0,-1
21 106 m 1,7,-1
 255 284 l 1,8,-1
 259 304 l 1,9,-1
 97 482 l 1,10,-1
 85 470 l 1,11,-1
 234 297 l 1,12,-1
 15 123 l 1,13,-1
 21 106 l 1,7,-1
EndSplineSet
EndChar

StartChar: onequarter
Encoding: 188 188 123
Width: 793
Flags: W
LayerCount: 2
Fore
SplineSet
133 0 m 1,0,-1
 739 698 l 1,1,-1
 716 698 l 1,2,-1
 111 0 l 1,3,-1
 133 0 l 1,0,-1
660 0 m 1,4,-1
 678 89 l 1,5,-1
 744 89 l 1,6,-1
 748 106 l 1,7,-1
 682 106 l 1,8,-1
 734 369 l 1,9,-1
 706 369 l 1,10,-1
 450 108 l 1,11,-1
 446 89 l 1,12,-1
 659 89 l 1,13,-1
 641 0 l 1,14,-1
 660 0 l 1,4,-1
663 106 m 1,15,-1
 471 106 l 1,16,-1
 708 349 l 1,17,-1
 711 349 l 1,18,-1
 663 106 l 1,15,-1
205 329 m 1,19,-1
 186 329 l 1,20,-1
 254 680 l 1,21,-1
 166 639 l 1,22,-1
 170 659 l 1,23,-1
 254 698 l 1,24,-1
 277 698 l 1,25,-1
 205 329 l 1,19,-1
EndSplineSet
EndChar

StartChar: onehalf
Encoding: 189 189 124
Width: 816
Flags: W
LayerCount: 2
Fore
SplineSet
133 0 m 1,0,-1
 739 698 l 1,1,-1
 716 698 l 1,2,-1
 111 0 l 1,3,-1
 133 0 l 1,0,-1
722 0 m 1,4,-1
 726 17 l 1,5,-1
 492 17 l 1,6,-1
 644 123 l 2,7,8
 706 165 706 165 735.5 200.5 c 128,-1,9
 765 236 765 236 765 279 c 0,10,11
 765 319 765 319 737 347 c 128,-1,12
 709 375 709 375 658 375 c 0,13,14
 560 375 560 375 519 286 c 1,15,-1
 536 280 l 1,16,17
 569 358 569 358 655 358 c 0,18,19
 700 358 700 358 722.5 336 c 128,-1,20
 745 314 745 314 745 279 c 2,21,-1
 745 270 l 1,22,-1
 742 254 l 2,23,24
 732 202 732 202 632 134 c 2,25,-1
 470 20 l 1,26,-1
 466 0 l 1,27,-1
 722 0 l 1,4,-1
205 329 m 1,28,-1
 186 329 l 1,29,-1
 254 680 l 1,30,-1
 166 639 l 1,31,-1
 170 659 l 1,32,-1
 254 698 l 1,33,-1
 277 698 l 1,34,-1
 205 329 l 1,28,-1
EndSplineSet
EndChar

StartChar: threequarters
Encoding: 190 190 125
Width: 809
Flags: W
LayerCount: 2
Fore
SplineSet
192 323 m 0,0,1
 255 323 255 323 292 355.5 c 128,-1,2
 329 388 329 388 329 445 c 0,3,4
 329 510 329 510 266 520 c 1,5,-1
 266 522 l 1,6,7
 357 539 357 539 357 617 c 0,8,9
 357 657 357 657 331 680.5 c 128,-1,10
 305 704 305 704 254 704 c 0,11,12
 170 704 170 704 130 651 c 1,13,-1
 143 641 l 1,14,15
 163 663 163 663 187.5 675 c 128,-1,16
 212 687 212 687 252 687 c 0,17,18
 337 687 337 687 337 617 c 0,19,20
 337 606 337 606 336 601 c 2,21,-1
 335 598 l 1,22,23
 323 529 323 529 218 529 c 2,24,-1
 172 529 l 1,25,-1
 169 512 l 1,26,-1
 222 512 l 2,27,28
 271 512 271 512 290.5 494.5 c 128,-1,29
 310 477 310 477 310 444 c 0,30,31
 310 432 310 432 307 420 c 0,32,33
 290 340 290 340 193 340 c 0,34,35
 148 340 148 340 124.5 353.5 c 128,-1,36
 101 367 101 367 88 390 c 1,37,-1
 74 380 l 1,38,39
 103 323 103 323 192 323 c 0,0,1
149 0 m 1,40,-1
 755 698 l 1,41,-1
 732 698 l 1,42,-1
 127 0 l 1,43,-1
 149 0 l 1,40,-1
676 0 m 1,44,-1
 694 89 l 1,45,-1
 760 89 l 1,46,-1
 764 106 l 1,47,-1
 698 106 l 1,48,-1
 750 369 l 1,49,-1
 722 369 l 1,50,-1
 466 108 l 1,51,-1
 462 89 l 1,52,-1
 675 89 l 1,53,-1
 657 0 l 1,54,-1
 676 0 l 1,44,-1
679 106 m 1,55,-1
 487 106 l 1,56,-1
 724 349 l 1,57,-1
 727 349 l 1,58,-1
 679 106 l 1,55,-1
EndSplineSet
EndChar

StartChar: questiondown
Encoding: 191 191 126
Width: 453
Flags: W
LayerCount: 2
Fore
SplineSet
160 -204 m 0,0,1
 312 -204 312 -204 369 -54 c 1,2,-1
 350 -48 l 1,3,4
 324 -112 324 -112 280 -148.5 c 128,-1,5
 236 -185 236 -185 161 -185 c 0,6,7
 89 -185 89 -185 51 -148.5 c 128,-1,8
 13 -112 13 -112 13 -48 c 0,9,10
 13 -28 13 -28 18 -2 c 0,11,12
 36 142 36 142 248 157 c 1,13,-1
 281 330 l 1,14,-1
 259 330 l 1,15,-1
 229 175 l 1,16,17
 107 163 107 163 49 104.5 c 128,-1,18
 -9 46 -9 46 -9 -48 c 0,19,20
 -9 -119 -9 -119 36.5 -161.5 c 128,-1,21
 82 -204 82 -204 160 -204 c 0,0,1
297 453 m 0,22,23
 329 453 329 453 329 492 c 0,24,25
 329 511 329 511 303 511 c 0,26,27
 288 511 288 511 282.5 505 c 128,-1,28
 277 499 277 499 274.5 488.5 c 128,-1,29
 272 478 272 478 272 472 c 0,30,31
 272 453 272 453 297 453 c 0,22,23
EndSplineSet
EndChar

StartChar: Agrave
Encoding: 192 192 127
Width: 594
Flags: W
LayerCount: 2
Fore
SplineSet
519 0 m 1,0,-1
 384 698 l 1,1,-1
 354 698 l 1,2,-1
 -12 0 l 1,3,-1
 12 0 l 1,4,-1
 134 234 l 1,5,-1
 452 234 l 1,6,-1
 497 0 l 1,7,-1
 519 0 l 1,0,-1
448 253 m 1,8,-1
 144 253 l 1,9,-1
 364 673 l 1,10,-1
 367 673 l 1,11,-1
 448 253 l 1,8,-1
387 768 m 1,12,-1
 403 777 l 1,13,-1
 322 932 l 1,14,-1
 303 921 l 1,15,-1
 387 768 l 1,12,-1
EndSplineSet
EndChar

StartChar: Aacute
Encoding: 193 193 128
Width: 594
Flags: W
LayerCount: 2
Fore
SplineSet
519 0 m 1,0,-1
 384 698 l 1,1,-1
 354 698 l 1,2,-1
 -12 0 l 1,3,-1
 12 0 l 1,4,-1
 134 234 l 1,5,-1
 452 234 l 1,6,-1
 497 0 l 1,7,-1
 519 0 l 1,0,-1
448 253 m 1,8,-1
 144 253 l 1,9,-1
 364 673 l 1,10,-1
 367 673 l 1,11,-1
 448 253 l 1,8,-1
376 767 m 1,12,-1
 523 918 l 1,13,-1
 506 931 l 1,14,-1
 363 778 l 1,15,-1
 376 767 l 1,12,-1
EndSplineSet
EndChar

StartChar: Acircumflex
Encoding: 194 194 129
Width: 594
Flags: W
LayerCount: 2
Fore
SplineSet
519 0 m 1,0,-1
 384 698 l 1,1,-1
 354 698 l 1,2,-1
 -12 0 l 1,3,-1
 12 0 l 1,4,-1
 134 234 l 1,5,-1
 452 234 l 1,6,-1
 497 0 l 1,7,-1
 519 0 l 1,0,-1
448 253 m 1,8,-1
 144 253 l 1,9,-1
 364 673 l 1,10,-1
 367 673 l 1,11,-1
 448 253 l 1,8,-1
516 779 m 1,12,-1
 531 789 l 1,13,-1
 425 923 l 1,14,-1
 401 923 l 1,15,-1
 251 791 l 1,16,-1
 264 779 l 1,17,-1
 412 906 l 1,18,-1
 516 779 l 1,12,-1
EndSplineSet
EndChar

StartChar: Atilde
Encoding: 195 195 130
Width: 594
Flags: W
LayerCount: 2
Fore
SplineSet
519 0 m 1,0,-1
 384 698 l 1,1,-1
 354 698 l 1,2,-1
 -12 0 l 1,3,-1
 12 0 l 1,4,-1
 134 234 l 1,5,-1
 452 234 l 1,6,-1
 497 0 l 1,7,-1
 519 0 l 1,0,-1
448 253 m 1,8,-1
 144 253 l 1,9,-1
 364 673 l 1,10,-1
 367 673 l 1,11,-1
 448 253 l 1,8,-1
452 808 m 0,12,13
 494 808 494 808 537 847 c 1,14,-1
 526 859 l 1,15,16
 492 826 492 826 457 826 c 0,17,18
 440 826 440 826 425.5 832.5 c 128,-1,19
 411 839 411 839 393 852 c 0,20,21
 371 868 371 868 356 875 c 128,-1,22
 341 882 341 882 321 882 c 0,23,24
 279 882 279 882 236 843 c 1,25,-1
 247 831 l 1,26,27
 285 864 285 864 316 864 c 0,28,29
 333 864 333 864 347.5 858 c 128,-1,30
 362 852 362 852 380 839 c 0,31,32
 403 823 403 823 417.5 815.5 c 128,-1,33
 432 808 432 808 452 808 c 0,12,13
EndSplineSet
EndChar

StartChar: Adieresis
Encoding: 196 196 131
Width: 594
Flags: W
LayerCount: 2
Fore
SplineSet
519 0 m 1,0,-1
 384 698 l 1,1,-1
 354 698 l 1,2,-1
 -12 0 l 1,3,-1
 12 0 l 1,4,-1
 134 234 l 1,5,-1
 452 234 l 1,6,-1
 497 0 l 1,7,-1
 519 0 l 1,0,-1
448 253 m 1,8,-1
 144 253 l 1,9,-1
 364 673 l 1,10,-1
 367 673 l 1,11,-1
 448 253 l 1,8,-1
304 819 m 0,12,13
 330 819 330 819 330 851 c 0,14,15
 330 868 330 868 310 868 c 0,16,17
 298 868 298 868 293.5 862.5 c 128,-1,18
 289 857 289 857 286.5 849.5 c 128,-1,19
 284 842 284 842 284 836 c 0,20,21
 284 819 284 819 304 819 c 0,12,13
486 819 m 0,22,23
 512 819 512 819 512 851 c 0,24,25
 512 868 512 868 492 868 c 0,26,27
 480 868 480 868 475.5 862.5 c 128,-1,28
 471 857 471 857 468.5 849.5 c 128,-1,29
 466 842 466 842 466 836 c 0,30,31
 466 819 466 819 486 819 c 0,22,23
EndSplineSet
EndChar

StartChar: Aring
Encoding: 197 197 132
Width: 594
Flags: W
LayerCount: 2
Fore
SplineSet
519 0 m 1,0,-1
 384 698 l 1,1,-1
 354 698 l 1,2,-1
 -12 0 l 1,3,-1
 12 0 l 1,4,-1
 134 234 l 1,5,-1
 452 234 l 1,6,-1
 497 0 l 1,7,-1
 519 0 l 1,0,-1
448 253 m 1,8,-1
 144 253 l 1,9,-1
 364 673 l 1,10,-1
 367 673 l 1,11,-1
 448 253 l 1,8,-1
388 769 m 0,12,13
 436 769 436 769 465 799 c 128,-1,14
 494 829 494 829 494 879 c 0,15,16
 494 891 494 891 490 904 c 0,17,18
 478 951 478 951 417 951 c 0,19,20
 369 951 369 951 340.5 921 c 128,-1,21
 312 891 312 891 312 841 c 0,22,23
 312 817 312 817 328.5 793 c 128,-1,24
 345 769 345 769 388 769 c 0,12,13
392 787 m 0,25,26
 331 787 331 787 330 840 c 0,27,28
 330 847 330 847 331.5 850.5 c 128,-1,29
 333 854 333 854 334 867 c 0,30,31
 340 899 340 899 361.5 916 c 128,-1,32
 383 933 383 933 413 933 c 0,33,34
 445 933 445 933 460.5 918.5 c 128,-1,35
 476 904 476 904 476 880 c 0,36,37
 476 876 476 876 475 871.5 c 128,-1,38
 474 867 474 867 472 853 c 0,39,40
 466 821 466 821 444.5 804 c 128,-1,41
 423 787 423 787 392 787 c 0,25,26
EndSplineSet
EndChar

StartChar: AE
Encoding: 198 198 133
Width: 884
Flags: W
LayerCount: 2
Fore
SplineSet
763 0 m 1,0,-1
 767 20 l 1,1,-1
 411 20 l 1,2,-1
 476 344 l 1,3,-1
 820 344 l 1,4,-1
 824 364 l 1,5,-1
 480 364 l 1,6,-1
 543 678 l 1,7,-1
 899 678 l 1,8,-1
 903 698 l 1,9,-1
 502 698 l 1,10,-1
 -21 0 l 1,11,-1
 4 0 l 1,12,-1
 180 234 l 1,13,-1
 432 234 l 1,14,-1
 385 0 l 1,15,-1
 763 0 l 1,0,-1
436 253 m 1,16,-1
 194 253 l 1,17,-1
 511 678 l 1,18,-1
 521 678 l 1,19,-1
 436 253 l 1,16,-1
EndSplineSet
EndChar

StartChar: Ccedilla
Encoding: 199 199 134
Width: 595
Flags: W
LayerCount: 2
Fore
SplineSet
263 -202 m 0,0,1
 306 -202 306 -202 331.5 -179.5 c 128,-1,2
 357 -157 357 -157 357 -125 c 0,3,4
 357 -75 357 -75 300 -72 c 0,5,6
 282 -72 282 -72 271 -75 c 1,7,-1
 269 -73 l 1,8,-1
 296 -12 l 1,9,-1
 301 -12 l 2,10,11
 435 -12 435 -12 519 141 c 1,12,-1
 500 151 l 1,13,14
 461 79 461 79 411 43.5 c 128,-1,15
 361 8 361 8 291 8 c 0,16,17
 194 8 194 8 142.5 65 c 128,-1,18
 91 122 91 122 91 220 c 0,19,20
 91 279 91 279 112 384 c 0,21,22
 141 526 141 526 216 608 c 128,-1,23
 291 690 291 690 397 690 c 0,24,25
 475 690 475 690 514 655.5 c 128,-1,26
 553 621 553 621 568 564 c 1,27,-1
 589 569 l 1,28,29
 572 635 572 635 527 672.5 c 128,-1,30
 482 710 482 710 398 710 c 0,31,32
 285 710 285 710 206 627 c 0,33,34
 134 547 134 547 101 435 c 0,35,36
 69 331 69 331 69 220 c 0,37,38
 69 111 69 111 126 52 c 128,-1,39
 183 -7 183 -7 279 -12 c 1,40,-1
 247 -84 l 1,41,-1
 284 -86 l 2,42,43
 336 -90 336 -90 336 -126 c 0,44,45
 336 -178 336 -178 263 -184 c 0,46,47
 223 -184 223 -184 202 -157 c 1,48,-1
 188 -170 l 1,49,50
 196 -183 196 -183 215.5 -192.5 c 128,-1,51
 235 -202 235 -202 263 -202 c 0,0,1
EndSplineSet
EndChar

StartChar: Egrave
Encoding: 200 200 135
Width: 553
Flags: W
LayerCount: 2
Fore
SplineSet
432 0 m 1,0,-1
 436 20 l 1,1,-1
 80 20 l 1,2,-1
 145 344 l 1,3,-1
 489 344 l 1,4,-1
 493 364 l 1,5,-1
 149 364 l 1,6,-1
 212 678 l 1,7,-1
 568 678 l 1,8,-1
 572 698 l 1,9,-1
 194 698 l 1,10,-1
 54 0 l 1,11,-1
 432 0 l 1,0,-1
398 768 m 1,12,-1
 414 777 l 1,13,-1
 333 932 l 1,14,-1
 314 921 l 1,15,-1
 398 768 l 1,12,-1
EndSplineSet
EndChar

StartChar: Eacute
Encoding: 201 201 136
Width: 553
Flags: W
LayerCount: 2
Fore
SplineSet
432 0 m 1,0,-1
 436 20 l 1,1,-1
 80 20 l 1,2,-1
 145 344 l 1,3,-1
 489 344 l 1,4,-1
 493 364 l 1,5,-1
 149 364 l 1,6,-1
 212 678 l 1,7,-1
 568 678 l 1,8,-1
 572 698 l 1,9,-1
 194 698 l 1,10,-1
 54 0 l 1,11,-1
 432 0 l 1,0,-1
387 767 m 1,12,-1
 534 918 l 1,13,-1
 517 931 l 1,14,-1
 374 778 l 1,15,-1
 387 767 l 1,12,-1
EndSplineSet
EndChar

StartChar: Ecircumflex
Encoding: 202 202 137
Width: 553
Flags: W
LayerCount: 2
Fore
SplineSet
432 0 m 1,0,-1
 436 20 l 1,1,-1
 80 20 l 1,2,-1
 145 344 l 1,3,-1
 489 344 l 1,4,-1
 493 364 l 1,5,-1
 149 364 l 1,6,-1
 212 678 l 1,7,-1
 568 678 l 1,8,-1
 572 698 l 1,9,-1
 194 698 l 1,10,-1
 54 0 l 1,11,-1
 432 0 l 1,0,-1
527 779 m 1,12,-1
 542 789 l 1,13,-1
 436 923 l 1,14,-1
 412 923 l 1,15,-1
 262 791 l 1,16,-1
 275 779 l 1,17,-1
 423 906 l 1,18,-1
 527 779 l 1,12,-1
EndSplineSet
EndChar

StartChar: Edieresis
Encoding: 203 203 138
Width: 553
Flags: W
LayerCount: 2
Fore
SplineSet
432 0 m 1,0,-1
 436 20 l 1,1,-1
 80 20 l 1,2,-1
 145 344 l 1,3,-1
 489 344 l 1,4,-1
 493 364 l 1,5,-1
 149 364 l 1,6,-1
 212 678 l 1,7,-1
 568 678 l 1,8,-1
 572 698 l 1,9,-1
 194 698 l 1,10,-1
 54 0 l 1,11,-1
 432 0 l 1,0,-1
315 819 m 0,12,13
 341 819 341 819 341 851 c 0,14,15
 341 868 341 868 321 868 c 0,16,17
 309 868 309 868 304.5 862.5 c 128,-1,18
 300 857 300 857 297.5 849.5 c 128,-1,19
 295 842 295 842 295 836 c 0,20,21
 295 819 295 819 315 819 c 0,12,13
497 819 m 0,22,23
 523 819 523 819 523 851 c 0,24,25
 523 868 523 868 503 868 c 0,26,27
 491 868 491 868 486.5 862.5 c 128,-1,28
 482 857 482 857 479.5 849.5 c 128,-1,29
 477 842 477 842 477 836 c 0,30,31
 477 819 477 819 497 819 c 0,22,23
EndSplineSet
EndChar

StartChar: Igrave
Encoding: 204 204 139
Width: 232
Flags: W
LayerCount: 2
Fore
SplineSet
223 768 m 1,0,-1
 239 777 l 1,1,-1
 158 932 l 1,2,-1
 139 921 l 1,3,-1
 223 768 l 1,0,-1
76 0 m 1,4,-1
 216 698 l 1,5,-1
 194 698 l 1,6,-1
 54 0 l 1,7,-1
 76 0 l 1,4,-1
EndSplineSet
EndChar

StartChar: Iacute
Encoding: 205 205 140
Width: 232
Flags: W
LayerCount: 2
Fore
SplineSet
212 767 m 1,0,-1
 359 918 l 1,1,-1
 342 931 l 1,2,-1
 199 778 l 1,3,-1
 212 767 l 1,0,-1
76 0 m 1,4,-1
 216 698 l 1,5,-1
 194 698 l 1,6,-1
 54 0 l 1,7,-1
 76 0 l 1,4,-1
EndSplineSet
EndChar

StartChar: Icircumflex
Encoding: 206 206 141
Width: 232
Flags: W
LayerCount: 2
Fore
SplineSet
367 779 m 1,0,-1
 382 789 l 1,1,-1
 276 923 l 1,2,-1
 252 923 l 1,3,-1
 102 791 l 1,4,-1
 115 779 l 1,5,-1
 263 906 l 1,6,-1
 367 779 l 1,0,-1
76 0 m 1,7,-1
 216 698 l 1,8,-1
 194 698 l 1,9,-1
 54 0 l 1,10,-1
 76 0 l 1,7,-1
EndSplineSet
EndChar

StartChar: Eth
Encoding: 208 208 143
Width: 651
Flags: W
LayerCount: 2
Fore
SplineSet
285 0 m 2,0,1
 370 0 370 0 432.5 40.5 c 128,-1,2
 495 81 495 81 535 148.5 c 128,-1,3
 575 216 575 216 594 299.5 c 128,-1,4
 613 383 613 383 613 468 c 0,5,6
 613 577 613 577 554.5 637.5 c 128,-1,7
 496 698 496 698 381 698 c 2,8,-1
 196 698 l 1,9,-1
 133 378 l 1,10,-1
 45 378 l 1,11,-1
 41 359 l 1,12,-1
 129 359 l 1,13,-1
 58 0 l 1,14,-1
 285 0 l 2,0,1
285 20 m 2,15,-1
 84 20 l 1,16,-1
 151 359 l 1,17,-1
 318 359 l 1,18,-1
 322 378 l 1,19,-1
 155 378 l 1,20,-1
 214 678 l 1,21,-1
 378 678 l 2,22,23
 486 678 486 678 538.5 621.5 c 128,-1,24
 591 565 591 565 591 468 c 0,25,26
 591 408 591 408 570 303 c 0,27,28
 547 186 547 186 475 104 c 0,29,30
 398 20 398 20 285 20 c 2,15,-1
EndSplineSet
EndChar

StartChar: Ntilde
Encoding: 209 209 144
Width: 680
Flags: W
LayerCount: 2
Fore
SplineSet
524 0 m 1,0,-1
 664 698 l 1,1,-1
 643 698 l 1,2,-1
 509 27 l 1,3,-1
 506 27 l 1,4,-1
 224 698 l 1,5,-1
 194 698 l 1,6,-1
 54 0 l 1,7,-1
 75 0 l 1,8,-1
 209 671 l 1,9,-1
 212 671 l 1,10,-1
 494 0 l 1,11,-1
 524 0 l 1,0,-1
521 808 m 0,12,13
 563 808 563 808 606 847 c 1,14,-1
 595 859 l 1,15,16
 561 826 561 826 526 826 c 0,17,18
 509 826 509 826 494.5 832.5 c 128,-1,19
 480 839 480 839 462 852 c 0,20,21
 440 868 440 868 425 875 c 128,-1,22
 410 882 410 882 390 882 c 0,23,24
 348 882 348 882 305 843 c 1,25,-1
 316 831 l 1,26,27
 354 864 354 864 385 864 c 0,28,29
 402 864 402 864 416.5 858 c 128,-1,30
 431 852 431 852 449 839 c 0,31,32
 472 823 472 823 486.5 815.5 c 128,-1,33
 501 808 501 808 521 808 c 0,12,13
EndSplineSet
EndChar

StartChar: Ograve
Encoding: 210 210 145
Width: 658
Flags: W
LayerCount: 2
Fore
SplineSet
291 -12 m 0,0,1
 407 -12 407 -12 486 71 c 0,2,3
 559 151 559 151 592 263 c 0,4,5
 623 366 623 366 623 478 c 0,6,7
 623 592 623 592 561 651 c 128,-1,8
 499 710 499 710 401 710 c 0,9,10
 284 710 284 710 207 627 c 0,11,12
 134 547 134 547 101 435 c 0,13,14
 69 318 69 318 69 220 c 0,15,16
 69 106 69 106 131 48 c 0,17,18
 191 -12 191 -12 291 -12 c 0,0,1
291 8 m 0,19,20
 194 8 194 8 142.5 65 c 128,-1,21
 91 122 91 122 91 220 c 0,22,23
 91 279 91 279 112 384 c 0,24,25
 142 526 142 526 217.5 608 c 128,-1,26
 293 690 293 690 401 690 c 0,27,28
 498 690 498 690 549.5 633 c 128,-1,29
 601 576 601 576 601 478 c 0,30,31
 601 419 601 419 580 314 c 0,32,33
 551 173 551 173 475 90.5 c 128,-1,34
 399 8 399 8 291 8 c 0,19,20
439 768 m 1,35,-1
 455 777 l 1,36,-1
 374 932 l 1,37,-1
 355 921 l 1,38,-1
 439 768 l 1,35,-1
EndSplineSet
EndChar

StartChar: Oacute
Encoding: 211 211 146
Width: 658
Flags: W
LayerCount: 2
Fore
SplineSet
291 -12 m 0,0,1
 407 -12 407 -12 486 71 c 0,2,3
 559 151 559 151 592 263 c 0,4,5
 623 366 623 366 623 478 c 0,6,7
 623 592 623 592 561 651 c 128,-1,8
 499 710 499 710 401 710 c 0,9,10
 284 710 284 710 207 627 c 0,11,12
 134 547 134 547 101 435 c 0,13,14
 69 318 69 318 69 220 c 0,15,16
 69 106 69 106 131 48 c 0,17,18
 191 -12 191 -12 291 -12 c 0,0,1
291 8 m 0,19,20
 194 8 194 8 142.5 65 c 128,-1,21
 91 122 91 122 91 220 c 0,22,23
 91 279 91 279 112 384 c 0,24,25
 142 526 142 526 217.5 608 c 128,-1,26
 293 690 293 690 401 690 c 0,27,28
 498 690 498 690 549.5 633 c 128,-1,29
 601 576 601 576 601 478 c 0,30,31
 601 419 601 419 580 314 c 0,32,33
 551 173 551 173 475 90.5 c 128,-1,34
 399 8 399 8 291 8 c 0,19,20
428 767 m 1,35,-1
 575 918 l 1,36,-1
 558 931 l 1,37,-1
 415 778 l 1,38,-1
 428 767 l 1,35,-1
EndSplineSet
EndChar

StartChar: Ocircumflex
Encoding: 212 212 147
Width: 658
Flags: W
LayerCount: 2
Fore
SplineSet
291 -12 m 0,0,1
 407 -12 407 -12 486 71 c 0,2,3
 559 151 559 151 592 263 c 0,4,5
 623 366 623 366 623 478 c 0,6,7
 623 592 623 592 561 651 c 128,-1,8
 499 710 499 710 401 710 c 0,9,10
 284 710 284 710 207 627 c 0,11,12
 134 547 134 547 101 435 c 0,13,14
 69 318 69 318 69 220 c 0,15,16
 69 106 69 106 131 48 c 0,17,18
 191 -12 191 -12 291 -12 c 0,0,1
291 8 m 0,19,20
 194 8 194 8 142.5 65 c 128,-1,21
 91 122 91 122 91 220 c 0,22,23
 91 279 91 279 112 384 c 0,24,25
 142 526 142 526 217.5 608 c 128,-1,26
 293 690 293 690 401 690 c 0,27,28
 498 690 498 690 549.5 633 c 128,-1,29
 601 576 601 576 601 478 c 0,30,31
 601 419 601 419 580 314 c 0,32,33
 551 173 551 173 475 90.5 c 128,-1,34
 399 8 399 8 291 8 c 0,19,20
568 779 m 1,35,-1
 583 789 l 1,36,-1
 477 923 l 1,37,-1
 453 923 l 1,38,-1
 303 791 l 1,39,-1
 316 779 l 1,40,-1
 464 906 l 1,41,-1
 568 779 l 1,35,-1
EndSplineSet
EndChar

StartChar: Otilde
Encoding: 213 213 148
Width: 658
Flags: W
LayerCount: 2
Fore
SplineSet
291 -12 m 0,0,1
 407 -12 407 -12 486 71 c 0,2,3
 559 151 559 151 592 263 c 0,4,5
 623 366 623 366 623 478 c 0,6,7
 623 592 623 592 561 651 c 128,-1,8
 499 710 499 710 401 710 c 0,9,10
 284 710 284 710 207 627 c 0,11,12
 134 547 134 547 101 435 c 0,13,14
 69 318 69 318 69 220 c 0,15,16
 69 106 69 106 131 48 c 0,17,18
 191 -12 191 -12 291 -12 c 0,0,1
291 8 m 0,19,20
 194 8 194 8 142.5 65 c 128,-1,21
 91 122 91 122 91 220 c 0,22,23
 91 279 91 279 112 384 c 0,24,25
 142 526 142 526 217.5 608 c 128,-1,26
 293 690 293 690 401 690 c 0,27,28
 498 690 498 690 549.5 633 c 128,-1,29
 601 576 601 576 601 478 c 0,30,31
 601 419 601 419 580 314 c 0,32,33
 551 173 551 173 475 90.5 c 128,-1,34
 399 8 399 8 291 8 c 0,19,20
504 808 m 0,35,36
 546 808 546 808 589 847 c 1,37,-1
 578 859 l 1,38,39
 544 826 544 826 509 826 c 0,40,41
 492 826 492 826 477.5 832.5 c 128,-1,42
 463 839 463 839 445 852 c 0,43,44
 423 868 423 868 408 875 c 128,-1,45
 393 882 393 882 373 882 c 0,46,47
 331 882 331 882 288 843 c 1,48,-1
 299 831 l 1,49,50
 337 864 337 864 368 864 c 0,51,52
 385 864 385 864 399.5 858 c 128,-1,53
 414 852 414 852 432 839 c 0,54,55
 455 823 455 823 469.5 815.5 c 128,-1,56
 484 808 484 808 504 808 c 0,35,36
EndSplineSet
EndChar

StartChar: Odieresis
Encoding: 214 214 149
Width: 658
Flags: W
LayerCount: 2
Fore
SplineSet
291 -12 m 0,0,1
 407 -12 407 -12 486 71 c 0,2,3
 559 151 559 151 592 263 c 0,4,5
 623 366 623 366 623 478 c 0,6,7
 623 592 623 592 561 651 c 128,-1,8
 499 710 499 710 401 710 c 0,9,10
 284 710 284 710 207 627 c 0,11,12
 134 547 134 547 101 435 c 0,13,14
 69 318 69 318 69 220 c 0,15,16
 69 106 69 106 131 48 c 0,17,18
 191 -12 191 -12 291 -12 c 0,0,1
291 8 m 0,19,20
 194 8 194 8 142.5 65 c 128,-1,21
 91 122 91 122 91 220 c 0,22,23
 91 279 91 279 112 384 c 0,24,25
 142 526 142 526 217.5 608 c 128,-1,26
 293 690 293 690 401 690 c 0,27,28
 498 690 498 690 549.5 633 c 128,-1,29
 601 576 601 576 601 478 c 0,30,31
 601 419 601 419 580 314 c 0,32,33
 551 173 551 173 475 90.5 c 128,-1,34
 399 8 399 8 291 8 c 0,19,20
356 819 m 0,35,36
 382 819 382 819 382 851 c 0,37,38
 382 868 382 868 362 868 c 0,39,40
 350 868 350 868 345.5 862.5 c 128,-1,41
 341 857 341 857 338.5 849.5 c 128,-1,42
 336 842 336 842 336 836 c 0,43,44
 336 819 336 819 356 819 c 0,35,36
538 819 m 0,45,46
 564 819 564 819 564 851 c 0,47,48
 564 868 564 868 544 868 c 0,49,50
 532 868 532 868 527.5 862.5 c 128,-1,51
 523 857 523 857 520.5 849.5 c 128,-1,52
 518 842 518 842 518 836 c 0,53,54
 518 819 518 819 538 819 c 0,45,46
EndSplineSet
EndChar

StartChar: multiply
Encoding: 215 215 150
Width: 600
Flags: W
LayerCount: 2
Fore
SplineSet
89 109 m 1,0,-1
 308 292 l 1,1,-1
 453 110 l 1,2,-1
 468 122 l 1,3,-1
 323 304 l 1,4,-1
 540 486 l 1,5,-1
 528 500 l 1,6,-1
 311 319 l 1,7,-1
 167 499 l 1,8,-1
 152 487 l 1,9,-1
 296 306 l 1,10,-1
 77 123 l 1,11,-1
 89 109 l 1,0,-1
EndSplineSet
EndChar

StartChar: Oslash
Encoding: 216 216 151
Width: 658
Flags: W
LayerCount: 2
Fore
SplineSet
18 -33 m 1,0,-1
 111 71 l 1,1,2
 173 -12 173 -12 291 -12 c 0,3,4
 407 -12 407 -12 486 71 c 0,5,6
 559 151 559 151 592 263 c 0,7,8
 623 366 623 366 623 478 c 0,9,10
 623 556 623 556 592 610 c 1,11,-1
 689 719 l 1,12,-1
 674 731 l 1,13,-1
 581 627 l 1,14,15
 520 710 520 710 401 710 c 0,16,17
 286 710 286 710 207 627 c 0,18,19
 135 547 135 547 101 435 c 0,20,21
 69 333 69 333 69 220 c 0,22,23
 69 142 69 142 100 88 c 1,24,-1
 3 -21 l 1,25,-1
 18 -33 l 1,0,-1
115 105 m 1,26,27
 91 153 91 153 91 220 c 0,28,29
 91 262 91 262 101 329 c 2,30,-1
 112 384 l 2,31,32
 142 526 142 526 217.5 608 c 128,-1,33
 293 690 293 690 401 690 c 0,34,35
 515 690 515 690 567 611 c 1,36,-1
 115 105 l 1,26,27
291 8 m 0,37,38
 177 8 177 8 125 87 c 1,39,-1
 577 593 l 1,40,41
 601 546 601 546 601 478 c 0,42,43
 601 436 601 436 591 369 c 2,44,-1
 580 314 l 2,45,46
 551 173 551 173 475 90.5 c 128,-1,47
 399 8 399 8 291 8 c 0,37,38
EndSplineSet
EndChar

StartChar: Ugrave
Encoding: 217 217 152
Width: 639
Flags: W
LayerCount: 2
Fore
SplineSet
273 -12 m 0,0,1
 398 -12 398 -12 457 50 c 128,-1,2
 516 112 516 112 545 270 c 2,3,-1
 631 698 l 1,4,-1
 609 698 l 1,5,-1
 523 271 l 2,6,7
 496 124 496 124 441.5 66 c 128,-1,8
 387 8 387 8 273 8 c 0,9,10
 104 8 104 8 104 148 c 0,11,12
 104 171 104 171 109 199 c 0,13,14
 112 221 112 221 207 698 c 1,15,-1
 185 698 l 1,16,-1
 97 256 l 2,17,18
 82 197 82 197 82 148 c 0,19,20
 82 68 82 68 132 28 c 128,-1,21
 182 -12 182 -12 273 -12 c 0,0,1
426 768 m 1,22,-1
 442 777 l 1,23,-1
 361 932 l 1,24,-1
 342 921 l 1,25,-1
 426 768 l 1,22,-1
EndSplineSet
EndChar

StartChar: Uacute
Encoding: 218 218 153
Width: 639
Flags: W
LayerCount: 2
Fore
SplineSet
273 -12 m 0,0,1
 398 -12 398 -12 457 50 c 128,-1,2
 516 112 516 112 545 270 c 2,3,-1
 631 698 l 1,4,-1
 609 698 l 1,5,-1
 523 271 l 2,6,7
 496 124 496 124 441.5 66 c 128,-1,8
 387 8 387 8 273 8 c 0,9,10
 104 8 104 8 104 148 c 0,11,12
 104 171 104 171 109 199 c 0,13,14
 112 221 112 221 207 698 c 1,15,-1
 185 698 l 1,16,-1
 97 256 l 2,17,18
 82 197 82 197 82 148 c 0,19,20
 82 68 82 68 132 28 c 128,-1,21
 182 -12 182 -12 273 -12 c 0,0,1
415 767 m 1,22,-1
 562 918 l 1,23,-1
 545 931 l 1,24,-1
 402 778 l 1,25,-1
 415 767 l 1,22,-1
EndSplineSet
EndChar

StartChar: Ucircumflex
Encoding: 219 219 154
Width: 639
Flags: W
LayerCount: 2
Fore
SplineSet
273 -12 m 0,0,1
 398 -12 398 -12 457 50 c 128,-1,2
 516 112 516 112 545 270 c 2,3,-1
 631 698 l 1,4,-1
 609 698 l 1,5,-1
 523 271 l 2,6,7
 496 124 496 124 441.5 66 c 128,-1,8
 387 8 387 8 273 8 c 0,9,10
 104 8 104 8 104 148 c 0,11,12
 104 171 104 171 109 199 c 0,13,14
 112 221 112 221 207 698 c 1,15,-1
 185 698 l 1,16,-1
 97 256 l 2,17,18
 82 197 82 197 82 148 c 0,19,20
 82 68 82 68 132 28 c 128,-1,21
 182 -12 182 -12 273 -12 c 0,0,1
555 779 m 1,22,-1
 570 789 l 1,23,-1
 464 923 l 1,24,-1
 440 923 l 1,25,-1
 290 791 l 1,26,-1
 303 779 l 1,27,-1
 451 906 l 1,28,-1
 555 779 l 1,22,-1
EndSplineSet
EndChar

StartChar: Udieresis
Encoding: 220 220 155
Width: 639
Flags: W
LayerCount: 2
Fore
SplineSet
273 -12 m 0,0,1
 398 -12 398 -12 457 50 c 128,-1,2
 516 112 516 112 545 270 c 2,3,-1
 631 698 l 1,4,-1
 609 698 l 1,5,-1
 523 271 l 2,6,7
 496 124 496 124 441.5 66 c 128,-1,8
 387 8 387 8 273 8 c 0,9,10
 104 8 104 8 104 148 c 0,11,12
 104 171 104 171 109 199 c 0,13,14
 112 221 112 221 207 698 c 1,15,-1
 185 698 l 1,16,-1
 97 256 l 2,17,18
 82 197 82 197 82 148 c 0,19,20
 82 68 82 68 132 28 c 128,-1,21
 182 -12 182 -12 273 -12 c 0,0,1
343 819 m 0,22,23
 369 819 369 819 369 851 c 0,24,25
 369 868 369 868 349 868 c 0,26,27
 337 868 337 868 332.5 862.5 c 128,-1,28
 328 857 328 857 325.5 849.5 c 128,-1,29
 323 842 323 842 323 836 c 0,30,31
 323 819 323 819 343 819 c 0,22,23
525 819 m 0,32,33
 551 819 551 819 551 851 c 0,34,35
 551 868 551 868 531 868 c 0,36,37
 519 868 519 868 514.5 862.5 c 128,-1,38
 510 857 510 857 507.5 849.5 c 128,-1,39
 505 842 505 842 505 836 c 0,40,41
 505 819 505 819 525 819 c 0,32,33
EndSplineSet
EndChar

StartChar: Yacute
Encoding: 221 221 156
Width: 540
Flags: W
LayerCount: 2
Fore
SplineSet
230 0 m 1,0,-1
 289 294 l 1,1,-1
 609 698 l 1,2,-1
 583 698 l 1,3,-1
 283 320 l 1,4,-1
 280 320 l 1,5,-1
 132 698 l 1,6,-1
 109 698 l 1,7,-1
 267 294 l 1,8,-1
 208 0 l 1,9,-1
 230 0 l 1,0,-1
366 767 m 1,10,-1
 513 918 l 1,11,-1
 496 931 l 1,12,-1
 353 778 l 1,13,-1
 366 767 l 1,10,-1
EndSplineSet
EndChar

StartChar: Thorn
Encoding: 222 222 157
Width: 592
Flags: W
LayerCount: 2
Fore
SplineSet
76 0 m 1,0,-1
 109 166 l 1,1,-1
 355 166 l 2,2,3
 453 166 453 166 509 225.5 c 128,-1,4
 565 285 565 285 565 394 c 0,5,6
 565 458 565 458 526 500 c 128,-1,7
 487 542 487 542 414 542 c 2,8,-1
 184 542 l 1,9,-1
 215 698 l 1,10,-1
 194 698 l 1,11,-1
 54 0 l 1,12,-1
 76 0 l 1,0,-1
357 186 m 2,13,-1
 113 186 l 1,14,-1
 180 522 l 1,15,-1
 412 522 l 2,16,17
 480 522 480 522 512 485 c 0,18,19
 543 447 543 447 543 394 c 0,20,21
 543 366 543 366 534 325 c 0,22,23
 522 264 522 264 478.5 225 c 128,-1,24
 435 186 435 186 357 186 c 2,13,-1
EndSplineSet
EndChar

StartChar: germandbls
Encoding: 223 223 158
Width: 628
Flags: W
LayerCount: 2
Fore
SplineSet
386 -12 m 0,0,1
 460 -12 460 -12 511 28 c 128,-1,2
 562 68 562 68 562 140 c 0,3,4
 562 193 562 193 535.5 217.5 c 128,-1,5
 509 242 509 242 464 256 c 2,6,-1
 414 273 l 2,7,8
 372 286 372 286 352.5 305.5 c 128,-1,9
 333 325 333 325 333 367 c 0,10,11
 333 430 333 430 393 462 c 1,12,13
 452 488 452 488 536 488 c 2,14,-1
 552 488 l 1,15,-1
 558 521 l 2,16,17
 565 556 565 556 565 590 c 0,18,19
 565 665 565 665 525 708.5 c 128,-1,20
 485 752 485 752 410 752 c 0,21,22
 312 752 312 752 254.5 689.5 c 128,-1,23
 197 627 197 627 176 521 c 2,24,-1
 173 506 l 1,25,-1
 78 506 l 1,26,-1
 74 487 l 1,27,-1
 169 487 l 1,28,-1
 72 0 l 1,29,-1
 93 0 l 1,30,-1
 197 521 l 2,31,32
 216 615 216 615 266.5 674 c 128,-1,33
 317 733 317 733 407 733 c 0,34,35
 477 733 477 733 510.5 695.5 c 128,-1,36
 544 658 544 658 544 590 c 0,37,38
 544 556 544 556 534 506 c 1,39,40
 437 506 437 506 374 472 c 0,41,42
 312 436 312 436 312 367 c 0,43,44
 312 315 312 315 339 292 c 0,45,46
 365 267 365 267 408 254 c 2,47,-1
 458 237 l 2,48,49
 500 224 500 224 520.5 202.5 c 128,-1,50
 541 181 541 181 541 139 c 0,51,52
 541 76 541 76 498.5 41.5 c 128,-1,53
 456 7 456 7 386 7 c 0,54,55
 275 7 275 7 218 98 c 1,56,-1
 200 86 l 1,57,58
 265 -12 265 -12 386 -12 c 0,0,1
EndSplineSet
EndChar

StartChar: agrave
Encoding: 224 224 159
Width: 567
Flags: W
LayerCount: 2
Fore
SplineSet
223 -12 m 0,0,1
 287 -12 287 -12 329.5 21 c 128,-1,2
 372 54 372 54 404 111 c 1,3,-1
 407 111 l 1,4,-1
 392 35 l 2,5,6
 392 32 392 32 391 28 c 128,-1,7
 390 24 390 24 390 19 c 0,8,9
 390 0 390 0 413 0 c 2,10,-1
 491 0 l 1,11,-1
 495 19 l 1,12,-1
 410 19 l 1,13,-1
 507 506 l 1,14,-1
 486 506 l 1,15,-1
 468 413 l 1,16,-1
 465 413 l 1,17,18
 451 461 451 461 412 489.5 c 128,-1,19
 373 518 373 518 309 518 c 0,20,21
 192 518 192 518 125 416 c 0,22,23
 60 314 60 314 60 176 c 0,24,25
 60 97 60 97 102.5 42.5 c 128,-1,26
 145 -12 145 -12 223 -12 c 0,0,1
223 7 m 0,27,28
 153 7 153 7 117 56.5 c 128,-1,29
 81 106 81 106 81 176 c 0,30,31
 81 218 81 218 87 247 c 2,32,-1
 94 282 l 2,33,34
 113 382 113 382 168 440.5 c 128,-1,35
 223 499 223 499 309 499 c 0,36,37
 393 499 393 499 431 448 c 0,38,39
 457 411 457 411 457 372 c 0,40,41
 457 359 457 359 454 346 c 2,42,-1
 426 204 l 1,43,44
 398 96 398 96 333 47 c 1,45,46
 288 7 288 7 223 7 c 0,27,28
349 587 m 1,47,-1
 365 596 l 1,48,-1
 284 751 l 1,49,-1
 265 740 l 1,50,-1
 349 587 l 1,47,-1
EndSplineSet
EndChar

StartChar: aacute
Encoding: 225 225 160
Width: 567
Flags: W
LayerCount: 2
Fore
SplineSet
223 -12 m 0,0,1
 287 -12 287 -12 329.5 21 c 128,-1,2
 372 54 372 54 404 111 c 1,3,-1
 407 111 l 1,4,-1
 392 35 l 2,5,6
 392 32 392 32 391 28 c 128,-1,7
 390 24 390 24 390 19 c 0,8,9
 390 0 390 0 413 0 c 2,10,-1
 491 0 l 1,11,-1
 495 19 l 1,12,-1
 410 19 l 1,13,-1
 507 506 l 1,14,-1
 486 506 l 1,15,-1
 468 413 l 1,16,-1
 465 413 l 1,17,18
 451 461 451 461 412 489.5 c 128,-1,19
 373 518 373 518 309 518 c 0,20,21
 192 518 192 518 125 416 c 0,22,23
 60 314 60 314 60 176 c 0,24,25
 60 97 60 97 102.5 42.5 c 128,-1,26
 145 -12 145 -12 223 -12 c 0,0,1
223 7 m 0,27,28
 153 7 153 7 117 56.5 c 128,-1,29
 81 106 81 106 81 176 c 0,30,31
 81 218 81 218 87 247 c 2,32,-1
 94 282 l 2,33,34
 113 382 113 382 168 440.5 c 128,-1,35
 223 499 223 499 309 499 c 0,36,37
 393 499 393 499 431 448 c 0,38,39
 457 411 457 411 457 372 c 0,40,41
 457 359 457 359 454 346 c 2,42,-1
 426 204 l 1,43,44
 398 96 398 96 333 47 c 1,45,46
 288 7 288 7 223 7 c 0,27,28
318 587 m 1,47,-1
 465 738 l 1,48,-1
 448 751 l 1,49,-1
 305 598 l 1,50,-1
 318 587 l 1,47,-1
EndSplineSet
EndChar

StartChar: acircumflex
Encoding: 226 226 161
Width: 567
Flags: W
LayerCount: 2
Fore
SplineSet
223 -12 m 0,0,1
 287 -12 287 -12 329.5 21 c 128,-1,2
 372 54 372 54 404 111 c 1,3,-1
 407 111 l 1,4,-1
 392 35 l 2,5,6
 392 32 392 32 391 28 c 128,-1,7
 390 24 390 24 390 19 c 0,8,9
 390 0 390 0 413 0 c 2,10,-1
 491 0 l 1,11,-1
 495 19 l 1,12,-1
 410 19 l 1,13,-1
 507 506 l 1,14,-1
 486 506 l 1,15,-1
 468 413 l 1,16,-1
 465 413 l 1,17,18
 451 461 451 461 412 489.5 c 128,-1,19
 373 518 373 518 309 518 c 0,20,21
 192 518 192 518 125 416 c 0,22,23
 60 314 60 314 60 176 c 0,24,25
 60 97 60 97 102.5 42.5 c 128,-1,26
 145 -12 145 -12 223 -12 c 0,0,1
223 7 m 0,27,28
 153 7 153 7 117 56.5 c 128,-1,29
 81 106 81 106 81 176 c 0,30,31
 81 218 81 218 87 247 c 2,32,-1
 94 282 l 2,33,34
 113 382 113 382 168 440.5 c 128,-1,35
 223 499 223 499 309 499 c 0,36,37
 393 499 393 499 431 448 c 0,38,39
 457 411 457 411 457 372 c 0,40,41
 457 359 457 359 454 346 c 2,42,-1
 426 204 l 1,43,44
 398 96 398 96 333 47 c 1,45,46
 288 7 288 7 223 7 c 0,27,28
472 599 m 1,47,-1
 487 609 l 1,48,-1
 381 743 l 1,49,-1
 357 743 l 1,50,-1
 207 611 l 1,51,-1
 220 599 l 1,52,-1
 368 726 l 1,53,-1
 472 599 l 1,47,-1
EndSplineSet
EndChar

StartChar: atilde
Encoding: 227 227 162
Width: 567
Flags: W
LayerCount: 2
Fore
SplineSet
223 -12 m 0,0,1
 287 -12 287 -12 329.5 21 c 128,-1,2
 372 54 372 54 404 111 c 1,3,-1
 407 111 l 1,4,-1
 392 35 l 2,5,6
 392 32 392 32 391 28 c 128,-1,7
 390 24 390 24 390 19 c 0,8,9
 390 0 390 0 413 0 c 2,10,-1
 491 0 l 1,11,-1
 495 19 l 1,12,-1
 410 19 l 1,13,-1
 507 506 l 1,14,-1
 486 506 l 1,15,-1
 468 413 l 1,16,-1
 465 413 l 1,17,18
 451 461 451 461 412 489.5 c 128,-1,19
 373 518 373 518 309 518 c 0,20,21
 192 518 192 518 125 416 c 0,22,23
 60 314 60 314 60 176 c 0,24,25
 60 97 60 97 102.5 42.5 c 128,-1,26
 145 -12 145 -12 223 -12 c 0,0,1
223 7 m 0,27,28
 153 7 153 7 117 56.5 c 128,-1,29
 81 106 81 106 81 176 c 0,30,31
 81 218 81 218 87 247 c 2,32,-1
 94 282 l 2,33,34
 113 382 113 382 168 440.5 c 128,-1,35
 223 499 223 499 309 499 c 0,36,37
 393 499 393 499 431 448 c 0,38,39
 457 411 457 411 457 372 c 0,40,41
 457 359 457 359 454 346 c 2,42,-1
 426 204 l 1,43,44
 398 96 398 96 333 47 c 1,45,46
 288 7 288 7 223 7 c 0,27,28
419 628 m 0,47,48
 461 628 461 628 504 667 c 1,49,-1
 493 679 l 1,50,51
 459 646 459 646 424 646 c 0,52,53
 407 646 407 646 392.5 652.5 c 128,-1,54
 378 659 378 659 360 672 c 0,55,56
 338 688 338 688 323 695 c 128,-1,57
 308 702 308 702 288 702 c 0,58,59
 246 702 246 702 203 663 c 1,60,-1
 214 651 l 1,61,62
 252 684 252 684 283 684 c 0,63,64
 300 684 300 684 314.5 678 c 128,-1,65
 329 672 329 672 347 659 c 0,66,67
 370 643 370 643 384.5 635.5 c 128,-1,68
 399 628 399 628 419 628 c 0,47,48
EndSplineSet
EndChar

StartChar: adieresis
Encoding: 228 228 163
Width: 567
Flags: W
LayerCount: 2
Fore
SplineSet
223 -12 m 0,0,1
 287 -12 287 -12 329.5 21 c 128,-1,2
 372 54 372 54 404 111 c 1,3,-1
 407 111 l 1,4,-1
 392 35 l 2,5,6
 392 32 392 32 391 28 c 128,-1,7
 390 24 390 24 390 19 c 0,8,9
 390 0 390 0 413 0 c 2,10,-1
 491 0 l 1,11,-1
 495 19 l 1,12,-1
 410 19 l 1,13,-1
 507 506 l 1,14,-1
 486 506 l 1,15,-1
 468 413 l 1,16,-1
 465 413 l 1,17,18
 451 461 451 461 412 489.5 c 128,-1,19
 373 518 373 518 309 518 c 0,20,21
 192 518 192 518 125 416 c 0,22,23
 60 314 60 314 60 176 c 0,24,25
 60 97 60 97 102.5 42.5 c 128,-1,26
 145 -12 145 -12 223 -12 c 0,0,1
223 7 m 0,27,28
 153 7 153 7 117 56.5 c 128,-1,29
 81 106 81 106 81 176 c 0,30,31
 81 218 81 218 87 247 c 2,32,-1
 94 282 l 2,33,34
 113 382 113 382 168 440.5 c 128,-1,35
 223 499 223 499 309 499 c 0,36,37
 393 499 393 499 431 448 c 0,38,39
 457 411 457 411 457 372 c 0,40,41
 457 359 457 359 454 346 c 2,42,-1
 426 204 l 1,43,44
 398 96 398 96 333 47 c 1,45,46
 288 7 288 7 223 7 c 0,27,28
261 642 m 0,47,48
 287 642 287 642 287 674 c 0,49,50
 287 691 287 691 267 691 c 0,51,52
 255 691 255 691 250.5 685.5 c 128,-1,53
 246 680 246 680 243.5 672.5 c 128,-1,54
 241 665 241 665 241 659 c 0,55,56
 241 642 241 642 261 642 c 0,47,48
443 642 m 0,57,58
 469 642 469 642 469 674 c 0,59,60
 469 691 469 691 449 691 c 0,61,62
 437 691 437 691 432.5 685.5 c 128,-1,63
 428 680 428 680 425.5 672.5 c 128,-1,64
 423 665 423 665 423 659 c 0,65,66
 423 642 423 642 443 642 c 0,57,58
EndSplineSet
EndChar

StartChar: aring
Encoding: 229 229 164
Width: 567
Flags: W
LayerCount: 2
Fore
SplineSet
223 -12 m 0,0,1
 287 -12 287 -12 329.5 21 c 128,-1,2
 372 54 372 54 404 111 c 1,3,-1
 407 111 l 1,4,-1
 392 35 l 2,5,6
 392 32 392 32 391 28 c 128,-1,7
 390 24 390 24 390 19 c 0,8,9
 390 0 390 0 413 0 c 2,10,-1
 491 0 l 1,11,-1
 495 19 l 1,12,-1
 410 19 l 1,13,-1
 507 506 l 1,14,-1
 486 506 l 1,15,-1
 468 413 l 1,16,-1
 465 413 l 1,17,18
 451 461 451 461 412 489.5 c 128,-1,19
 373 518 373 518 309 518 c 0,20,21
 192 518 192 518 125 416 c 0,22,23
 60 314 60 314 60 176 c 0,24,25
 60 97 60 97 102.5 42.5 c 128,-1,26
 145 -12 145 -12 223 -12 c 0,0,1
223 7 m 0,27,28
 153 7 153 7 117 56.5 c 128,-1,29
 81 106 81 106 81 176 c 0,30,31
 81 218 81 218 87 247 c 2,32,-1
 94 282 l 2,33,34
 113 382 113 382 168 440.5 c 128,-1,35
 223 499 223 499 309 499 c 0,36,37
 393 499 393 499 431 448 c 0,38,39
 457 411 457 411 457 372 c 0,40,41
 457 359 457 359 454 346 c 2,42,-1
 426 204 l 1,43,44
 398 96 398 96 333 47 c 1,45,46
 288 7 288 7 223 7 c 0,27,28
339 589 m 0,47,48
 387 589 387 589 416 619 c 128,-1,49
 445 649 445 649 445 699 c 0,50,51
 445 711 445 711 441 724 c 0,52,53
 429 771 429 771 368 771 c 0,54,55
 320 771 320 771 291.5 741 c 128,-1,56
 263 711 263 711 263 661 c 0,57,58
 263 637 263 637 279.5 613 c 128,-1,59
 296 589 296 589 339 589 c 0,47,48
343 607 m 0,60,61
 282 607 282 607 281 660 c 0,62,63
 281 667 281 667 282.5 670.5 c 128,-1,64
 284 674 284 674 285 687 c 0,65,66
 291 719 291 719 312.5 736 c 128,-1,67
 334 753 334 753 364 753 c 0,68,69
 396 753 396 753 411.5 738.5 c 128,-1,70
 427 724 427 724 427 700 c 0,71,72
 427 696 427 696 426 691.5 c 128,-1,73
 425 687 425 687 423 673 c 0,74,75
 417 641 417 641 395.5 624 c 128,-1,76
 374 607 374 607 343 607 c 0,60,61
EndSplineSet
EndChar

StartChar: ae
Encoding: 230 230 165
Width: 860
Flags: W
LayerCount: 2
Fore
SplineSet
204 7 m 0,0,1
 72 7 72 7 68 102 c 0,2,3
 68 119 68 119 73 143 c 0,4,5
 80 182 80 182 118.5 205.5 c 128,-1,6
 157 229 157 229 240 234 c 2,7,-1
 420 243 l 1,8,-1
 406 162 l 2,9,10
 390 85 390 85 331 46 c 128,-1,11
 272 7 272 7 204 7 c 0,0,1
444 262 m 1,12,-1
 446 273 l 2,13,14
 464 371 464 371 520.5 435 c 128,-1,15
 577 499 577 499 661 499 c 0,16,17
 734 499 734 499 766.5 471.5 c 128,-1,18
 799 444 799 444 799 399 c 0,19,20
 799 343 799 343 735 309 c 0,21,22
 664 268 664 268 444 262 c 1,12,-1
592 -12 m 0,23,24
 724 -12 724 -12 800 125 c 1,25,-1
 781 132 l 1,26,27
 717 7 717 7 592 7 c 0,28,29
 514 7 514 7 475 56.5 c 128,-1,30
 436 106 436 106 436 190 c 0,31,32
 436 206 436 206 440 230 c 2,33,-1
 442 243 l 1,34,35
 681 251 681 251 755 297 c 0,36,37
 821 334 821 334 821 399 c 0,38,39
 821 455 821 455 778 486.5 c 128,-1,40
 735 518 735 518 663 518 c 0,41,42
 595 518 595 518 545.5 482.5 c 128,-1,43
 496 447 496 447 465 387 c 1,44,-1
 462 387 l 1,45,46
 461 443 461 443 425 480.5 c 128,-1,47
 389 518 389 518 309 518 c 0,48,49
 230 518 230 518 187 490 c 128,-1,50
 144 462 144 462 115 411 c 1,51,-1
 132 402 l 1,52,53
 162 452 162 452 201 475.5 c 128,-1,54
 240 499 240 499 307 499 c 0,55,56
 380 499 380 499 414 464 c 1,57,58
 442 429 442 429 442 381 c 0,59,60
 442 359 442 359 437 329 c 2,61,-1
 424 261 l 1,62,-1
 241 252 l 2,63,64
 142 247 142 247 94.5 212.5 c 128,-1,65
 47 178 47 178 47 103 c 0,66,67
 47 -9 47 -9 202 -12 c 0,68,69
 282 -12 282 -12 341 29 c 128,-1,70
 400 70 400 70 418 138 c 1,71,-1
 421 138 l 1,72,73
 432 66 432 66 477.5 27 c 128,-1,74
 523 -12 523 -12 592 -12 c 0,23,24
EndSplineSet
EndChar

StartChar: ccedilla
Encoding: 231 231 166
Width: 479
Flags: W
LayerCount: 2
Fore
SplineSet
199 -202 m 0,0,1
 242 -202 242 -202 267.5 -179.5 c 128,-1,2
 293 -157 293 -157 293 -125 c 0,3,4
 293 -75 293 -75 236 -72 c 0,5,6
 217 -72 217 -72 207 -75 c 1,7,-1
 205 -73 l 1,8,-1
 232 -12 l 1,9,10
 347 -5 347 -5 422 114 c 1,11,-1
 405 123 l 1,12,13
 370 69 370 69 326 38 c 128,-1,14
 282 7 282 7 223 7 c 0,15,16
 151 7 151 7 115 60 c 0,17,18
 81 106 81 106 81 186 c 0,19,20
 81 205 81 205 82.5 219 c 128,-1,21
 84 233 84 233 96 297 c 0,22,23
 114 392 114 392 168 445.5 c 128,-1,24
 222 499 222 499 299 499 c 0,25,26
 350 499 350 499 385 473 c 128,-1,27
 420 447 420 447 432 398 c 1,28,-1
 451 403 l 1,29,30
 439 455 439 455 400 486.5 c 128,-1,31
 361 518 361 518 301 518 c 0,32,33
 243 518 243 518 198 492.5 c 128,-1,34
 153 467 153 467 123 422 c 0,35,36
 61 326 61 326 61 186 c 0,37,38
 61 102 61 102 99.5 47 c 128,-1,39
 138 -8 138 -8 215 -12 c 1,40,-1
 183 -84 l 1,41,-1
 220 -86 l 2,42,43
 249 -88 249 -88 260.5 -98.5 c 128,-1,44
 272 -109 272 -109 272 -126 c 0,45,46
 272 -178 272 -178 199 -184 c 0,47,48
 159 -184 159 -184 138 -157 c 1,49,-1
 124 -170 l 1,50,51
 132 -183 132 -183 151.5 -192.5 c 128,-1,52
 171 -202 171 -202 199 -202 c 0,0,1
EndSplineSet
EndChar

StartChar: egrave
Encoding: 232 232 167
Width: 505
Flags: W
LayerCount: 2
Fore
SplineSet
237 -12 m 0,0,1
 371 -12 371 -12 445 124 c 1,2,-1
 426 132 l 1,3,4
 362 7 362 7 237 7 c 0,5,6
 159 7 159 7 120.5 49.5 c 128,-1,7
 82 92 82 92 82 189 c 0,8,9
 82 201 82 201 85 233 c 1,10,11
 317 239 317 239 403 293 c 0,12,13
 466 332 466 332 466 395 c 0,14,15
 466 452 466 452 423 485 c 128,-1,16
 380 518 380 518 308 518 c 0,17,18
 253 518 253 518 208 492.5 c 128,-1,19
 163 467 163 467 130 422 c 0,20,21
 61 325 61 325 61 187 c 0,22,23
 61 -12 61 -12 237 -12 c 0,0,1
87 252 m 1,24,-1
 90 269 l 2,25,26
 109 371 109 371 165.5 435 c 128,-1,27
 222 499 222 499 306 499 c 0,28,29
 379 499 379 499 411.5 470 c 128,-1,30
 444 441 444 441 444 395 c 0,31,32
 444 335 444 335 378 300 c 0,33,34
 305 258 305 258 87 252 c 1,24,-1
336 587 m 1,35,-1
 352 596 l 1,36,-1
 271 751 l 1,37,-1
 252 740 l 1,38,-1
 336 587 l 1,35,-1
EndSplineSet
EndChar

StartChar: eacute
Encoding: 233 233 168
Width: 505
Flags: W
LayerCount: 2
Fore
SplineSet
237 -12 m 0,0,1
 371 -12 371 -12 445 124 c 1,2,-1
 426 132 l 1,3,4
 362 7 362 7 237 7 c 0,5,6
 159 7 159 7 120.5 49.5 c 128,-1,7
 82 92 82 92 82 189 c 0,8,9
 82 201 82 201 85 233 c 1,10,11
 317 239 317 239 403 293 c 0,12,13
 466 332 466 332 466 395 c 0,14,15
 466 452 466 452 423 485 c 128,-1,16
 380 518 380 518 308 518 c 0,17,18
 253 518 253 518 208 492.5 c 128,-1,19
 163 467 163 467 130 422 c 0,20,21
 61 325 61 325 61 187 c 0,22,23
 61 -12 61 -12 237 -12 c 0,0,1
87 252 m 1,24,-1
 90 269 l 2,25,26
 109 371 109 371 165.5 435 c 128,-1,27
 222 499 222 499 306 499 c 0,28,29
 379 499 379 499 411.5 470 c 128,-1,30
 444 441 444 441 444 395 c 0,31,32
 444 335 444 335 378 300 c 0,33,34
 305 258 305 258 87 252 c 1,24,-1
305 587 m 1,35,-1
 452 738 l 1,36,-1
 435 751 l 1,37,-1
 292 598 l 1,38,-1
 305 587 l 1,35,-1
EndSplineSet
EndChar

StartChar: ecircumflex
Encoding: 234 234 169
Width: 505
Flags: W
LayerCount: 2
Fore
SplineSet
237 -12 m 0,0,1
 371 -12 371 -12 445 124 c 1,2,-1
 426 132 l 1,3,4
 362 7 362 7 237 7 c 0,5,6
 159 7 159 7 120.5 49.5 c 128,-1,7
 82 92 82 92 82 189 c 0,8,9
 82 201 82 201 85 233 c 1,10,11
 317 239 317 239 403 293 c 0,12,13
 466 332 466 332 466 395 c 0,14,15
 466 452 466 452 423 485 c 128,-1,16
 380 518 380 518 308 518 c 0,17,18
 253 518 253 518 208 492.5 c 128,-1,19
 163 467 163 467 130 422 c 0,20,21
 61 325 61 325 61 187 c 0,22,23
 61 -12 61 -12 237 -12 c 0,0,1
87 252 m 1,24,-1
 90 269 l 2,25,26
 109 371 109 371 165.5 435 c 128,-1,27
 222 499 222 499 306 499 c 0,28,29
 379 499 379 499 411.5 470 c 128,-1,30
 444 441 444 441 444 395 c 0,31,32
 444 335 444 335 378 300 c 0,33,34
 305 258 305 258 87 252 c 1,24,-1
459 599 m 1,35,-1
 474 609 l 1,36,-1
 368 743 l 1,37,-1
 344 743 l 1,38,-1
 194 611 l 1,39,-1
 207 599 l 1,40,-1
 355 726 l 1,41,-1
 459 599 l 1,35,-1
EndSplineSet
EndChar

StartChar: edieresis
Encoding: 235 235 170
Width: 505
Flags: W
LayerCount: 2
Fore
SplineSet
237 -12 m 0,0,1
 371 -12 371 -12 445 124 c 1,2,-1
 426 132 l 1,3,4
 362 7 362 7 237 7 c 0,5,6
 159 7 159 7 120.5 49.5 c 128,-1,7
 82 92 82 92 82 189 c 0,8,9
 82 201 82 201 85 233 c 1,10,11
 317 239 317 239 403 293 c 0,12,13
 466 332 466 332 466 395 c 0,14,15
 466 452 466 452 423 485 c 128,-1,16
 380 518 380 518 308 518 c 0,17,18
 253 518 253 518 208 492.5 c 128,-1,19
 163 467 163 467 130 422 c 0,20,21
 61 325 61 325 61 187 c 0,22,23
 61 -12 61 -12 237 -12 c 0,0,1
87 252 m 1,24,-1
 90 269 l 2,25,26
 109 371 109 371 165.5 435 c 128,-1,27
 222 499 222 499 306 499 c 0,28,29
 379 499 379 499 411.5 470 c 128,-1,30
 444 441 444 441 444 395 c 0,31,32
 444 335 444 335 378 300 c 0,33,34
 305 258 305 258 87 252 c 1,24,-1
248 642 m 0,35,36
 274 642 274 642 274 674 c 0,37,38
 274 691 274 691 254 691 c 0,39,40
 242 691 242 691 237.5 685.5 c 128,-1,41
 233 680 233 680 230.5 672.5 c 128,-1,42
 228 665 228 665 228 659 c 0,43,44
 228 642 228 642 248 642 c 0,35,36
430 642 m 0,45,46
 456 642 456 642 456 674 c 0,47,48
 456 691 456 691 436 691 c 0,49,50
 424 691 424 691 419.5 685.5 c 128,-1,51
 415 680 415 680 412.5 672.5 c 128,-1,52
 410 665 410 665 410 659 c 0,53,54
 410 642 410 642 430 642 c 0,45,46
EndSplineSet
EndChar

StartChar: igrave
Encoding: 236 236 171
Width: 235
Flags: W
LayerCount: 2
Fore
SplineSet
159 0 m 1,0,-1
 163 19 l 1,1,-1
 78 19 l 1,2,-1
 176 506 l 1,3,-1
 155 506 l 1,4,5
 58 25 58 25 58 19 c 0,6,7
 58 0 58 0 81 0 c 2,8,-1
 159 0 l 1,0,-1
192 587 m 1,9,-1
 208 596 l 1,10,-1
 127 751 l 1,11,-1
 108 740 l 1,12,-1
 192 587 l 1,9,-1
EndSplineSet
EndChar

StartChar: iacute
Encoding: 237 237 172
Width: 235
Flags: W
LayerCount: 2
Fore
SplineSet
159 0 m 1,0,-1
 163 19 l 1,1,-1
 78 19 l 1,2,-1
 176 506 l 1,3,-1
 155 506 l 1,4,5
 58 25 58 25 58 19 c 0,6,7
 58 0 58 0 81 0 c 2,8,-1
 159 0 l 1,0,-1
161 587 m 1,9,-1
 308 738 l 1,10,-1
 291 751 l 1,11,-1
 148 598 l 1,12,-1
 161 587 l 1,9,-1
EndSplineSet
EndChar

StartChar: icircumflex
Encoding: 238 238 173
Width: 235
Flags: W
LayerCount: 2
Fore
SplineSet
159 0 m 1,0,-1
 163 19 l 1,1,-1
 78 19 l 1,2,-1
 176 506 l 1,3,-1
 155 506 l 1,4,5
 58 25 58 25 58 19 c 0,6,7
 58 0 58 0 81 0 c 2,8,-1
 159 0 l 1,0,-1
315 599 m 1,9,-1
 330 609 l 1,10,-1
 224 743 l 1,11,-1
 200 743 l 1,12,-1
 50 611 l 1,13,-1
 63 599 l 1,14,-1
 211 726 l 1,15,-1
 315 599 l 1,9,-1
EndSplineSet
EndChar

StartChar: idieresis
Encoding: 239 239 174
Width: 235
Flags: W
LayerCount: 2
Fore
SplineSet
159 0 m 1,0,-1
 163 19 l 1,1,-1
 78 19 l 1,2,-1
 176 506 l 1,3,-1
 155 506 l 1,4,5
 58 25 58 25 58 19 c 0,6,7
 58 0 58 0 81 0 c 2,8,-1
 159 0 l 1,0,-1
104 642 m 0,9,10
 130 642 130 642 130 674 c 0,11,12
 130 691 130 691 110 691 c 0,13,14
 98 691 98 691 93.5 685.5 c 128,-1,15
 89 680 89 680 86.5 672.5 c 128,-1,16
 84 665 84 665 84 659 c 0,17,18
 84 642 84 642 104 642 c 0,9,10
286 642 m 0,19,20
 312 642 312 642 312 674 c 0,21,22
 312 691 312 691 292 691 c 0,23,24
 280 691 280 691 275.5 685.5 c 128,-1,25
 271 680 271 680 268.5 672.5 c 128,-1,26
 266 665 266 665 266 659 c 0,27,28
 266 642 266 642 286 642 c 0,19,20
EndSplineSet
EndChar

StartChar: eth
Encoding: 240 240 175
Width: 560
Flags: W
LayerCount: 2
Fore
SplineSet
239 -12 m 0,0,1
 349 -12 349 -12 421 74 c 0,2,3
 494 166 494 166 494 328 c 0,4,5
 494 435 494 435 450 525 c 0,6,7
 407 607 407 607 345 660 c 1,8,-1
 469 738 l 1,9,-1
 462 752 l 1,10,-1
 333 670 l 1,11,12
 277 716 277 716 222 740 c 1,13,-1
 190 740 l 1,14,15
 258 708 258 708 316 660 c 1,16,-1
 199 586 l 1,17,-1
 206 572 l 1,18,-1
 328 649 l 1,19,20
 438 555 438 555 466 417 c 1,21,-1
 463 415 l 1,22,23
 416 504 416 504 309 504 c 0,24,25
 201 504 201 504 130.5 416 c 128,-1,26
 60 328 60 328 60 178 c 0,27,28
 60 89 60 89 108 38.5 c 128,-1,29
 156 -12 156 -12 239 -12 c 0,0,1
240 7 m 0,30,31
 168 7 168 7 124 52 c 128,-1,32
 80 97 80 97 80 178 c 0,33,34
 80 204 80 204 84 235 c 2,35,-1
 92 279 l 2,36,37
 111 379 111 379 170.5 432 c 128,-1,38
 230 485 230 485 312 485 c 0,39,40
 384 485 384 485 428 440 c 128,-1,41
 472 395 472 395 472 314 c 0,42,43
 472 289 472 289 468 257 c 2,44,-1
 460 213 l 2,45,46
 441 114 441 114 382.5 60.5 c 128,-1,47
 324 7 324 7 240 7 c 0,30,31
EndSplineSet
EndChar

StartChar: ntilde
Encoding: 241 241 176
Width: 548
Flags: W
LayerCount: 2
Fore
SplineSet
481 0 m 1,0,-1
 485 19 l 1,1,-1
 400 19 l 1,2,-1
 460 321 l 2,3,4
 467 356 467 356 467 386 c 0,5,6
 467 449 467 449 433 483.5 c 128,-1,7
 399 518 399 518 335 518 c 0,8,9
 272 518 272 518 229.5 488 c 128,-1,10
 187 458 187 458 157 401 c 1,11,-1
 154 401 l 1,12,-1
 175 506 l 1,13,-1
 154 506 l 1,14,-1
 53 0 l 1,15,-1
 74 0 l 1,16,-1
 136 312 l 2,17,18
 152 384 152 384 199 437 c 0,19,20
 253 499 253 499 332 499 c 0,21,22
 446 499 446 499 446 383 c 0,23,24
 446 361 446 361 439 320 c 0,25,26
 380 25 380 25 380 19 c 0,27,28
 380 0 380 0 403 0 c 2,29,-1
 481 0 l 1,0,-1
424 628 m 0,30,31
 466 628 466 628 509 667 c 1,32,-1
 498 679 l 1,33,34
 464 646 464 646 429 646 c 0,35,36
 412 646 412 646 397.5 652.5 c 128,-1,37
 383 659 383 659 365 672 c 0,38,39
 343 688 343 688 328 695 c 128,-1,40
 313 702 313 702 293 702 c 0,41,42
 251 702 251 702 208 663 c 1,43,-1
 219 651 l 1,44,45
 257 684 257 684 288 684 c 0,46,47
 305 684 305 684 319.5 678 c 128,-1,48
 334 672 334 672 352 659 c 0,49,50
 375 643 375 643 389.5 635.5 c 128,-1,51
 404 628 404 628 424 628 c 0,30,31
EndSplineSet
EndChar

StartChar: ograve
Encoding: 242 242 177
Width: 534
Flags: W
LayerCount: 2
Fore
SplineSet
225 -12 m 0,0,1
 287 -12 287 -12 334 16 c 128,-1,2
 381 44 381 44 412.5 92.5 c 128,-1,3
 444 141 444 141 459.5 204 c 128,-1,4
 475 267 475 267 475 337 c 0,5,6
 475 411 475 411 432 464.5 c 128,-1,7
 389 518 389 518 309 518 c 0,8,9
 190 518 190 518 123 414 c 0,10,11
 59 309 59 309 59 169 c 0,12,13
 59 93 59 93 102.5 40.5 c 128,-1,14
 146 -12 146 -12 225 -12 c 0,0,1
227 7 m 0,15,16
 154 7 154 7 115 55 c 0,17,18
 80 103 80 103 80 169 c 0,19,20
 80 210 80 210 85 241 c 2,21,-1
 93 281 l 2,22,23
 114 384 114 384 168 441.5 c 128,-1,24
 222 499 222 499 307 499 c 0,25,26
 380 499 380 499 419 451 c 0,27,28
 454 403 454 403 454 337 c 0,29,30
 454 297 454 297 449 265 c 2,31,-1
 441 225 l 2,32,33
 421 122 421 122 366.5 64.5 c 128,-1,34
 312 7 312 7 227 7 c 0,15,16
333 587 m 1,35,-1
 349 596 l 1,36,-1
 268 751 l 1,37,-1
 249 740 l 1,38,-1
 333 587 l 1,35,-1
EndSplineSet
EndChar

StartChar: oacute
Encoding: 243 243 178
Width: 534
Flags: W
LayerCount: 2
Fore
SplineSet
225 -12 m 0,0,1
 287 -12 287 -12 334 16 c 128,-1,2
 381 44 381 44 412.5 92.5 c 128,-1,3
 444 141 444 141 459.5 204 c 128,-1,4
 475 267 475 267 475 337 c 0,5,6
 475 411 475 411 432 464.5 c 128,-1,7
 389 518 389 518 309 518 c 0,8,9
 190 518 190 518 123 414 c 0,10,11
 59 309 59 309 59 169 c 0,12,13
 59 93 59 93 102.5 40.5 c 128,-1,14
 146 -12 146 -12 225 -12 c 0,0,1
227 7 m 0,15,16
 154 7 154 7 115 55 c 0,17,18
 80 103 80 103 80 169 c 0,19,20
 80 210 80 210 85 241 c 2,21,-1
 93 281 l 2,22,23
 114 384 114 384 168 441.5 c 128,-1,24
 222 499 222 499 307 499 c 0,25,26
 380 499 380 499 419 451 c 0,27,28
 454 403 454 403 454 337 c 0,29,30
 454 297 454 297 449 265 c 2,31,-1
 441 225 l 2,32,33
 421 122 421 122 366.5 64.5 c 128,-1,34
 312 7 312 7 227 7 c 0,15,16
302 587 m 1,35,-1
 449 738 l 1,36,-1
 432 751 l 1,37,-1
 289 598 l 1,38,-1
 302 587 l 1,35,-1
EndSplineSet
EndChar

StartChar: ocircumflex
Encoding: 244 244 179
Width: 534
Flags: W
LayerCount: 2
Fore
SplineSet
225 -12 m 0,0,1
 287 -12 287 -12 334 16 c 128,-1,2
 381 44 381 44 412.5 92.5 c 128,-1,3
 444 141 444 141 459.5 204 c 128,-1,4
 475 267 475 267 475 337 c 0,5,6
 475 411 475 411 432 464.5 c 128,-1,7
 389 518 389 518 309 518 c 0,8,9
 190 518 190 518 123 414 c 0,10,11
 59 309 59 309 59 169 c 0,12,13
 59 93 59 93 102.5 40.5 c 128,-1,14
 146 -12 146 -12 225 -12 c 0,0,1
227 7 m 0,15,16
 154 7 154 7 115 55 c 0,17,18
 80 103 80 103 80 169 c 0,19,20
 80 210 80 210 85 241 c 2,21,-1
 93 281 l 2,22,23
 114 384 114 384 168 441.5 c 128,-1,24
 222 499 222 499 307 499 c 0,25,26
 380 499 380 499 419 451 c 0,27,28
 454 403 454 403 454 337 c 0,29,30
 454 297 454 297 449 265 c 2,31,-1
 441 225 l 2,32,33
 421 122 421 122 366.5 64.5 c 128,-1,34
 312 7 312 7 227 7 c 0,15,16
456 599 m 1,35,-1
 471 609 l 1,36,-1
 365 743 l 1,37,-1
 341 743 l 1,38,-1
 191 611 l 1,39,-1
 204 599 l 1,40,-1
 352 726 l 1,41,-1
 456 599 l 1,35,-1
EndSplineSet
EndChar

StartChar: otilde
Encoding: 245 245 180
Width: 534
Flags: W
LayerCount: 2
Fore
SplineSet
225 -12 m 0,0,1
 287 -12 287 -12 334 16 c 128,-1,2
 381 44 381 44 412.5 92.5 c 128,-1,3
 444 141 444 141 459.5 204 c 128,-1,4
 475 267 475 267 475 337 c 0,5,6
 475 411 475 411 432 464.5 c 128,-1,7
 389 518 389 518 309 518 c 0,8,9
 190 518 190 518 123 414 c 0,10,11
 59 309 59 309 59 169 c 0,12,13
 59 93 59 93 102.5 40.5 c 128,-1,14
 146 -12 146 -12 225 -12 c 0,0,1
227 7 m 0,15,16
 154 7 154 7 115 55 c 0,17,18
 80 103 80 103 80 169 c 0,19,20
 80 210 80 210 85 241 c 2,21,-1
 93 281 l 2,22,23
 114 384 114 384 168 441.5 c 128,-1,24
 222 499 222 499 307 499 c 0,25,26
 380 499 380 499 419 451 c 0,27,28
 454 403 454 403 454 337 c 0,29,30
 454 297 454 297 449 265 c 2,31,-1
 441 225 l 2,32,33
 421 122 421 122 366.5 64.5 c 128,-1,34
 312 7 312 7 227 7 c 0,15,16
403 628 m 0,35,36
 445 628 445 628 488 667 c 1,37,-1
 477 679 l 1,38,39
 443 646 443 646 408 646 c 0,40,41
 391 646 391 646 376.5 652.5 c 128,-1,42
 362 659 362 659 344 672 c 0,43,44
 322 688 322 688 307 695 c 128,-1,45
 292 702 292 702 272 702 c 0,46,47
 230 702 230 702 187 663 c 1,48,-1
 198 651 l 1,49,50
 236 684 236 684 267 684 c 0,51,52
 284 684 284 684 298.5 678 c 128,-1,53
 313 672 313 672 331 659 c 0,54,55
 354 643 354 643 368.5 635.5 c 128,-1,56
 383 628 383 628 403 628 c 0,35,36
EndSplineSet
EndChar

StartChar: odieresis
Encoding: 246 246 181
Width: 534
Flags: W
LayerCount: 2
Fore
SplineSet
225 -12 m 0,0,1
 287 -12 287 -12 334 16 c 128,-1,2
 381 44 381 44 412.5 92.5 c 128,-1,3
 444 141 444 141 459.5 204 c 128,-1,4
 475 267 475 267 475 337 c 0,5,6
 475 411 475 411 432 464.5 c 128,-1,7
 389 518 389 518 309 518 c 0,8,9
 190 518 190 518 123 414 c 0,10,11
 59 309 59 309 59 169 c 0,12,13
 59 93 59 93 102.5 40.5 c 128,-1,14
 146 -12 146 -12 225 -12 c 0,0,1
227 7 m 0,15,16
 154 7 154 7 115 55 c 0,17,18
 80 103 80 103 80 169 c 0,19,20
 80 210 80 210 85 241 c 2,21,-1
 93 281 l 2,22,23
 114 384 114 384 168 441.5 c 128,-1,24
 222 499 222 499 307 499 c 0,25,26
 380 499 380 499 419 451 c 0,27,28
 454 403 454 403 454 337 c 0,29,30
 454 297 454 297 449 265 c 2,31,-1
 441 225 l 2,32,33
 421 122 421 122 366.5 64.5 c 128,-1,34
 312 7 312 7 227 7 c 0,15,16
245 642 m 0,35,36
 271 642 271 642 271 674 c 0,37,38
 271 691 271 691 251 691 c 0,39,40
 239 691 239 691 234.5 685.5 c 128,-1,41
 230 680 230 680 227.5 672.5 c 128,-1,42
 225 665 225 665 225 659 c 0,43,44
 225 642 225 642 245 642 c 0,35,36
427 642 m 0,45,46
 453 642 453 642 453 674 c 0,47,48
 453 691 453 691 433 691 c 0,49,50
 421 691 421 691 416.5 685.5 c 128,-1,51
 412 680 412 680 409.5 672.5 c 128,-1,52
 407 665 407 665 407 659 c 0,53,54
 407 642 407 642 427 642 c 0,45,46
EndSplineSet
EndChar

StartChar: divide
Encoding: 247 247 182
Width: 600
Flags: W
LayerCount: 2
Fore
SplineSet
547 296 m 1,0,-1
 551 315 l 1,1,-1
 75 315 l 1,2,-1
 71 296 l 1,3,-1
 547 296 l 1,0,-1
270 81 m 0,4,5
 287 81 287 81 293 87 c 128,-1,6
 299 93 299 93 301 102 c 0,7,8
 304 117 304 117 304 124 c 0,9,10
 304 143 304 143 276 143 c 256,11,12
 248 143 248 143 244 122 c 0,13,14
 241 107 241 107 241 100 c 0,15,16
 241 81 241 81 270 81 c 0,4,5
348 468 m 0,17,18
 365 468 365 468 371 474 c 128,-1,19
 377 480 377 480 379 489 c 0,20,21
 382 504 382 504 382 511 c 0,22,23
 382 530 382 530 354 530 c 256,24,25
 326 530 326 530 322 509 c 0,26,27
 319 494 319 494 319 487 c 0,28,29
 319 468 319 468 348 468 c 0,17,18
EndSplineSet
EndChar

StartChar: oslash
Encoding: 248 248 183
Width: 534
Flags: W
LayerCount: 2
Fore
SplineSet
43 -26 m 1,0,-1
 101 42 l 1,1,2
 146 -12 146 -12 225 -12 c 0,3,4
 287 -12 287 -12 334 16 c 128,-1,5
 381 44 381 44 412.5 92.5 c 128,-1,6
 444 141 444 141 459.5 204 c 128,-1,7
 475 267 475 267 475 337 c 0,8,9
 475 402 475 402 444 449 c 1,10,-1
 505 521 l 1,11,-1
 491 532 l 1,12,-1
 433 464 l 1,13,14
 392 518 392 518 309 518 c 0,15,16
 190 518 190 518 123 414 c 0,17,18
 59 309 59 309 59 169 c 0,19,20
 59 105 59 105 90 57 c 1,21,-1
 29 -15 l 1,22,-1
 43 -26 l 1,0,-1
103 73 m 1,23,24
 80 115 80 115 80 169 c 0,25,26
 80 210 80 210 85 241 c 2,27,-1
 93 281 l 2,28,29
 114 384 114 384 168 441.5 c 128,-1,30
 222 499 222 499 307 499 c 0,31,32
 385 499 385 499 421 449 c 1,33,-1
 103 73 l 1,23,24
227 7 m 0,34,35
 149 7 149 7 113 57 c 1,36,-1
 431 433 l 1,37,38
 454 393 454 393 454 337 c 0,39,40
 454 297 454 297 449 265 c 2,41,-1
 441 225 l 2,42,43
 421 122 421 122 366.5 64.5 c 128,-1,44
 312 7 312 7 227 7 c 0,34,35
EndSplineSet
EndChar

StartChar: ugrave
Encoding: 249 249 184
Width: 548
Flags: W
LayerCount: 2
Fore
SplineSet
206 -12 m 0,0,1
 269 -12 269 -12 312 18 c 128,-1,2
 355 48 355 48 384 105 c 1,3,-1
 387 105 l 1,4,5
 371 25 371 25 371 19 c 0,6,7
 371 0 371 0 394 0 c 2,8,-1
 472 0 l 1,9,-1
 476 19 l 1,10,-1
 391 19 l 1,11,-1
 488 506 l 1,12,-1
 467 506 l 1,13,-1
 405 194 l 2,14,15
 389 122 389 122 342 69 c 0,16,17
 288 7 288 7 209 7 c 0,18,19
 95 7 95 7 95 123 c 0,20,21
 95 145 95 145 102 186 c 2,22,-1
 166 506 l 1,23,-1
 145 506 l 1,24,-1
 81 185 l 2,25,26
 74 150 74 150 74 120 c 0,27,28
 74 57 74 57 108 22.5 c 128,-1,29
 142 -12 142 -12 206 -12 c 0,0,1
334 587 m 1,30,-1
 350 596 l 1,31,-1
 269 751 l 1,32,-1
 250 740 l 1,33,-1
 334 587 l 1,30,-1
EndSplineSet
EndChar

StartChar: uacute
Encoding: 250 250 185
Width: 548
Flags: W
LayerCount: 2
Fore
SplineSet
206 -12 m 0,0,1
 269 -12 269 -12 312 18 c 128,-1,2
 355 48 355 48 384 105 c 1,3,-1
 387 105 l 1,4,5
 371 25 371 25 371 19 c 0,6,7
 371 0 371 0 394 0 c 2,8,-1
 472 0 l 1,9,-1
 476 19 l 1,10,-1
 391 19 l 1,11,-1
 488 506 l 1,12,-1
 467 506 l 1,13,-1
 405 194 l 2,14,15
 389 122 389 122 342 69 c 0,16,17
 288 7 288 7 209 7 c 0,18,19
 95 7 95 7 95 123 c 0,20,21
 95 145 95 145 102 186 c 2,22,-1
 166 506 l 1,23,-1
 145 506 l 1,24,-1
 81 185 l 2,25,26
 74 150 74 150 74 120 c 0,27,28
 74 57 74 57 108 22.5 c 128,-1,29
 142 -12 142 -12 206 -12 c 0,0,1
303 587 m 1,30,-1
 450 738 l 1,31,-1
 433 751 l 1,32,-1
 290 598 l 1,33,-1
 303 587 l 1,30,-1
EndSplineSet
EndChar

StartChar: ucircumflex
Encoding: 251 251 186
Width: 548
Flags: W
LayerCount: 2
Fore
SplineSet
206 -12 m 0,0,1
 269 -12 269 -12 312 18 c 128,-1,2
 355 48 355 48 384 105 c 1,3,-1
 387 105 l 1,4,5
 371 25 371 25 371 19 c 0,6,7
 371 0 371 0 394 0 c 2,8,-1
 472 0 l 1,9,-1
 476 19 l 1,10,-1
 391 19 l 1,11,-1
 488 506 l 1,12,-1
 467 506 l 1,13,-1
 405 194 l 2,14,15
 389 122 389 122 342 69 c 0,16,17
 288 7 288 7 209 7 c 0,18,19
 95 7 95 7 95 123 c 0,20,21
 95 145 95 145 102 186 c 2,22,-1
 166 506 l 1,23,-1
 145 506 l 1,24,-1
 81 185 l 2,25,26
 74 150 74 150 74 120 c 0,27,28
 74 57 74 57 108 22.5 c 128,-1,29
 142 -12 142 -12 206 -12 c 0,0,1
457 599 m 1,30,-1
 472 609 l 1,31,-1
 366 743 l 1,32,-1
 342 743 l 1,33,-1
 192 611 l 1,34,-1
 205 599 l 1,35,-1
 353 726 l 1,36,-1
 457 599 l 1,30,-1
EndSplineSet
EndChar

StartChar: udieresis
Encoding: 252 252 187
Width: 548
Flags: W
LayerCount: 2
Fore
SplineSet
206 -12 m 0,0,1
 269 -12 269 -12 312 18 c 128,-1,2
 355 48 355 48 384 105 c 1,3,-1
 387 105 l 1,4,5
 371 25 371 25 371 19 c 0,6,7
 371 0 371 0 394 0 c 2,8,-1
 472 0 l 1,9,-1
 476 19 l 1,10,-1
 391 19 l 1,11,-1
 488 506 l 1,12,-1
 467 506 l 1,13,-1
 405 194 l 2,14,15
 389 122 389 122 342 69 c 0,16,17
 288 7 288 7 209 7 c 0,18,19
 95 7 95 7 95 123 c 0,20,21
 95 145 95 145 102 186 c 2,22,-1
 166 506 l 1,23,-1
 145 506 l 1,24,-1
 81 185 l 2,25,26
 74 150 74 150 74 120 c 0,27,28
 74 57 74 57 108 22.5 c 128,-1,29
 142 -12 142 -12 206 -12 c 0,0,1
246 642 m 0,30,31
 272 642 272 642 272 674 c 0,32,33
 272 691 272 691 252 691 c 0,34,35
 240 691 240 691 235.5 685.5 c 128,-1,36
 231 680 231 680 228.5 672.5 c 128,-1,37
 226 665 226 665 226 659 c 0,38,39
 226 642 226 642 246 642 c 0,30,31
428 642 m 0,40,41
 454 642 454 642 454 674 c 0,42,43
 454 691 454 691 434 691 c 0,44,45
 422 691 422 691 417.5 685.5 c 128,-1,46
 413 680 413 680 410.5 672.5 c 128,-1,47
 408 665 408 665 408 659 c 0,48,49
 408 642 408 642 428 642 c 0,40,41
EndSplineSet
EndChar

StartChar: yacute
Encoding: 253 253 188
Width: 460
Flags: W
LayerCount: 2
Fore
SplineSet
51 -200 m 2,0,1
 65 -200 65 -200 73 -194.5 c 128,-1,2
 81 -189 81 -189 89 -175 c 2,3,-1
 477 506 l 1,4,-1
 454 506 l 1,5,-1
 181 24 l 1,6,-1
 178 24 l 1,7,-1
 93 506 l 1,8,-1
 73 506 l 1,9,-1
 164 -3 l 1,10,-1
 64 -181 l 1,11,-1
 -20 -181 l 1,12,-1
 -24 -200 l 1,13,-1
 51 -200 l 2,0,1
264 587 m 1,14,-1
 411 738 l 1,15,-1
 394 751 l 1,16,-1
 251 598 l 1,17,-1
 264 587 l 1,14,-1
EndSplineSet
EndChar

StartChar: thorn
Encoding: 254 254 189
Width: 560
Flags: W
LayerCount: 2
Fore
SplineSet
34 -200 m 1,0,-1
 92 93 l 1,1,-1
 95 93 l 1,2,3
 109 45 109 45 148 16.5 c 128,-1,4
 187 -12 187 -12 251 -12 c 0,5,6
 311 -12 311 -12 357.5 15 c 128,-1,7
 404 42 404 42 436 90 c 0,8,9
 500 192 500 192 500 330 c 0,10,11
 500 410 500 410 457.5 464 c 128,-1,12
 415 518 415 518 337 518 c 0,13,14
 273 518 273 518 230.5 485 c 128,-1,15
 188 452 188 452 156 395 c 1,16,-1
 153 395 l 1,17,-1
 222 740 l 1,18,-1
 201 740 l 1,19,-1
 13 -200 l 1,20,-1
 34 -200 l 1,0,-1
251 7 m 0,21,22
 167 7 167 7 129 59 c 0,23,24
 103 95 103 95 103 134 c 0,25,26
 103 147 103 147 106 160 c 2,27,-1
 134 302 l 1,28,29
 163 410 163 410 227 459 c 0,30,31
 273 499 273 499 337 499 c 0,32,33
 406 499 406 499 445 449 c 0,34,35
 479 401 479 401 479 330 c 0,36,37
 479 288 479 288 473 259 c 2,38,-1
 466 224 l 2,39,40
 446 124 446 124 391.5 65.5 c 128,-1,41
 337 7 337 7 251 7 c 0,21,22
EndSplineSet
EndChar

StartChar: ydieresis
Encoding: 255 255 190
Width: 460
Flags: W
LayerCount: 2
Fore
SplineSet
51 -200 m 2,0,1
 65 -200 65 -200 73 -194.5 c 128,-1,2
 81 -189 81 -189 89 -175 c 2,3,-1
 477 506 l 1,4,-1
 454 506 l 1,5,-1
 181 24 l 1,6,-1
 178 24 l 1,7,-1
 93 506 l 1,8,-1
 73 506 l 1,9,-1
 164 -3 l 1,10,-1
 64 -181 l 1,11,-1
 -20 -181 l 1,12,-1
 -24 -200 l 1,13,-1
 51 -200 l 2,0,1
207 642 m 0,14,15
 233 642 233 642 233 674 c 0,16,17
 233 691 233 691 213 691 c 0,18,19
 201 691 201 691 196.5 685.5 c 128,-1,20
 192 680 192 680 189.5 672.5 c 128,-1,21
 187 665 187 665 187 659 c 0,22,23
 187 642 187 642 207 642 c 0,14,15
389 642 m 0,24,25
 415 642 415 642 415 674 c 0,26,27
 415 691 415 691 395 691 c 0,28,29
 383 691 383 691 378.5 685.5 c 128,-1,30
 374 680 374 680 371.5 672.5 c 128,-1,31
 369 665 369 665 369 659 c 0,32,33
 369 642 369 642 389 642 c 0,24,25
EndSplineSet
EndChar

StartChar: Amacron
Encoding: 256 256 191
Width: 594
Flags: W
LayerCount: 2
Fore
SplineSet
519 0 m 1,0,-1
 384 698 l 1,1,-1
 354 698 l 1,2,-1
 -12 0 l 1,3,-1
 12 0 l 1,4,-1
 134 234 l 1,5,-1
 452 234 l 1,6,-1
 497 0 l 1,7,-1
 519 0 l 1,0,-1
448 253 m 1,8,-1
 144 253 l 1,9,-1
 364 673 l 1,10,-1
 367 673 l 1,11,-1
 448 253 l 1,8,-1
525 838 m 1,12,-1
 528 856 l 1,13,-1
 270 856 l 1,14,-1
 267 838 l 1,15,-1
 525 838 l 1,12,-1
EndSplineSet
EndChar

StartChar: amacron
Encoding: 257 257 192
Width: 567
Flags: W
LayerCount: 2
Fore
SplineSet
223 -12 m 0,0,1
 287 -12 287 -12 329.5 21 c 128,-1,2
 372 54 372 54 404 111 c 1,3,-1
 407 111 l 1,4,-1
 392 35 l 2,5,6
 392 32 392 32 391 28 c 128,-1,7
 390 24 390 24 390 19 c 0,8,9
 390 0 390 0 413 0 c 2,10,-1
 491 0 l 1,11,-1
 495 19 l 1,12,-1
 410 19 l 1,13,-1
 507 506 l 1,14,-1
 486 506 l 1,15,-1
 468 413 l 1,16,-1
 465 413 l 1,17,18
 451 461 451 461 412 489.5 c 128,-1,19
 373 518 373 518 309 518 c 0,20,21
 192 518 192 518 125 416 c 0,22,23
 60 314 60 314 60 176 c 0,24,25
 60 97 60 97 102.5 42.5 c 128,-1,26
 145 -12 145 -12 223 -12 c 0,0,1
223 7 m 0,27,28
 153 7 153 7 117 56.5 c 128,-1,29
 81 106 81 106 81 176 c 0,30,31
 81 218 81 218 87 247 c 2,32,-1
 94 282 l 2,33,34
 113 382 113 382 168 440.5 c 128,-1,35
 223 499 223 499 309 499 c 0,36,37
 393 499 393 499 431 448 c 0,38,39
 457 411 457 411 457 372 c 0,40,41
 457 359 457 359 454 346 c 2,42,-1
 426 204 l 1,43,44
 398 96 398 96 333 47 c 1,45,46
 288 7 288 7 223 7 c 0,27,28
481 658 m 1,47,-1
 484 676 l 1,48,-1
 226 676 l 1,49,-1
 223 658 l 1,50,-1
 481 658 l 1,47,-1
EndSplineSet
EndChar

StartChar: Abreve
Encoding: 258 258 193
Width: 594
Flags: W
LayerCount: 2
Fore
SplineSet
519 0 m 1,0,-1
 384 698 l 1,1,-1
 354 698 l 1,2,-1
 -12 0 l 1,3,-1
 12 0 l 1,4,-1
 134 234 l 1,5,-1
 452 234 l 1,6,-1
 497 0 l 1,7,-1
 519 0 l 1,0,-1
448 253 m 1,8,-1
 144 253 l 1,9,-1
 364 673 l 1,10,-1
 367 673 l 1,11,-1
 448 253 l 1,8,-1
387 786 m 0,12,13
 440 786 440 786 470 816.5 c 128,-1,14
 500 847 500 847 532 899 c 1,15,-1
 535 903 l 1,16,-1
 519 910 l 1,17,-1
 494 874 l 2,18,19
 468 836 468 836 444.5 820.5 c 128,-1,20
 421 805 421 805 387 805 c 0,21,22
 326 805 326 805 303 873 c 1,23,-1
 288 910 l 1,24,-1
 272 903 l 1,25,26
 289 847 289 847 313.5 816.5 c 128,-1,27
 338 786 338 786 387 786 c 0,12,13
EndSplineSet
EndChar

StartChar: abreve
Encoding: 259 259 194
Width: 567
Flags: W
LayerCount: 2
Fore
SplineSet
223 -12 m 0,0,1
 287 -12 287 -12 329.5 21 c 128,-1,2
 372 54 372 54 404 111 c 1,3,-1
 407 111 l 1,4,-1
 392 35 l 2,5,6
 392 32 392 32 391 28 c 128,-1,7
 390 24 390 24 390 19 c 0,8,9
 390 0 390 0 413 0 c 2,10,-1
 491 0 l 1,11,-1
 495 19 l 1,12,-1
 410 19 l 1,13,-1
 507 506 l 1,14,-1
 486 506 l 1,15,-1
 468 413 l 1,16,-1
 465 413 l 1,17,18
 451 461 451 461 412 489.5 c 128,-1,19
 373 518 373 518 309 518 c 0,20,21
 192 518 192 518 125 416 c 0,22,23
 60 314 60 314 60 176 c 0,24,25
 60 97 60 97 102.5 42.5 c 128,-1,26
 145 -12 145 -12 223 -12 c 0,0,1
223 7 m 0,27,28
 153 7 153 7 117 56.5 c 128,-1,29
 81 106 81 106 81 176 c 0,30,31
 81 218 81 218 87 247 c 2,32,-1
 94 282 l 2,33,34
 113 382 113 382 168 440.5 c 128,-1,35
 223 499 223 499 309 499 c 0,36,37
 393 499 393 499 431 448 c 0,38,39
 457 411 457 411 457 372 c 0,40,41
 457 359 457 359 454 346 c 2,42,-1
 426 204 l 1,43,44
 398 96 398 96 333 47 c 1,45,46
 288 7 288 7 223 7 c 0,27,28
344 606 m 0,47,48
 397 606 397 606 427 636.5 c 128,-1,49
 457 667 457 667 489 719 c 1,50,-1
 492 723 l 1,51,-1
 476 730 l 1,52,-1
 451 694 l 2,53,54
 425 656 425 656 401.5 640.5 c 128,-1,55
 378 625 378 625 344 625 c 0,56,57
 283 625 283 625 260 693 c 1,58,-1
 245 730 l 1,59,-1
 229 723 l 1,60,61
 246 667 246 667 270.5 636.5 c 128,-1,62
 295 606 295 606 344 606 c 0,47,48
EndSplineSet
EndChar

StartChar: Aogonek
Encoding: 260 260 195
Width: 594
Flags: W
LayerCount: 2
Fore
SplineSet
422 -202 m 0,0,1
 475 -202 475 -202 500 -170 c 1,2,-1
 487 -159 l 1,3,4
 463 -184 463 -184 422 -184 c 0,5,6
 400 -184 400 -184 385.5 -172 c 128,-1,7
 371 -160 371 -160 371 -136 c 0,8,9
 371 -98 371 -98 406.5 -70 c 128,-1,10
 442 -42 442 -42 519 0 c 1,11,-1
 384 698 l 1,12,-1
 354 698 l 1,13,-1
 -12 0 l 1,14,-1
 12 0 l 1,15,-1
 134 234 l 1,16,-1
 452 234 l 1,17,-1
 496 0 l 1,18,19
 409 -42 409 -42 379.5 -74.5 c 128,-1,20
 350 -107 350 -107 350 -136 c 0,21,22
 350 -170 350 -170 370.5 -186 c 128,-1,23
 391 -202 391 -202 422 -202 c 0,0,1
448 253 m 1,24,-1
 144 253 l 1,25,-1
 364 673 l 1,26,-1
 367 673 l 1,27,-1
 448 253 l 1,24,-1
EndSplineSet
EndChar

StartChar: aogonek
Encoding: 261 261 196
Width: 567
Flags: W
LayerCount: 2
Fore
SplineSet
394 -202 m 0,0,1
 447 -202 447 -202 472 -170 c 1,2,-1
 459 -159 l 1,3,4
 435 -184 435 -184 394 -184 c 0,5,6
 372 -184 372 -184 357.5 -172 c 128,-1,7
 343 -160 343 -160 343 -136 c 0,8,9
 343 -98 343 -98 378.5 -70 c 128,-1,10
 414 -42 414 -42 491 0 c 1,11,-1
 495 19 l 1,12,-1
 410 19 l 1,13,-1
 507 506 l 1,14,-1
 486 506 l 1,15,-1
 468 413 l 1,16,-1
 465 413 l 1,17,18
 451 461 451 461 412 489.5 c 128,-1,19
 373 518 373 518 309 518 c 0,20,21
 192 518 192 518 125 416 c 0,22,23
 60 314 60 314 60 176 c 0,24,25
 60 97 60 97 102.5 42.5 c 128,-1,26
 145 -12 145 -12 223 -12 c 0,27,28
 287 -12 287 -12 329.5 21 c 128,-1,29
 372 54 372 54 404 111 c 1,30,-1
 407 111 l 1,31,-1
 392 35 l 2,32,33
 392 32 392 32 391 28 c 128,-1,34
 390 24 390 24 390 19 c 0,35,36
 390 0 390 0 413.5 0 c 128,-1,37
 437 0 437 0 460 0 c 1,38,-1
 461 -3 l 1,39,40
 379 -44 379 -44 350.5 -75 c 128,-1,41
 322 -106 322 -106 322 -136 c 0,42,43
 322 -170 322 -170 342.5 -186 c 128,-1,44
 363 -202 363 -202 394 -202 c 0,0,1
223 7 m 0,45,46
 153 7 153 7 117 56.5 c 128,-1,47
 81 106 81 106 81 176 c 0,48,49
 81 218 81 218 87 247 c 2,50,-1
 94 282 l 2,51,52
 113 382 113 382 168 440.5 c 128,-1,53
 223 499 223 499 309 499 c 0,54,55
 393 499 393 499 431 448 c 0,56,57
 457 411 457 411 457 372 c 0,58,59
 457 359 457 359 454 346 c 2,60,-1
 426 204 l 1,61,62
 398 96 398 96 333 47 c 1,63,64
 288 7 288 7 223 7 c 0,45,46
EndSplineSet
EndChar

StartChar: Cacute
Encoding: 262 262 197
Width: 595
Flags: W
LayerCount: 2
Fore
SplineSet
291 -12 m 0,0,1
 437 -12 437 -12 519 141 c 1,2,-1
 500 151 l 1,3,4
 461 79 461 79 411 43.5 c 128,-1,5
 361 8 361 8 291 8 c 0,6,7
 194 8 194 8 142.5 65 c 128,-1,8
 91 122 91 122 91 220 c 0,9,10
 91 279 91 279 112 384 c 0,11,12
 141 526 141 526 216 608 c 128,-1,13
 291 690 291 690 397 690 c 0,14,15
 475 690 475 690 514 655.5 c 128,-1,16
 553 621 553 621 568 564 c 1,17,-1
 589 569 l 1,18,19
 572 635 572 635 527 672.5 c 128,-1,20
 482 710 482 710 398 710 c 0,21,22
 285 710 285 710 206 627 c 0,23,24
 134 547 134 547 101 435 c 0,25,26
 69 333 69 333 69 220 c 0,27,28
 69 106 69 106 131 48 c 0,29,30
 191 -12 191 -12 291 -12 c 0,0,1
405 767 m 1,31,-1
 552 918 l 1,32,-1
 535 931 l 1,33,-1
 392 778 l 1,34,-1
 405 767 l 1,31,-1
EndSplineSet
EndChar

StartChar: cacute
Encoding: 263 263 198
Width: 479
Flags: W
LayerCount: 2
Fore
SplineSet
223 -12 m 0,0,1
 289 -12 289 -12 337.5 22 c 128,-1,2
 386 56 386 56 422 114 c 1,3,-1
 405 123 l 1,4,5
 370 69 370 69 326 38 c 128,-1,6
 282 7 282 7 223 7 c 0,7,8
 151 7 151 7 115 60 c 0,9,10
 81 106 81 106 81 186 c 0,11,12
 81 205 81 205 82.5 219 c 128,-1,13
 84 233 84 233 96 297 c 0,14,15
 114 392 114 392 168 445.5 c 128,-1,16
 222 499 222 499 299 499 c 0,17,18
 350 499 350 499 385 473 c 128,-1,19
 420 447 420 447 432 398 c 1,20,-1
 451 403 l 1,21,22
 439 455 439 455 400 486.5 c 128,-1,23
 361 518 361 518 301 518 c 0,24,25
 243 518 243 518 198 492.5 c 128,-1,26
 153 467 153 467 123 422 c 0,27,28
 61 326 61 326 61 186 c 0,29,30
 61 101 61 101 102.5 44.5 c 128,-1,31
 144 -12 144 -12 223 -12 c 0,0,1
294 587 m 1,32,-1
 441 738 l 1,33,-1
 424 751 l 1,34,-1
 281 598 l 1,35,-1
 294 587 l 1,32,-1
EndSplineSet
EndChar

StartChar: Ccircumflex
Encoding: 264 264 199
Width: 595
Flags: W
LayerCount: 2
Fore
SplineSet
291 -12 m 0,0,1
 437 -12 437 -12 519 141 c 1,2,-1
 500 151 l 1,3,4
 461 79 461 79 411 43.5 c 128,-1,5
 361 8 361 8 291 8 c 0,6,7
 194 8 194 8 142.5 65 c 128,-1,8
 91 122 91 122 91 220 c 0,9,10
 91 279 91 279 112 384 c 0,11,12
 141 526 141 526 216 608 c 128,-1,13
 291 690 291 690 397 690 c 0,14,15
 475 690 475 690 514 655.5 c 128,-1,16
 553 621 553 621 568 564 c 1,17,-1
 589 569 l 1,18,19
 572 635 572 635 527 672.5 c 128,-1,20
 482 710 482 710 398 710 c 0,21,22
 285 710 285 710 206 627 c 0,23,24
 134 547 134 547 101 435 c 0,25,26
 69 333 69 333 69 220 c 0,27,28
 69 106 69 106 131 48 c 0,29,30
 191 -12 191 -12 291 -12 c 0,0,1
545 779 m 1,31,-1
 560 789 l 1,32,-1
 454 923 l 1,33,-1
 430 923 l 1,34,-1
 280 791 l 1,35,-1
 293 779 l 1,36,-1
 441 906 l 1,37,-1
 545 779 l 1,31,-1
EndSplineSet
EndChar

StartChar: ccircumflex
Encoding: 265 265 200
Width: 479
Flags: W
LayerCount: 2
Fore
SplineSet
223 -12 m 0,0,1
 289 -12 289 -12 337.5 22 c 128,-1,2
 386 56 386 56 422 114 c 1,3,-1
 405 123 l 1,4,5
 370 69 370 69 326 38 c 128,-1,6
 282 7 282 7 223 7 c 0,7,8
 151 7 151 7 115 60 c 0,9,10
 81 106 81 106 81 186 c 0,11,12
 81 205 81 205 82.5 219 c 128,-1,13
 84 233 84 233 96 297 c 0,14,15
 114 392 114 392 168 445.5 c 128,-1,16
 222 499 222 499 299 499 c 0,17,18
 350 499 350 499 385 473 c 128,-1,19
 420 447 420 447 432 398 c 1,20,-1
 451 403 l 1,21,22
 439 455 439 455 400 486.5 c 128,-1,23
 361 518 361 518 301 518 c 0,24,25
 243 518 243 518 198 492.5 c 128,-1,26
 153 467 153 467 123 422 c 0,27,28
 61 326 61 326 61 186 c 0,29,30
 61 101 61 101 102.5 44.5 c 128,-1,31
 144 -12 144 -12 223 -12 c 0,0,1
448 599 m 1,32,-1
 463 609 l 1,33,-1
 357 743 l 1,34,-1
 333 743 l 1,35,-1
 183 611 l 1,36,-1
 196 599 l 1,37,-1
 344 726 l 1,38,-1
 448 599 l 1,32,-1
EndSplineSet
EndChar

StartChar: Cdotaccent
Encoding: 266 266 201
Width: 595
Flags: W
LayerCount: 2
Fore
SplineSet
291 -12 m 0,0,1
 437 -12 437 -12 519 141 c 1,2,-1
 500 151 l 1,3,4
 461 79 461 79 411 43.5 c 128,-1,5
 361 8 361 8 291 8 c 0,6,7
 194 8 194 8 142.5 65 c 128,-1,8
 91 122 91 122 91 220 c 0,9,10
 91 279 91 279 112 384 c 0,11,12
 141 526 141 526 216 608 c 128,-1,13
 291 690 291 690 397 690 c 0,14,15
 475 690 475 690 514 655.5 c 128,-1,16
 553 621 553 621 568 564 c 1,17,-1
 589 569 l 1,18,19
 572 635 572 635 527 672.5 c 128,-1,20
 482 710 482 710 398 710 c 0,21,22
 285 710 285 710 206 627 c 0,23,24
 134 547 134 547 101 435 c 0,25,26
 69 333 69 333 69 220 c 0,27,28
 69 106 69 106 131 48 c 0,29,30
 191 -12 191 -12 291 -12 c 0,0,1
423 822 m 0,31,32
 449 822 449 822 449 854 c 0,33,34
 449 871 449 871 429 871 c 0,35,36
 417 871 417 871 412.5 865.5 c 128,-1,37
 408 860 408 860 405.5 852.5 c 128,-1,38
 403 845 403 845 403 839 c 0,39,40
 403 822 403 822 423 822 c 0,31,32
EndSplineSet
EndChar

StartChar: cdotaccent
Encoding: 267 267 202
Width: 479
Flags: W
LayerCount: 2
Fore
SplineSet
223 -12 m 0,0,1
 289 -12 289 -12 337.5 22 c 128,-1,2
 386 56 386 56 422 114 c 1,3,-1
 405 123 l 1,4,5
 370 69 370 69 326 38 c 128,-1,6
 282 7 282 7 223 7 c 0,7,8
 151 7 151 7 115 60 c 0,9,10
 81 106 81 106 81 186 c 0,11,12
 81 205 81 205 82.5 219 c 128,-1,13
 84 233 84 233 96 297 c 0,14,15
 114 392 114 392 168 445.5 c 128,-1,16
 222 499 222 499 299 499 c 0,17,18
 350 499 350 499 385 473 c 128,-1,19
 420 447 420 447 432 398 c 1,20,-1
 451 403 l 1,21,22
 439 455 439 455 400 486.5 c 128,-1,23
 361 518 361 518 301 518 c 0,24,25
 243 518 243 518 198 492.5 c 128,-1,26
 153 467 153 467 123 422 c 0,27,28
 61 326 61 326 61 186 c 0,29,30
 61 101 61 101 102.5 44.5 c 128,-1,31
 144 -12 144 -12 223 -12 c 0,0,1
327 642 m 0,32,33
 353 642 353 642 353 674 c 0,34,35
 353 691 353 691 333 691 c 0,36,37
 321 691 321 691 316.5 685.5 c 128,-1,38
 312 680 312 680 309.5 672.5 c 128,-1,39
 307 665 307 665 307 659 c 0,40,41
 307 642 307 642 327 642 c 0,32,33
EndSplineSet
EndChar

StartChar: Ccaron
Encoding: 268 268 203
Width: 595
Flags: W
LayerCount: 2
Fore
SplineSet
291 -12 m 0,0,1
 437 -12 437 -12 519 141 c 1,2,-1
 500 151 l 1,3,4
 461 79 461 79 411 43.5 c 128,-1,5
 361 8 361 8 291 8 c 0,6,7
 194 8 194 8 142.5 65 c 128,-1,8
 91 122 91 122 91 220 c 0,9,10
 91 279 91 279 112 384 c 0,11,12
 141 526 141 526 216 608 c 128,-1,13
 291 690 291 690 397 690 c 0,14,15
 475 690 475 690 514 655.5 c 128,-1,16
 553 621 553 621 568 564 c 1,17,-1
 589 569 l 1,18,19
 572 635 572 635 527 672.5 c 128,-1,20
 482 710 482 710 398 710 c 0,21,22
 285 710 285 710 206 627 c 0,23,24
 134 547 134 547 101 435 c 0,25,26
 69 333 69 333 69 220 c 0,27,28
 69 106 69 106 131 48 c 0,29,30
 191 -12 191 -12 291 -12 c 0,0,1
428 783 m 1,31,-1
 578 915 l 1,32,-1
 565 927 l 1,33,-1
 417 800 l 1,34,-1
 313 927 l 1,35,-1
 298 917 l 1,36,-1
 404 783 l 1,37,-1
 428 783 l 1,31,-1
EndSplineSet
EndChar

StartChar: ccaron
Encoding: 269 269 204
Width: 479
Flags: W
LayerCount: 2
Fore
SplineSet
223 -12 m 0,0,1
 289 -12 289 -12 337.5 22 c 128,-1,2
 386 56 386 56 422 114 c 1,3,-1
 405 123 l 1,4,5
 370 69 370 69 326 38 c 128,-1,6
 282 7 282 7 223 7 c 0,7,8
 151 7 151 7 115 60 c 0,9,10
 81 106 81 106 81 186 c 0,11,12
 81 205 81 205 82.5 219 c 128,-1,13
 84 233 84 233 96 297 c 0,14,15
 114 392 114 392 168 445.5 c 128,-1,16
 222 499 222 499 299 499 c 0,17,18
 350 499 350 499 385 473 c 128,-1,19
 420 447 420 447 432 398 c 1,20,-1
 451 403 l 1,21,22
 439 455 439 455 400 486.5 c 128,-1,23
 361 518 361 518 301 518 c 0,24,25
 243 518 243 518 198 492.5 c 128,-1,26
 153 467 153 467 123 422 c 0,27,28
 61 326 61 326 61 186 c 0,29,30
 61 101 61 101 102.5 44.5 c 128,-1,31
 144 -12 144 -12 223 -12 c 0,0,1
329 603 m 1,32,-1
 479 735 l 1,33,-1
 466 747 l 1,34,-1
 318 620 l 1,35,-1
 214 747 l 1,36,-1
 199 737 l 1,37,-1
 305 603 l 1,38,-1
 329 603 l 1,32,-1
EndSplineSet
EndChar

StartChar: Dcaron
Encoding: 270 270 205
Width: 648
Flags: W
LayerCount: 2
Fore
SplineSet
282 0 m 2,0,1
 367 0 367 0 429.5 40.5 c 128,-1,2
 492 81 492 81 532 148.5 c 128,-1,3
 572 216 572 216 591 299.5 c 128,-1,4
 610 383 610 383 610 468 c 0,5,6
 610 577 610 577 551.5 637.5 c 128,-1,7
 493 698 493 698 378 698 c 2,8,-1
 193 698 l 1,9,-1
 55 0 l 1,10,-1
 282 0 l 2,0,1
282 20 m 2,11,-1
 81 20 l 1,12,-1
 211 678 l 1,13,-1
 375 678 l 2,14,15
 483 678 483 678 535.5 621.5 c 128,-1,16
 588 565 588 565 588 468 c 0,17,18
 588 408 588 408 567 303 c 0,19,20
 544 186 544 186 472 104 c 0,21,22
 395 20 395 20 282 20 c 2,11,-1
397 783 m 1,23,-1
 547 915 l 1,24,-1
 534 927 l 1,25,-1
 386 800 l 1,26,-1
 282 927 l 1,27,-1
 267 917 l 1,28,-1
 373 783 l 1,29,-1
 397 783 l 1,23,-1
EndSplineSet
EndChar

StartChar: dcaron
Encoding: 271 271 206
Width: 567
Flags: W
LayerCount: 2
Fore
SplineSet
223 -12 m 0,0,1
 287 -12 287 -12 329.5 21 c 128,-1,2
 372 54 372 54 404 111 c 1,3,-1
 407 111 l 1,4,-1
 392 35 l 2,5,6
 392 32 392 32 391 28 c 128,-1,7
 390 24 390 24 390 19 c 0,8,9
 390 0 390 0 413 0 c 2,10,-1
 491 0 l 1,11,-1
 495 19 l 1,12,-1
 410 19 l 1,13,-1
 554 740 l 1,14,-1
 533 740 l 1,15,-1
 468 413 l 1,16,-1
 465 413 l 1,17,18
 451 461 451 461 412 489.5 c 128,-1,19
 373 518 373 518 309 518 c 0,20,21
 192 518 192 518 125 416 c 0,22,23
 60 314 60 314 60 176 c 0,24,25
 60 97 60 97 102.5 42.5 c 128,-1,26
 145 -12 145 -12 223 -12 c 0,0,1
223 7 m 0,27,28
 153 7 153 7 117 56.5 c 128,-1,29
 81 106 81 106 81 176 c 0,30,31
 81 218 81 218 87 247 c 2,32,-1
 94 282 l 2,33,34
 113 382 113 382 168 440.5 c 128,-1,35
 223 499 223 499 309 499 c 0,36,37
 393 499 393 499 431 448 c 0,38,39
 457 411 457 411 457 372 c 0,40,41
 457 359 457 359 454 346 c 2,42,-1
 426 204 l 1,43,44
 398 96 398 96 333 47 c 1,45,46
 288 7 288 7 223 7 c 0,27,28
606 564 m 1,47,-1
 659 740 l 1,48,-1
 634 740 l 1,49,-1
 589 564 l 1,50,-1
 606 564 l 1,47,-1
EndSplineSet
EndChar

StartChar: Dcroat
Encoding: 272 272 207
Width: 651
Flags: W
LayerCount: 2
Fore
SplineSet
285 0 m 2,0,1
 370 0 370 0 432.5 40.5 c 128,-1,2
 495 81 495 81 535 148.5 c 128,-1,3
 575 216 575 216 594 299.5 c 128,-1,4
 613 383 613 383 613 468 c 0,5,6
 613 577 613 577 554.5 637.5 c 128,-1,7
 496 698 496 698 381 698 c 2,8,-1
 196 698 l 1,9,-1
 133 378 l 1,10,-1
 45 378 l 1,11,-1
 41 359 l 1,12,-1
 129 359 l 1,13,-1
 58 0 l 1,14,-1
 285 0 l 2,0,1
285 20 m 2,15,-1
 84 20 l 1,16,-1
 151 359 l 1,17,-1
 318 359 l 1,18,-1
 322 378 l 1,19,-1
 155 378 l 1,20,-1
 214 678 l 1,21,-1
 378 678 l 2,22,23
 486 678 486 678 538.5 621.5 c 128,-1,24
 591 565 591 565 591 468 c 0,25,26
 591 408 591 408 570 303 c 0,27,28
 547 186 547 186 475 104 c 0,29,30
 398 20 398 20 285 20 c 2,15,-1
EndSplineSet
EndChar

StartChar: dcroat
Encoding: 273 273 208
Width: 570
Flags: W
LayerCount: 2
Fore
SplineSet
223 -12 m 0,0,1
 287 -12 287 -12 329.5 21 c 128,-1,2
 372 54 372 54 404 111 c 1,3,-1
 407 111 l 1,4,-1
 392 35 l 2,5,6
 392 32 392 32 391 28 c 128,-1,7
 390 24 390 24 390 19 c 0,8,9
 390 0 390 0 413 0 c 2,10,-1
 491 0 l 1,11,-1
 495 19 l 1,12,-1
 410 19 l 1,13,-1
 532 629 l 1,14,-1
 598 629 l 1,15,-1
 602 647 l 1,16,-1
 535 647 l 1,17,-1
 554 740 l 1,18,-1
 533 740 l 1,19,-1
 515 647 l 1,20,-1
 352 647 l 1,21,-1
 348 629 l 1,22,-1
 511 629 l 1,23,-1
 468 413 l 1,24,-1
 465 413 l 1,25,26
 451 461 451 461 412 489.5 c 128,-1,27
 373 518 373 518 309 518 c 0,28,29
 192 518 192 518 125 416 c 0,30,31
 60 314 60 314 60 176 c 0,32,33
 60 97 60 97 102.5 42.5 c 128,-1,34
 145 -12 145 -12 223 -12 c 0,0,1
223 7 m 0,35,36
 153 7 153 7 117 56.5 c 128,-1,37
 81 106 81 106 81 176 c 0,38,39
 81 218 81 218 87 247 c 2,40,-1
 94 282 l 2,41,42
 113 382 113 382 168 440.5 c 128,-1,43
 223 499 223 499 309 499 c 0,44,45
 393 499 393 499 431 448 c 0,46,47
 457 411 457 411 457 372 c 0,48,49
 457 359 457 359 454 346 c 2,50,-1
 426 204 l 1,51,52
 398 96 398 96 333 47 c 1,53,54
 288 7 288 7 223 7 c 0,35,36
EndSplineSet
EndChar

StartChar: Emacron
Encoding: 274 274 209
Width: 553
Flags: W
LayerCount: 2
Fore
SplineSet
432 0 m 1,0,-1
 436 20 l 1,1,-1
 80 20 l 1,2,-1
 145 344 l 1,3,-1
 489 344 l 1,4,-1
 493 364 l 1,5,-1
 149 364 l 1,6,-1
 212 678 l 1,7,-1
 568 678 l 1,8,-1
 572 698 l 1,9,-1
 194 698 l 1,10,-1
 54 0 l 1,11,-1
 432 0 l 1,0,-1
536 838 m 1,12,-1
 539 856 l 1,13,-1
 281 856 l 1,14,-1
 278 838 l 1,15,-1
 536 838 l 1,12,-1
EndSplineSet
EndChar

StartChar: emacron
Encoding: 275 275 210
Width: 505
Flags: W
LayerCount: 2
Fore
SplineSet
237 -12 m 0,0,1
 371 -12 371 -12 445 124 c 1,2,-1
 426 132 l 1,3,4
 362 7 362 7 237 7 c 0,5,6
 159 7 159 7 120.5 49.5 c 128,-1,7
 82 92 82 92 82 189 c 0,8,9
 82 201 82 201 85 233 c 1,10,11
 317 239 317 239 403 293 c 0,12,13
 466 332 466 332 466 395 c 0,14,15
 466 452 466 452 423 485 c 128,-1,16
 380 518 380 518 308 518 c 0,17,18
 253 518 253 518 208 492.5 c 128,-1,19
 163 467 163 467 130 422 c 0,20,21
 61 325 61 325 61 187 c 0,22,23
 61 -12 61 -12 237 -12 c 0,0,1
87 252 m 1,24,-1
 90 269 l 2,25,26
 109 371 109 371 165.5 435 c 128,-1,27
 222 499 222 499 306 499 c 0,28,29
 379 499 379 499 411.5 470 c 128,-1,30
 444 441 444 441 444 395 c 0,31,32
 444 335 444 335 378 300 c 0,33,34
 305 258 305 258 87 252 c 1,24,-1
468 658 m 1,35,-1
 471 676 l 1,36,-1
 213 676 l 1,37,-1
 210 658 l 1,38,-1
 468 658 l 1,35,-1
EndSplineSet
EndChar

StartChar: Ebreve
Encoding: 276 276 211
Width: 553
Flags: W
LayerCount: 2
Fore
SplineSet
432 0 m 1,0,-1
 436 20 l 1,1,-1
 80 20 l 1,2,-1
 145 344 l 1,3,-1
 489 344 l 1,4,-1
 493 364 l 1,5,-1
 149 364 l 1,6,-1
 212 678 l 1,7,-1
 568 678 l 1,8,-1
 572 698 l 1,9,-1
 194 698 l 1,10,-1
 54 0 l 1,11,-1
 432 0 l 1,0,-1
398 786 m 0,12,13
 451 786 451 786 481 816.5 c 128,-1,14
 511 847 511 847 543 899 c 1,15,-1
 546 903 l 1,16,-1
 530 910 l 1,17,-1
 505 874 l 2,18,19
 479 836 479 836 455.5 820.5 c 128,-1,20
 432 805 432 805 398 805 c 0,21,22
 337 805 337 805 314 873 c 1,23,-1
 299 910 l 1,24,-1
 283 903 l 1,25,26
 300 847 300 847 324.5 816.5 c 128,-1,27
 349 786 349 786 398 786 c 0,12,13
EndSplineSet
EndChar

StartChar: ebreve
Encoding: 277 277 212
Width: 505
Flags: W
LayerCount: 2
Fore
SplineSet
237 -12 m 0,0,1
 371 -12 371 -12 445 124 c 1,2,-1
 426 132 l 1,3,4
 362 7 362 7 237 7 c 0,5,6
 159 7 159 7 120.5 49.5 c 128,-1,7
 82 92 82 92 82 189 c 0,8,9
 82 201 82 201 85 233 c 1,10,11
 317 239 317 239 403 293 c 0,12,13
 466 332 466 332 466 395 c 0,14,15
 466 452 466 452 423 485 c 128,-1,16
 380 518 380 518 308 518 c 0,17,18
 253 518 253 518 208 492.5 c 128,-1,19
 163 467 163 467 130 422 c 0,20,21
 61 325 61 325 61 187 c 0,22,23
 61 -12 61 -12 237 -12 c 0,0,1
87 252 m 1,24,-1
 90 269 l 2,25,26
 109 371 109 371 165.5 435 c 128,-1,27
 222 499 222 499 306 499 c 0,28,29
 379 499 379 499 411.5 470 c 128,-1,30
 444 441 444 441 444 395 c 0,31,32
 444 335 444 335 378 300 c 0,33,34
 305 258 305 258 87 252 c 1,24,-1
331 606 m 0,35,36
 384 606 384 606 414 636.5 c 128,-1,37
 444 667 444 667 476 719 c 1,38,-1
 479 723 l 1,39,-1
 463 730 l 1,40,-1
 438 694 l 2,41,42
 412 656 412 656 388.5 640.5 c 128,-1,43
 365 625 365 625 331 625 c 0,44,45
 270 625 270 625 247 693 c 1,46,-1
 232 730 l 1,47,-1
 216 723 l 1,48,49
 233 667 233 667 257.5 636.5 c 128,-1,50
 282 606 282 606 331 606 c 0,35,36
EndSplineSet
EndChar

StartChar: Edotaccent
Encoding: 278 278 213
Width: 553
Flags: W
LayerCount: 2
Fore
SplineSet
432 0 m 1,0,-1
 436 20 l 1,1,-1
 80 20 l 1,2,-1
 145 344 l 1,3,-1
 489 344 l 1,4,-1
 493 364 l 1,5,-1
 149 364 l 1,6,-1
 212 678 l 1,7,-1
 568 678 l 1,8,-1
 572 698 l 1,9,-1
 194 698 l 1,10,-1
 54 0 l 1,11,-1
 432 0 l 1,0,-1
405 822 m 0,12,13
 431 822 431 822 431 854 c 0,14,15
 431 871 431 871 411 871 c 0,16,17
 399 871 399 871 394.5 865.5 c 128,-1,18
 390 860 390 860 387.5 852.5 c 128,-1,19
 385 845 385 845 385 839 c 0,20,21
 385 822 385 822 405 822 c 0,12,13
EndSplineSet
EndChar

StartChar: edotaccent
Encoding: 279 279 214
Width: 505
Flags: W
LayerCount: 2
Fore
SplineSet
237 -12 m 0,0,1
 371 -12 371 -12 445 124 c 1,2,-1
 426 132 l 1,3,4
 362 7 362 7 237 7 c 0,5,6
 159 7 159 7 120.5 49.5 c 128,-1,7
 82 92 82 92 82 189 c 0,8,9
 82 201 82 201 85 233 c 1,10,11
 317 239 317 239 403 293 c 0,12,13
 466 332 466 332 466 395 c 0,14,15
 466 452 466 452 423 485 c 128,-1,16
 380 518 380 518 308 518 c 0,17,18
 253 518 253 518 208 492.5 c 128,-1,19
 163 467 163 467 130 422 c 0,20,21
 61 325 61 325 61 187 c 0,22,23
 61 -12 61 -12 237 -12 c 0,0,1
87 252 m 1,24,-1
 90 269 l 2,25,26
 109 371 109 371 165.5 435 c 128,-1,27
 222 499 222 499 306 499 c 0,28,29
 379 499 379 499 411.5 470 c 128,-1,30
 444 441 444 441 444 395 c 0,31,32
 444 335 444 335 378 300 c 0,33,34
 305 258 305 258 87 252 c 1,24,-1
338 642 m 0,35,36
 364 642 364 642 364 674 c 0,37,38
 364 691 364 691 344 691 c 0,39,40
 332 691 332 691 327.5 685.5 c 128,-1,41
 323 680 323 680 320.5 672.5 c 128,-1,42
 318 665 318 665 318 659 c 0,43,44
 318 642 318 642 338 642 c 0,35,36
EndSplineSet
EndChar

StartChar: Eogonek
Encoding: 280 280 215
Width: 553
Flags: W
LayerCount: 2
Fore
SplineSet
335 -202 m 0,0,1
 388 -202 388 -202 413 -170 c 1,2,-1
 400 -159 l 1,3,4
 376 -184 376 -184 335 -184 c 0,5,6
 313 -184 313 -184 298.5 -172 c 128,-1,7
 284 -160 284 -160 284 -136 c 0,8,9
 284 -98 284 -98 319.5 -70 c 128,-1,10
 355 -42 355 -42 432 0 c 1,11,-1
 436 20 l 1,12,-1
 80 20 l 1,13,-1
 145 344 l 1,14,-1
 489 344 l 1,15,-1
 493 364 l 1,16,-1
 149 364 l 1,17,-1
 212 678 l 1,18,-1
 568 678 l 1,19,-1
 572 698 l 1,20,-1
 194 698 l 1,21,-1
 54 0 l 1,22,-1
 401 0 l 1,23,-1
 402 -3 l 1,24,25
 320 -44 320 -44 291.5 -75 c 128,-1,26
 263 -106 263 -106 263 -136 c 0,27,28
 263 -170 263 -170 283.5 -186 c 128,-1,29
 304 -202 304 -202 335 -202 c 0,0,1
EndSplineSet
EndChar

StartChar: eogonek
Encoding: 281 281 216
Width: 505
Flags: W
LayerCount: 2
Fore
SplineSet
249 -202 m 0,0,1
 302 -202 302 -202 327 -170 c 1,2,-1
 314 -159 l 1,3,4
 290 -184 290 -184 249 -184 c 0,5,6
 227 -184 227 -184 212.5 -172 c 128,-1,7
 198 -160 198 -160 198 -136 c 0,8,9
 198 -94 198 -94 231 -62 c 128,-1,10
 264 -30 264 -30 335 10 c 0,11,12
 398 43 398 43 445 124 c 1,13,-1
 426 132 l 1,14,15
 362 7 362 7 237 7 c 0,16,17
 159 7 159 7 120.5 49.5 c 128,-1,18
 82 92 82 92 82 189 c 0,19,20
 82 201 82 201 85 233 c 1,21,22
 317 239 317 239 403 293 c 0,23,24
 466 333 466 333 466 395 c 0,25,26
 466 452 466 452 423 485 c 128,-1,27
 380 518 380 518 308 518 c 0,28,29
 253 518 253 518 208 492.5 c 128,-1,30
 163 467 163 467 130 422 c 0,31,32
 61 325 61 325 61 187 c 0,33,34
 61 -12 61 -12 237 -12 c 0,35,36
 261 -12 261 -12 285 -6 c 1,37,-1
 285 -9 l 1,38,39
 221 -43 221 -43 198 -76 c 0,40,41
 177 -110 177 -110 177 -136 c 0,42,43
 177 -170 177 -170 197.5 -186 c 128,-1,44
 218 -202 218 -202 249 -202 c 0,0,1
87 252 m 1,45,-1
 90 269 l 2,46,47
 109 371 109 371 165.5 435 c 128,-1,48
 222 499 222 499 306 499 c 0,49,50
 379 499 379 499 411.5 470 c 128,-1,51
 444 441 444 441 444 395 c 0,52,53
 444 335 444 335 378 300 c 0,54,55
 305 258 305 258 87 252 c 1,45,-1
EndSplineSet
EndChar

StartChar: Ecaron
Encoding: 282 282 217
Width: 553
Flags: W
LayerCount: 2
Fore
SplineSet
432 0 m 1,0,-1
 436 20 l 1,1,-1
 80 20 l 1,2,-1
 145 344 l 1,3,-1
 489 344 l 1,4,-1
 493 364 l 1,5,-1
 149 364 l 1,6,-1
 212 678 l 1,7,-1
 568 678 l 1,8,-1
 572 698 l 1,9,-1
 194 698 l 1,10,-1
 54 0 l 1,11,-1
 432 0 l 1,0,-1
410 783 m 1,12,-1
 560 915 l 1,13,-1
 547 927 l 1,14,-1
 399 800 l 1,15,-1
 295 927 l 1,16,-1
 280 917 l 1,17,-1
 386 783 l 1,18,-1
 410 783 l 1,12,-1
EndSplineSet
EndChar

StartChar: ecaron
Encoding: 283 283 218
Width: 505
Flags: W
LayerCount: 2
Fore
SplineSet
237 -12 m 0,0,1
 371 -12 371 -12 445 124 c 1,2,-1
 426 132 l 1,3,4
 362 7 362 7 237 7 c 0,5,6
 159 7 159 7 120.5 49.5 c 128,-1,7
 82 92 82 92 82 189 c 0,8,9
 82 201 82 201 85 233 c 1,10,11
 317 239 317 239 403 293 c 0,12,13
 466 332 466 332 466 395 c 0,14,15
 466 452 466 452 423 485 c 128,-1,16
 380 518 380 518 308 518 c 0,17,18
 253 518 253 518 208 492.5 c 128,-1,19
 163 467 163 467 130 422 c 0,20,21
 61 325 61 325 61 187 c 0,22,23
 61 -12 61 -12 237 -12 c 0,0,1
87 252 m 1,24,-1
 90 269 l 2,25,26
 109 371 109 371 165.5 435 c 128,-1,27
 222 499 222 499 306 499 c 0,28,29
 379 499 379 499 411.5 470 c 128,-1,30
 444 441 444 441 444 395 c 0,31,32
 444 335 444 335 378 300 c 0,33,34
 305 258 305 258 87 252 c 1,24,-1
340 603 m 1,35,-1
 490 735 l 1,36,-1
 477 747 l 1,37,-1
 329 620 l 1,38,-1
 225 747 l 1,39,-1
 210 737 l 1,40,-1
 316 603 l 1,41,-1
 340 603 l 1,35,-1
EndSplineSet
EndChar

StartChar: Gcircumflex
Encoding: 284 284 219
Width: 660
Flags: W
LayerCount: 2
Fore
SplineSet
295 -12 m 0,0,1
 447 -12 447 -12 522 114 c 1,2,-1
 525 114 l 1,3,-1
 502 0 l 1,4,-1
 523 0 l 1,5,-1
 589 332 l 1,6,-1
 391 332 l 1,7,-1
 387 312 l 1,8,-1
 563 312 l 1,9,-1
 541 205 l 2,10,11
 516 102 516 102 448 55 c 0,12,13
 375 8 375 8 295 8 c 0,14,15
 195 8 195 8 143 65 c 128,-1,16
 91 122 91 122 91 220 c 0,17,18
 91 279 91 279 112 384 c 0,19,20
 142 526 142 526 217.5 608 c 128,-1,21
 293 690 293 690 402 690 c 0,22,23
 487 690 487 690 530 656 c 128,-1,24
 573 622 573 622 589 564 c 1,25,-1
 610 569 l 1,26,27
 573 710 573 710 403 710 c 0,28,29
 286 710 286 710 207 627 c 0,30,31
 134 547 134 547 101 435 c 0,32,33
 69 318 69 318 69 220 c 0,34,35
 69 106 69 106 132 47 c 128,-1,36
 195 -12 195 -12 295 -12 c 0,0,1
552 779 m 1,37,-1
 567 789 l 1,38,-1
 461 923 l 1,39,-1
 437 923 l 1,40,-1
 287 791 l 1,41,-1
 300 779 l 1,42,-1
 448 906 l 1,43,-1
 552 779 l 1,37,-1
EndSplineSet
EndChar

StartChar: gcircumflex
Encoding: 285 285 220
Width: 551
Flags: W
LayerCount: 2
Fore
SplineSet
468 599 m 1,0,-1
 364 726 l 1,1,-1
 216 599 l 1,2,-1
 203 611 l 1,3,-1
 353 743 l 1,4,-1
 377 743 l 1,5,-1
 483 609 l 1,6,-1
 468 599 l 1,0,-1
174 -212 m 0,7,8
 69 -212 69 -212 18 -145 c 1,9,-1
 34 -131 l 1,10,11
 78 -193 78 -193 174 -193 c 0,12,13
 347 -193 347 -193 383 -13 c 2,14,-1
 407 111 l 1,15,-1
 404 111 l 1,16,17
 373 55 373 55 330 21.5 c 128,-1,18
 287 -12 287 -12 223 -12 c 0,19,20
 144 -12 144 -12 102 42 c 128,-1,21
 60 96 60 96 60 176 c 0,22,23
 60 268 60 268 89 346 c 128,-1,24
 118 424 118 424 173.5 471 c 128,-1,25
 229 518 229 518 309 518 c 0,26,27
 373 518 373 518 412 489 c 128,-1,28
 451 460 451 460 465 413 c 1,29,-1
 468 413 l 1,30,-1
 487 506 l 1,31,-1
 508 506 l 1,32,-1
 403 -18 l 2,33,34
 364 -212 364 -212 174 -212 c 0,7,8
223 7 m 0,35,36
 321 7 321 7 389 111 c 0,37,38
 415 151 415 151 426 204 c 2,39,-1
 454 346 l 2,40,41
 457 359 457 359 457 371 c 0,42,43
 457 393 457 393 447 421.5 c 128,-1,44
 437 450 437 450 403 474.5 c 128,-1,45
 369 499 369 499 309 499 c 0,46,47
 223 499 223 499 168.5 440.5 c 128,-1,48
 114 382 114 382 94 282 c 2,49,-1
 87 247 l 2,50,51
 81 218 81 218 81 176 c 0,52,53
 81 130 81 130 96 91.5 c 128,-1,54
 111 53 111 53 142.5 30 c 128,-1,55
 174 7 174 7 223 7 c 0,35,36
EndSplineSet
EndChar

StartChar: Gbreve
Encoding: 286 286 221
Width: 660
Flags: W
LayerCount: 2
Fore
SplineSet
295 -12 m 0,0,1
 447 -12 447 -12 522 114 c 1,2,-1
 525 114 l 1,3,-1
 502 0 l 1,4,-1
 523 0 l 1,5,-1
 589 332 l 1,6,-1
 391 332 l 1,7,-1
 387 312 l 1,8,-1
 563 312 l 1,9,-1
 541 205 l 2,10,11
 516 102 516 102 448 55 c 0,12,13
 375 8 375 8 295 8 c 0,14,15
 195 8 195 8 143 65 c 128,-1,16
 91 122 91 122 91 220 c 0,17,18
 91 279 91 279 112 384 c 0,19,20
 142 526 142 526 217.5 608 c 128,-1,21
 293 690 293 690 402 690 c 0,22,23
 487 690 487 690 530 656 c 128,-1,24
 573 622 573 622 589 564 c 1,25,-1
 610 569 l 1,26,27
 573 710 573 710 403 710 c 0,28,29
 286 710 286 710 207 627 c 0,30,31
 134 547 134 547 101 435 c 0,32,33
 69 318 69 318 69 220 c 0,34,35
 69 106 69 106 132 47 c 128,-1,36
 195 -12 195 -12 295 -12 c 0,0,1
423 786 m 0,37,38
 476 786 476 786 506 816.5 c 128,-1,39
 536 847 536 847 568 899 c 1,40,-1
 571 903 l 1,41,-1
 555 910 l 1,42,-1
 530 874 l 2,43,44
 504 836 504 836 480.5 820.5 c 128,-1,45
 457 805 457 805 423 805 c 0,46,47
 362 805 362 805 339 873 c 1,48,-1
 324 910 l 1,49,-1
 308 903 l 1,50,51
 325 847 325 847 349.5 816.5 c 128,-1,52
 374 786 374 786 423 786 c 0,37,38
EndSplineSet
EndChar

StartChar: gbreve
Encoding: 287 287 222
Width: 551
Flags: W
LayerCount: 2
Fore
SplineSet
340 606 m 0,0,1
 291 606 291 606 266.5 636.5 c 128,-1,2
 242 667 242 667 225 723 c 1,3,-1
 241 730 l 1,4,-1
 256 693 l 1,5,6
 279 625 279 625 340 625 c 0,7,8
 375 625 375 625 398 640.5 c 128,-1,9
 421 656 421 656 447 694 c 2,10,-1
 472 730 l 1,11,-1
 488 723 l 1,12,13
 454 668 454 668 423.5 637 c 128,-1,14
 393 606 393 606 340 606 c 0,0,1
174 -212 m 0,15,16
 69 -212 69 -212 18 -145 c 1,17,-1
 34 -131 l 1,18,19
 78 -193 78 -193 174 -193 c 0,20,21
 347 -193 347 -193 383 -13 c 2,22,-1
 407 111 l 1,23,-1
 404 111 l 1,24,25
 373 55 373 55 330 21.5 c 128,-1,26
 287 -12 287 -12 223 -12 c 0,27,28
 144 -12 144 -12 102 42 c 128,-1,29
 60 96 60 96 60 176 c 0,30,31
 60 268 60 268 89 346 c 128,-1,32
 118 424 118 424 173.5 471 c 128,-1,33
 229 518 229 518 309 518 c 0,34,35
 373 518 373 518 412 489 c 128,-1,36
 451 460 451 460 465 413 c 1,37,-1
 468 413 l 1,38,-1
 487 506 l 1,39,-1
 508 506 l 1,40,-1
 403 -18 l 2,41,42
 364 -212 364 -212 174 -212 c 0,15,16
223 7 m 0,43,44
 321 7 321 7 389 111 c 0,45,46
 415 151 415 151 426 204 c 2,47,-1
 454 346 l 2,48,49
 457 359 457 359 457 371 c 0,50,51
 457 393 457 393 447 421.5 c 128,-1,52
 437 450 437 450 403 474.5 c 128,-1,53
 369 499 369 499 309 499 c 0,54,55
 223 499 223 499 168.5 440.5 c 128,-1,56
 114 382 114 382 94 282 c 2,57,-1
 87 247 l 2,58,59
 81 218 81 218 81 176 c 0,60,61
 81 130 81 130 96 91.5 c 128,-1,62
 111 53 111 53 142.5 30 c 128,-1,63
 174 7 174 7 223 7 c 0,43,44
EndSplineSet
EndChar

StartChar: Gdotaccent
Encoding: 288 288 223
Width: 660
Flags: W
LayerCount: 2
Fore
SplineSet
295 -12 m 0,0,1
 447 -12 447 -12 522 114 c 1,2,-1
 525 114 l 1,3,-1
 502 0 l 1,4,-1
 523 0 l 1,5,-1
 589 332 l 1,6,-1
 391 332 l 1,7,-1
 387 312 l 1,8,-1
 563 312 l 1,9,-1
 541 205 l 2,10,11
 516 102 516 102 448 55 c 0,12,13
 375 8 375 8 295 8 c 0,14,15
 195 8 195 8 143 65 c 128,-1,16
 91 122 91 122 91 220 c 0,17,18
 91 279 91 279 112 384 c 0,19,20
 142 526 142 526 217.5 608 c 128,-1,21
 293 690 293 690 402 690 c 0,22,23
 487 690 487 690 530 656 c 128,-1,24
 573 622 573 622 589 564 c 1,25,-1
 610 569 l 1,26,27
 573 710 573 710 403 710 c 0,28,29
 286 710 286 710 207 627 c 0,30,31
 134 547 134 547 101 435 c 0,32,33
 69 318 69 318 69 220 c 0,34,35
 69 106 69 106 132 47 c 128,-1,36
 195 -12 195 -12 295 -12 c 0,0,1
430 822 m 0,37,38
 456 822 456 822 456 854 c 0,39,40
 456 871 456 871 436 871 c 0,41,42
 424 871 424 871 419.5 865.5 c 128,-1,43
 415 860 415 860 412.5 852.5 c 128,-1,44
 410 845 410 845 410 839 c 0,45,46
 410 822 410 822 430 822 c 0,37,38
EndSplineSet
EndChar

StartChar: gdotaccent
Encoding: 289 289 224
Width: 551
Flags: W
LayerCount: 2
Fore
SplineSet
347 642 m 0,0,1
 327 642 327 642 327 659 c 0,2,3
 327 667 327 667 329.5 674 c 128,-1,4
 332 681 332 681 336.5 686 c 128,-1,5
 341 691 341 691 353 691 c 0,6,7
 373 691 373 691 373 674 c 0,8,9
 373 667 373 667 370.5 659.5 c 128,-1,10
 368 652 368 652 363.5 647 c 128,-1,11
 359 642 359 642 347 642 c 0,0,1
174 -212 m 0,12,13
 69 -212 69 -212 18 -145 c 1,14,-1
 34 -131 l 1,15,16
 78 -193 78 -193 174 -193 c 0,17,18
 347 -193 347 -193 383 -13 c 2,19,-1
 407 111 l 1,20,-1
 404 111 l 1,21,22
 373 55 373 55 330 21.5 c 128,-1,23
 287 -12 287 -12 223 -12 c 0,24,25
 144 -12 144 -12 102 42 c 128,-1,26
 60 96 60 96 60 176 c 0,27,28
 60 268 60 268 89 346 c 128,-1,29
 118 424 118 424 173.5 471 c 128,-1,30
 229 518 229 518 309 518 c 0,31,32
 373 518 373 518 412 489 c 128,-1,33
 451 460 451 460 465 413 c 1,34,-1
 468 413 l 1,35,-1
 487 506 l 1,36,-1
 508 506 l 1,37,-1
 403 -18 l 2,38,39
 364 -212 364 -212 174 -212 c 0,12,13
223 7 m 0,40,41
 321 7 321 7 389 111 c 0,42,43
 415 151 415 151 426 204 c 2,44,-1
 454 346 l 2,45,46
 457 359 457 359 457 371 c 0,47,48
 457 393 457 393 447 421.5 c 128,-1,49
 437 450 437 450 403 474.5 c 128,-1,50
 369 499 369 499 309 499 c 0,51,52
 223 499 223 499 168.5 440.5 c 128,-1,53
 114 382 114 382 94 282 c 2,54,-1
 87 247 l 2,55,56
 81 218 81 218 81 176 c 0,57,58
 81 130 81 130 96 91.5 c 128,-1,59
 111 53 111 53 142.5 30 c 128,-1,60
 174 7 174 7 223 7 c 0,40,41
EndSplineSet
EndChar

StartChar: u0122
Encoding: 290 290 225
Width: 660
Flags: W
LayerCount: 2
Fore
SplineSet
295 -12 m 0,0,1
 447 -12 447 -12 522 114 c 1,2,-1
 525 114 l 1,3,-1
 502 0 l 1,4,-1
 523 0 l 1,5,-1
 589 332 l 1,6,-1
 391 332 l 1,7,-1
 387 312 l 1,8,-1
 563 312 l 1,9,-1
 541 205 l 2,10,11
 516 102 516 102 448 55 c 0,12,13
 375 8 375 8 295 8 c 0,14,15
 195 8 195 8 143 65 c 128,-1,16
 91 122 91 122 91 220 c 0,17,18
 91 279 91 279 112 384 c 0,19,20
 142 526 142 526 217.5 608 c 128,-1,21
 293 690 293 690 402 690 c 0,22,23
 487 690 487 690 530 656 c 128,-1,24
 573 622 573 622 589 564 c 1,25,-1
 610 569 l 1,26,27
 573 710 573 710 403 710 c 0,28,29
 286 710 286 710 207 627 c 0,30,31
 134 547 134 547 101 435 c 0,32,33
 69 318 69 318 69 220 c 0,34,35
 69 106 69 106 132 47 c 128,-1,36
 195 -12 195 -12 295 -12 c 0,0,1
242 -212 m 1,37,38
 266 -186 266 -186 282 -154.5 c 128,-1,39
 298 -123 298 -123 302 -99 c 2,40,-1
 303 -94 l 1,41,-1
 304 -82 l 2,42,43
 304 -66 304 -66 283 -66 c 0,44,45
 270 -66 270 -66 264.5 -71.5 c 128,-1,46
 259 -77 259 -77 257 -85 c 128,-1,47
 255 -93 255 -93 255 -99 c 0,48,49
 255 -115 255 -115 280 -115 c 1,50,51
 270 -155 270 -155 224 -212 c 1,52,-1
 242 -212 l 1,37,38
EndSplineSet
EndChar

StartChar: u0123
Encoding: 291 291 226
Width: 551
Flags: W
LayerCount: 2
Fore
SplineSet
338 599 m 0,0,1
 317 599 317 599 317 615 c 0,2,3
 317 644 317 644 340 688 c 0,4,5
 356 719 356 719 379 745 c 1,6,-1
 397 745 l 1,7,8
 351 688 351 688 341 648 c 1,9,10
 366 648 366 648 366 632 c 0,11,12
 366 626 366 626 364 616 c 0,13,14
 361 599 361 599 338 599 c 0,0,1
174 -212 m 0,15,16
 69 -212 69 -212 18 -145 c 1,17,-1
 34 -131 l 1,18,19
 78 -193 78 -193 174 -193 c 0,20,21
 347 -193 347 -193 383 -13 c 2,22,-1
 407 111 l 1,23,-1
 404 111 l 1,24,25
 373 55 373 55 330 21.5 c 128,-1,26
 287 -12 287 -12 223 -12 c 0,27,28
 144 -12 144 -12 102 42 c 128,-1,29
 60 96 60 96 60 176 c 0,30,31
 60 268 60 268 89 346 c 128,-1,32
 118 424 118 424 173.5 471 c 128,-1,33
 229 518 229 518 309 518 c 0,34,35
 373 518 373 518 412 489 c 128,-1,36
 451 460 451 460 465 413 c 1,37,-1
 468 413 l 1,38,-1
 487 506 l 1,39,-1
 508 506 l 1,40,-1
 403 -18 l 2,41,42
 364 -212 364 -212 174 -212 c 0,15,16
223 7 m 0,43,44
 321 7 321 7 389 111 c 0,45,46
 415 151 415 151 426 204 c 2,47,-1
 454 346 l 2,48,49
 457 359 457 359 457 371 c 0,50,51
 457 393 457 393 447 421.5 c 128,-1,52
 437 450 437 450 403 474.5 c 128,-1,53
 369 499 369 499 309 499 c 0,54,55
 223 499 223 499 168.5 440.5 c 128,-1,56
 114 382 114 382 94 282 c 2,57,-1
 87 247 l 2,58,59
 81 218 81 218 81 176 c 0,60,61
 81 130 81 130 96 91.5 c 128,-1,62
 111 53 111 53 142.5 30 c 128,-1,63
 174 7 174 7 223 7 c 0,43,44
EndSplineSet
EndChar

StartChar: Hcircumflex
Encoding: 292 292 227
Width: 680
Flags: W
LayerCount: 2
Fore
SplineSet
524 0 m 1,0,-1
 664 698 l 1,1,-1
 642 698 l 1,2,-1
 575 364 l 1,3,-1
 149 364 l 1,4,-1
 216 698 l 1,5,-1
 194 698 l 1,6,-1
 54 0 l 1,7,-1
 76 0 l 1,8,-1
 145 344 l 1,9,-1
 571 344 l 1,10,-1
 502 0 l 1,11,-1
 524 0 l 1,0,-1
576 779 m 1,12,-1
 591 789 l 1,13,-1
 485 923 l 1,14,-1
 461 923 l 1,15,-1
 311 791 l 1,16,-1
 324 779 l 1,17,-1
 472 906 l 1,18,-1
 576 779 l 1,12,-1
EndSplineSet
EndChar

StartChar: hcircumflex
Encoding: 293 293 228
Width: 549
Flags: W
LayerCount: 2
Fore
SplineSet
482 0 m 1,0,-1
 486 19 l 1,1,-1
 401 19 l 1,2,-1
 461 321 l 2,3,4
 468 356 468 356 468 386 c 0,5,6
 468 449 468 449 434 483.5 c 128,-1,7
 400 518 400 518 336 518 c 0,8,9
 273 518 273 518 230.5 488 c 128,-1,10
 188 458 188 458 158 401 c 1,11,-1
 155 401 l 1,12,-1
 222 740 l 1,13,-1
 201 740 l 1,14,-1
 54 0 l 1,15,-1
 75 0 l 1,16,-1
 137 312 l 2,17,18
 153 384 153 384 200 437 c 0,19,20
 254 499 254 499 333 499 c 0,21,22
 447 499 447 499 447 383 c 0,23,24
 447 361 447 361 440 320 c 0,25,26
 381 25 381 25 381 19 c 0,27,28
 381 0 381 0 404 0 c 2,29,-1
 482 0 l 1,0,-1
344 747 m 1,30,-1
 359 757 l 1,31,-1
 253 891 l 1,32,-1
 229 891 l 1,33,-1
 79 759 l 1,34,-1
 92 747 l 1,35,-1
 240 874 l 1,36,-1
 344 747 l 1,30,-1
EndSplineSet
EndChar

StartChar: Hbar
Encoding: 294 294 229
Width: 686
Flags: W
LayerCount: 2
Fore
SplineSet
527 0 m 1,0,-1
 635 537 l 1,1,-1
 718 537 l 1,2,-1
 722 556 l 1,3,-1
 639 556 l 1,4,-1
 667 698 l 1,5,-1
 645 698 l 1,6,-1
 617 556 l 1,7,-1
 191 556 l 1,8,-1
 219 698 l 1,9,-1
 197 698 l 1,10,-1
 169 556 l 1,11,-1
 86 556 l 1,12,-1
 82 537 l 1,13,-1
 165 537 l 1,14,-1
 57 0 l 1,15,-1
 79 0 l 1,16,-1
 148 344 l 1,17,-1
 574 344 l 1,18,-1
 505 0 l 1,19,-1
 527 0 l 1,0,-1
578 364 m 1,20,-1
 152 364 l 1,21,-1
 187 537 l 1,22,-1
 613 537 l 1,23,-1
 578 364 l 1,20,-1
EndSplineSet
EndChar

StartChar: hbar
Encoding: 295 295 230
Width: 552
Flags: W
LayerCount: 2
Fore
SplineSet
485 0 m 1,0,-1
 489 19 l 1,1,-1
 404 19 l 1,2,-1
 464 321 l 2,3,4
 471 356 471 356 471 386 c 0,5,6
 471 449 471 449 437 483.5 c 128,-1,7
 403 518 403 518 339 518 c 0,8,9
 276 518 276 518 233.5 488 c 128,-1,10
 191 458 191 458 161 401 c 1,11,-1
 158 401 l 1,12,-1
 203 629 l 1,13,-1
 365 629 l 1,14,-1
 369 647 l 1,15,-1
 207 647 l 1,16,-1
 225 740 l 1,17,-1
 204 740 l 1,18,-1
 186 647 l 1,19,-1
 119 647 l 1,20,-1
 115 629 l 1,21,-1
 182 629 l 1,22,-1
 57 0 l 1,23,-1
 78 0 l 1,24,-1
 140 312 l 2,25,26
 156 384 156 384 203 437 c 0,27,28
 257 499 257 499 336 499 c 0,29,30
 450 499 450 499 450 383 c 0,31,32
 450 361 450 361 443 320 c 0,33,34
 384 25 384 25 384 19 c 0,35,36
 384 0 384 0 407 0 c 2,37,-1
 485 0 l 1,0,-1
EndSplineSet
EndChar

StartChar: Itilde
Encoding: 296 296 231
Width: 232
Flags: W
LayerCount: 2
Fore
SplineSet
288 808 m 0,0,1
 330 808 330 808 373 847 c 1,2,-1
 362 859 l 1,3,4
 328 826 328 826 293 826 c 0,5,6
 276 826 276 826 261.5 832.5 c 128,-1,7
 247 839 247 839 229 852 c 0,8,9
 207 868 207 868 192 875 c 128,-1,10
 177 882 177 882 157 882 c 0,11,12
 115 882 115 882 72 843 c 1,13,-1
 83 831 l 1,14,15
 121 864 121 864 152 864 c 0,16,17
 169 864 169 864 183.5 858 c 128,-1,18
 198 852 198 852 216 839 c 0,19,20
 239 823 239 823 253.5 815.5 c 128,-1,21
 268 808 268 808 288 808 c 0,0,1
76 0 m 1,22,-1
 216 698 l 1,23,-1
 194 698 l 1,24,-1
 54 0 l 1,25,-1
 76 0 l 1,22,-1
EndSplineSet
EndChar

StartChar: itilde
Encoding: 297 297 232
Width: 235
Flags: W
LayerCount: 2
Fore
SplineSet
159 0 m 1,0,-1
 163 19 l 1,1,-1
 78 19 l 1,2,-1
 176 506 l 1,3,-1
 155 506 l 1,4,5
 58 25 58 25 58 19 c 0,6,7
 58 0 58 0 81 0 c 2,8,-1
 159 0 l 1,0,-1
262 628 m 0,9,10
 304 628 304 628 347 667 c 1,11,-1
 336 679 l 1,12,13
 302 646 302 646 267 646 c 0,14,15
 250 646 250 646 235.5 652.5 c 128,-1,16
 221 659 221 659 203 672 c 0,17,18
 181 688 181 688 166 695 c 128,-1,19
 151 702 151 702 131 702 c 0,20,21
 89 702 89 702 46 663 c 1,22,-1
 57 651 l 1,23,24
 95 684 95 684 126 684 c 0,25,26
 143 684 143 684 157.5 678 c 128,-1,27
 172 672 172 672 190 659 c 0,28,29
 213 643 213 643 227.5 635.5 c 128,-1,30
 242 628 242 628 262 628 c 0,9,10
EndSplineSet
EndChar

StartChar: Imacron
Encoding: 298 298 233
Width: 232
Flags: W
LayerCount: 2
Fore
SplineSet
361 838 m 1,0,-1
 364 856 l 1,1,-1
 106 856 l 1,2,-1
 103 838 l 1,3,-1
 361 838 l 1,0,-1
76 0 m 1,4,-1
 216 698 l 1,5,-1
 194 698 l 1,6,-1
 54 0 l 1,7,-1
 76 0 l 1,4,-1
EndSplineSet
EndChar

StartChar: imacron
Encoding: 299 299 234
Width: 235
Flags: W
LayerCount: 2
Fore
SplineSet
159 0 m 1,0,-1
 163 19 l 1,1,-1
 78 19 l 1,2,-1
 176 506 l 1,3,-1
 155 506 l 1,4,5
 58 25 58 25 58 19 c 0,6,7
 58 0 58 0 81 0 c 2,8,-1
 159 0 l 1,0,-1
324 658 m 1,9,-1
 327 676 l 1,10,-1
 69 676 l 1,11,-1
 66 658 l 1,12,-1
 324 658 l 1,9,-1
EndSplineSet
EndChar

StartChar: Ibreve
Encoding: 300 300 235
Width: 232
Flags: W
LayerCount: 2
Fore
SplineSet
223 786 m 0,0,1
 276 786 276 786 306 816.5 c 128,-1,2
 336 847 336 847 368 899 c 1,3,-1
 371 903 l 1,4,-1
 355 910 l 1,5,-1
 330 874 l 2,6,7
 304 836 304 836 280.5 820.5 c 128,-1,8
 257 805 257 805 223 805 c 0,9,10
 162 805 162 805 139 873 c 1,11,-1
 124 910 l 1,12,-1
 108 903 l 1,13,14
 125 847 125 847 149.5 816.5 c 128,-1,15
 174 786 174 786 223 786 c 0,0,1
76 0 m 1,16,-1
 216 698 l 1,17,-1
 194 698 l 1,18,-1
 54 0 l 1,19,-1
 76 0 l 1,16,-1
EndSplineSet
EndChar

StartChar: ibreve
Encoding: 301 301 236
Width: 235
Flags: W
LayerCount: 2
Fore
SplineSet
159 0 m 1,0,-1
 163 19 l 1,1,-1
 78 19 l 1,2,-1
 176 506 l 1,3,-1
 155 506 l 1,4,5
 58 25 58 25 58 19 c 0,6,7
 58 0 58 0 81 0 c 2,8,-1
 159 0 l 1,0,-1
187 606 m 0,9,10
 240 606 240 606 270 636.5 c 128,-1,11
 300 667 300 667 332 719 c 1,12,-1
 335 723 l 1,13,-1
 319 730 l 1,14,-1
 294 694 l 2,15,16
 268 656 268 656 244.5 640.5 c 128,-1,17
 221 625 221 625 187 625 c 0,18,19
 126 625 126 625 103 693 c 1,20,-1
 88 730 l 1,21,-1
 72 723 l 1,22,23
 89 667 89 667 113.5 636.5 c 128,-1,24
 138 606 138 606 187 606 c 0,9,10
EndSplineSet
EndChar

StartChar: Iogonek
Encoding: 302 302 237
Width: 232
Flags: W
LayerCount: 2
Fore
SplineSet
-21 -202 m 0,0,1
 32 -202 32 -202 57 -170 c 1,2,-1
 44 -159 l 1,3,4
 20 -184 20 -184 -21 -184 c 0,5,6
 -43 -184 -43 -184 -57.5 -172 c 128,-1,7
 -72 -160 -72 -160 -72 -136 c 0,8,9
 -72 -98 -72 -98 -36.5 -70 c 128,-1,10
 -1 -42 -1 -42 76 0 c 1,11,-1
 216 698 l 1,12,-1
 194 698 l 1,13,-1
 54 0 l 1,14,15
 -34 -42 -34 -42 -63.5 -74.5 c 128,-1,16
 -93 -107 -93 -107 -93 -136 c 0,17,18
 -93 -170 -93 -170 -72.5 -186 c 128,-1,19
 -52 -202 -52 -202 -21 -202 c 0,0,1
EndSplineSet
EndChar

StartChar: iogonek
Encoding: 303 303 238
Width: 235
Flags: W
LayerCount: 2
Fore
SplineSet
62 -202 m 0,0,1
 115 -202 115 -202 140 -170 c 1,2,-1
 127 -159 l 1,3,4
 103 -184 103 -184 62 -184 c 0,5,6
 40 -184 40 -184 25.5 -172 c 128,-1,7
 11 -160 11 -160 11 -136 c 0,8,9
 11 -98 11 -98 46.5 -70 c 128,-1,10
 82 -42 82 -42 159 0 c 1,11,-1
 163 19 l 1,12,-1
 78 19 l 1,13,-1
 176 506 l 1,14,-1
 155 506 l 1,15,16
 58 25 58 25 58 19 c 0,17,18
 58 0 58 0 81.5 0 c 128,-1,19
 105 0 105 0 128 0 c 1,20,-1
 129 -3 l 1,21,22
 47 -44 47 -44 18.5 -75 c 128,-1,23
 -10 -106 -10 -106 -10 -136 c 0,24,25
 -10 -170 -10 -170 10.5 -186 c 128,-1,26
 31 -202 31 -202 62 -202 c 0,0,1
200 673 m 0,27,28
 226 673 226 673 227 692 c 0,29,30
 228 696 228 696 228.5 699 c 128,-1,31
 229 702 229 702 229 706 c 0,32,33
 229 722 229 722 209 722 c 0,34,35
 184 722 184 722 182 703 c 0,36,37
 181 699 181 699 180.5 696 c 128,-1,38
 180 693 180 693 180 689 c 0,39,40
 180 673 180 673 200 673 c 0,27,28
EndSplineSet
EndChar

StartChar: Idotaccent
Encoding: 304 304 239
Width: 232
Flags: W
LayerCount: 2
Fore
SplineSet
230 822 m 0,0,1
 256 822 256 822 256 854 c 0,2,3
 256 871 256 871 236 871 c 0,4,5
 224 871 224 871 219.5 865.5 c 128,-1,6
 215 860 215 860 212.5 852.5 c 128,-1,7
 210 845 210 845 210 839 c 0,8,9
 210 822 210 822 230 822 c 0,0,1
76 0 m 1,10,-1
 216 698 l 1,11,-1
 194 698 l 1,12,-1
 54 0 l 1,13,-1
 76 0 l 1,10,-1
EndSplineSet
EndChar

StartChar: dotlessi
Encoding: 305 305 240
Width: 235
Flags: W
LayerCount: 2
Fore
SplineSet
159 0 m 1,0,-1
 163 19 l 1,1,-1
 78 19 l 1,2,-1
 176 506 l 1,3,-1
 155 506 l 1,4,5
 58 25 58 25 58 19 c 0,6,7
 58 0 58 0 81 0 c 2,8,-1
 159 0 l 1,0,-1
EndSplineSet
EndChar

StartChar: ij
Encoding: 307 307 242
Width: 465
Flags: W
LayerCount: 2
Fore
SplineSet
200 673 m 0,0,1
 226 673 226 673 227 692 c 0,2,3
 228 696 228 696 228.5 699 c 128,-1,4
 229 702 229 702 229 706 c 0,5,6
 229 722 229 722 209 722 c 0,7,8
 184 722 184 722 182 703 c 0,9,10
 181 699 181 699 180.5 696 c 128,-1,11
 180 693 180 693 180 689 c 0,12,13
 180 673 180 673 200 673 c 0,0,1
159 0 m 1,14,-1
 163 19 l 1,15,-1
 78 19 l 1,16,-1
 176 506 l 1,17,-1
 155 506 l 1,18,19
 58 25 58 25 58 19 c 0,20,21
 58 0 58 0 81 0 c 2,22,-1
 159 0 l 1,14,-1
236 -200 m 2,23,24
 257 -200 257 -200 265.5 -193.5 c 128,-1,25
 274 -187 274 -187 277 -167 c 2,26,-1
 411 506 l 1,27,-1
 390 506 l 1,28,-1
 253 -181 l 1,29,-1
 168 -181 l 1,30,-1
 164 -200 l 1,31,-1
 236 -200 l 2,23,24
435 673 m 0,32,33
 461 673 461 673 462 692 c 0,34,35
 463 696 463 696 463.5 699 c 128,-1,36
 464 702 464 702 464 706 c 0,37,38
 464 722 464 722 444 722 c 0,39,40
 419 722 419 722 417 703 c 0,41,42
 416 699 416 699 415.5 696 c 128,-1,43
 415 693 415 693 415 689 c 0,44,45
 415 673 415 673 435 673 c 0,32,33
EndSplineSet
EndChar

StartChar: Jcircumflex
Encoding: 308 308 243
Width: 455
Flags: W
LayerCount: 2
Fore
SplineSet
440 779 m 1,0,-1
 336 906 l 1,1,-1
 188 779 l 1,2,-1
 175 791 l 1,3,-1
 325 923 l 1,4,-1
 349 923 l 1,5,-1
 455 789 l 1,6,-1
 440 779 l 1,0,-1
142 -12 m 0,7,8
 69 -12 69 -12 30 24.5 c 128,-1,9
 -9 61 -9 61 -14 118 c 1,10,-1
 6 123 l 1,11,12
 12 65 12 65 48 36.5 c 128,-1,13
 84 8 84 8 142 8 c 0,14,15
 285 8 285 8 322 184 c 2,16,-1
 425 698 l 1,17,-1
 446 698 l 1,18,-1
 343 178 l 2,19,20
 324 86 324 86 272 37 c 128,-1,21
 220 -12 220 -12 142 -12 c 0,7,8
EndSplineSet
EndChar

StartChar: jcircumflex
Encoding: 309 309 244
Width: 229
Flags: W
LayerCount: 2
Fore
SplineSet
0 -200 m 2,0,1
 21 -200 21 -200 29.5 -193.5 c 128,-1,2
 38 -187 38 -187 41 -167 c 2,3,-1
 175 506 l 1,4,-1
 154 506 l 1,5,-1
 17 -181 l 1,6,-1
 -68 -181 l 1,7,-1
 -72 -200 l 1,8,-1
 0 -200 l 2,0,1
315 599 m 1,9,-1
 330 609 l 1,10,-1
 224 743 l 1,11,-1
 200 743 l 1,12,-1
 50 611 l 1,13,-1
 63 599 l 1,14,-1
 211 726 l 1,15,-1
 315 599 l 1,9,-1
EndSplineSet
EndChar

StartChar: u0136
Encoding: 310 310 245
Width: 564
Flags: W
LayerCount: 2
Fore
SplineSet
497 0 m 1,0,-1
 307 402 l 1,1,-1
 633 698 l 1,2,-1
 604 698 l 1,3,4
 368 485 368 485 134 271 c 1,5,-1
 131 271 l 1,6,-1
 216 698 l 1,7,-1
 194 698 l 1,8,-1
 54 0 l 1,9,-1
 76 0 l 1,10,-1
 125 237 l 1,11,-1
 290 388 l 1,12,-1
 474 0 l 1,13,-1
 497 0 l 1,0,-1
209 -212 m 1,14,15
 233 -186 233 -186 249 -154.5 c 128,-1,16
 265 -123 265 -123 269 -99 c 2,17,-1
 270 -94 l 1,18,-1
 271 -82 l 2,19,20
 271 -66 271 -66 250 -66 c 0,21,22
 237 -66 237 -66 231.5 -71.5 c 128,-1,23
 226 -77 226 -77 224 -85 c 128,-1,24
 222 -93 222 -93 222 -99 c 0,25,26
 222 -115 222 -115 247 -115 c 1,27,28
 237 -155 237 -155 191 -212 c 1,29,-1
 209 -212 l 1,14,15
EndSplineSet
EndChar

StartChar: u0137
Encoding: 311 311 246
Width: 479
Flags: W
LayerCount: 2
Fore
SplineSet
431 0 m 1,0,-1
 435 19 l 1,1,-1
 378 19 l 1,2,-1
 237 292 l 1,3,-1
 480 506 l 1,4,-1
 453 506 l 1,5,-1
 234 315 l 1,6,-1
 122 221 l 1,7,-1
 118 221 l 1,8,-1
 222 740 l 1,9,-1
 201 740 l 1,10,-1
 53 0 l 1,11,-1
 74 0 l 1,12,-1
 112 189 l 1,13,-1
 221 280 l 1,14,-1
 354 21 l 2,15,16
 360 10 360 10 366 5 c 128,-1,17
 372 0 372 0 383 0 c 2,18,-1
 431 0 l 1,0,-1
174 -212 m 1,19,20
 198 -186 198 -186 214 -154.5 c 128,-1,21
 230 -123 230 -123 234 -99 c 2,22,-1
 235 -94 l 1,23,-1
 236 -82 l 2,24,25
 236 -66 236 -66 215 -66 c 0,26,27
 202 -66 202 -66 196.5 -71.5 c 128,-1,28
 191 -77 191 -77 189 -85 c 128,-1,29
 187 -93 187 -93 187 -99 c 0,30,31
 187 -115 187 -115 212 -115 c 1,32,33
 202 -155 202 -155 156 -212 c 1,34,-1
 174 -212 l 1,19,20
EndSplineSet
EndChar

StartChar: kgreenlandic
Encoding: 312 312 247
Width: 471
Flags: W
LayerCount: 2
Fore
SplineSet
423 0 m 1,0,-1
 427 19 l 1,1,-1
 370 19 l 1,2,-1
 235 281 l 1,3,-1
 487 506 l 1,4,-1
 460 506 l 1,5,-1
 232 304 l 1,6,-1
 120 210 l 1,7,-1
 116 210 l 1,8,-1
 175 506 l 1,9,-1
 154 506 l 1,10,-1
 53 0 l 1,11,-1
 74 0 l 1,12,-1
 110 178 l 1,13,-1
 218 268 l 1,14,-1
 345 21 l 2,15,16
 351 10 351 10 357 5 c 128,-1,17
 363 0 363 0 374 0 c 2,18,-1
 423 0 l 1,0,-1
EndSplineSet
EndChar

StartChar: Lacute
Encoding: 313 313 248
Width: 468
Flags: W
LayerCount: 2
Fore
SplineSet
401 0 m 1,0,-1
 405 20 l 1,1,-1
 80 20 l 1,2,-1
 216 698 l 1,3,-1
 194 698 l 1,4,-1
 54 0 l 1,5,-1
 401 0 l 1,0,-1
221 767 m 1,6,-1
 368 918 l 1,7,-1
 351 931 l 1,8,-1
 208 778 l 1,9,-1
 221 767 l 1,6,-1
EndSplineSet
EndChar

StartChar: lacute
Encoding: 314 314 249
Width: 235
Flags: W
LayerCount: 2
Fore
SplineSet
159 0 m 1,0,-1
 163 19 l 1,1,-1
 78 19 l 1,2,-1
 222 740 l 1,3,-1
 201 740 l 1,4,5
 58 25 58 25 58 19 c 0,6,7
 58 0 58 0 81 0 c 2,8,-1
 159 0 l 1,0,-1
200 787 m 1,9,-1
 347 938 l 1,10,-1
 330 951 l 1,11,-1
 187 798 l 1,12,-1
 200 787 l 1,9,-1
EndSplineSet
EndChar

StartChar: u013B
Encoding: 315 315 250
Width: 468
Flags: W
LayerCount: 2
Fore
SplineSet
401 0 m 1,0,-1
 405 20 l 1,1,-1
 80 20 l 1,2,-1
 216 698 l 1,3,-1
 194 698 l 1,4,-1
 54 0 l 1,5,-1
 401 0 l 1,0,-1
178 -212 m 1,6,7
 202 -186 202 -186 218 -154.5 c 128,-1,8
 234 -123 234 -123 238 -99 c 2,9,-1
 239 -94 l 1,10,-1
 240 -82 l 2,11,12
 240 -66 240 -66 219 -66 c 0,13,14
 206 -66 206 -66 200.5 -71.5 c 128,-1,15
 195 -77 195 -77 193 -85 c 128,-1,16
 191 -93 191 -93 191 -99 c 0,17,18
 191 -115 191 -115 216 -115 c 1,19,20
 206 -155 206 -155 160 -212 c 1,21,-1
 178 -212 l 1,6,7
EndSplineSet
EndChar

StartChar: u013C
Encoding: 316 316 251
Width: 235
Flags: W
LayerCount: 2
Fore
SplineSet
159 0 m 1,0,-1
 163 19 l 1,1,-1
 78 19 l 1,2,-1
 222 740 l 1,3,-1
 201 740 l 1,4,5
 58 25 58 25 58 19 c 0,6,7
 58 0 58 0 81 0 c 2,8,-1
 159 0 l 1,0,-1
49 -212 m 1,9,10
 73 -186 73 -186 89 -154.5 c 128,-1,11
 105 -123 105 -123 109 -99 c 2,12,-1
 110 -94 l 1,13,-1
 111 -82 l 2,14,15
 111 -66 111 -66 90 -66 c 0,16,17
 77 -66 77 -66 71.5 -71.5 c 128,-1,18
 66 -77 66 -77 64 -85 c 128,-1,19
 62 -93 62 -93 62 -99 c 0,20,21
 62 -115 62 -115 87 -115 c 1,22,23
 77 -155 77 -155 31 -212 c 1,24,-1
 49 -212 l 1,9,10
EndSplineSet
EndChar

StartChar: Lcaron
Encoding: 317 317 252
Width: 468
Flags: W
LayerCount: 2
Fore
SplineSet
401 0 m 1,0,-1
 405 20 l 1,1,-1
 80 20 l 1,2,-1
 216 698 l 1,3,-1
 194 698 l 1,4,-1
 54 0 l 1,5,-1
 401 0 l 1,0,-1
311 564 m 1,6,-1
 364 740 l 1,7,-1
 339 740 l 1,8,-1
 294 564 l 1,9,-1
 311 564 l 1,6,-1
EndSplineSet
EndChar

StartChar: lcaron
Encoding: 318 318 253
Width: 235
Flags: W
LayerCount: 2
Fore
SplineSet
159 0 m 1,0,-1
 163 19 l 1,1,-1
 78 19 l 1,2,-1
 222 740 l 1,3,-1
 201 740 l 1,4,5
 58 25 58 25 58 19 c 0,6,7
 58 0 58 0 81 0 c 2,8,-1
 159 0 l 1,0,-1
281 564 m 1,9,-1
 334 740 l 1,10,-1
 309 740 l 1,11,-1
 264 564 l 1,12,-1
 281 564 l 1,9,-1
EndSplineSet
EndChar

StartChar: Ldot
Encoding: 319 319 254
Width: 468
Flags: W
LayerCount: 2
Fore
SplineSet
401 0 m 1,0,-1
 405 20 l 1,1,-1
 80 20 l 1,2,-1
 216 698 l 1,3,-1
 194 698 l 1,4,-1
 54 0 l 1,5,-1
 401 0 l 1,0,-1
345 274 m 0,6,7
 371 274 371 274 371 306 c 0,8,9
 371 323 371 323 351 323 c 0,10,11
 339 323 339 323 334.5 317.5 c 128,-1,12
 330 312 330 312 327.5 304.5 c 128,-1,13
 325 297 325 297 325 291 c 0,14,15
 325 274 325 274 345 274 c 0,6,7
EndSplineSet
EndChar

StartChar: ldot
Encoding: 320 320 255
Width: 298
Flags: W
LayerCount: 2
Fore
SplineSet
159 0 m 1,0,-1
 163 19 l 1,1,-1
 78 19 l 1,2,-1
 222 740 l 1,3,-1
 201 740 l 1,4,5
 58 25 58 25 58 19 c 0,6,7
 58 0 58 0 81 0 c 2,8,-1
 159 0 l 1,0,-1
255 239 m 0,9,10
 281 239 281 239 281 271 c 0,11,12
 281 288 281 288 261 288 c 0,13,14
 249 288 249 288 244.5 282.5 c 128,-1,15
 240 277 240 277 237.5 269.5 c 128,-1,16
 235 262 235 262 235 256 c 0,17,18
 235 239 235 239 255 239 c 0,9,10
EndSplineSet
EndChar

StartChar: Lslash
Encoding: 321 321 256
Width: 471
Flags: W
LayerCount: 2
Fore
SplineSet
404 0 m 1,0,-1
 408 20 l 1,1,-1
 83 20 l 1,2,-1
 141 310 l 1,3,-1
 346 374 l 1,4,-1
 347 394 l 1,5,-1
 145 331 l 1,6,-1
 219 698 l 1,7,-1
 197 698 l 1,8,-1
 122 324 l 1,9,-1
 21 292 l 1,10,-1
 20 272 l 1,11,-1
 118 303 l 1,12,-1
 57 0 l 1,13,-1
 404 0 l 1,0,-1
EndSplineSet
EndChar

StartChar: lslash
Encoding: 322 322 257
Width: 242
Flags: W
LayerCount: 2
Fore
SplineSet
163 0 m 1,0,-1
 167 19 l 1,1,-1
 82 19 l 1,2,-1
 150 358 l 1,3,-1
 243 388 l 1,4,-1
 243 408 l 1,5,-1
 154 379 l 1,6,-1
 226 740 l 1,7,-1
 205 740 l 1,8,-1
 131 372 l 1,9,-1
 54 347 l 1,10,-1
 54 327 l 1,11,-1
 127 351 l 1,12,13
 62 25 62 25 62 19 c 0,14,15
 62 0 62 0 85 0 c 2,16,-1
 163 0 l 1,0,-1
EndSplineSet
EndChar

StartChar: Nacute
Encoding: 323 323 258
Width: 680
GlyphClass: 3
Flags: W
LayerCount: 2
Fore
SplineSet
524 0 m 1,0,-1
 664 698 l 1,1,-1
 643 698 l 1,2,-1
 509 27 l 1,3,-1
 506 27 l 1,4,-1
 224 698 l 1,5,-1
 194 698 l 1,6,-1
 54 0 l 1,7,-1
 75 0 l 1,8,-1
 209 671 l 1,9,-1
 212 671 l 1,10,-1
 494 0 l 1,11,-1
 524 0 l 1,0,-1
445 767 m 1,12,-1
 592 918 l 1,13,-1
 575 931 l 1,14,-1
 432 778 l 1,15,-1
 445 767 l 1,12,-1
EndSplineSet
EndChar

StartChar: nacute
Encoding: 324 324 259
Width: 548
Flags: W
LayerCount: 2
Fore
SplineSet
481 0 m 1,0,-1
 485 19 l 1,1,-1
 400 19 l 1,2,-1
 460 321 l 2,3,4
 467 356 467 356 467 386 c 0,5,6
 467 449 467 449 433 483.5 c 128,-1,7
 399 518 399 518 335 518 c 0,8,9
 272 518 272 518 229.5 488 c 128,-1,10
 187 458 187 458 157 401 c 1,11,-1
 154 401 l 1,12,-1
 175 506 l 1,13,-1
 154 506 l 1,14,-1
 53 0 l 1,15,-1
 74 0 l 1,16,-1
 136 312 l 2,17,18
 152 384 152 384 199 437 c 0,19,20
 253 499 253 499 332 499 c 0,21,22
 446 499 446 499 446 383 c 0,23,24
 446 361 446 361 439 320 c 0,25,26
 380 25 380 25 380 19 c 0,27,28
 380 0 380 0 403 0 c 2,29,-1
 481 0 l 1,0,-1
323 587 m 1,30,-1
 470 738 l 1,31,-1
 453 751 l 1,32,-1
 310 598 l 1,33,-1
 323 587 l 1,30,-1
EndSplineSet
EndChar

StartChar: u0145
Encoding: 325 325 260
Width: 680
Flags: W
LayerCount: 2
Fore
SplineSet
524 0 m 1,0,-1
 664 698 l 1,1,-1
 643 698 l 1,2,-1
 509 27 l 1,3,-1
 506 27 l 1,4,-1
 224 698 l 1,5,-1
 194 698 l 1,6,-1
 54 0 l 1,7,-1
 75 0 l 1,8,-1
 209 671 l 1,9,-1
 212 671 l 1,10,-1
 494 0 l 1,11,-1
 524 0 l 1,0,-1
243 -212 m 1,12,13
 267 -186 267 -186 283 -154.5 c 128,-1,14
 299 -123 299 -123 303 -99 c 2,15,-1
 304 -94 l 1,16,-1
 305 -82 l 2,17,18
 305 -66 305 -66 284 -66 c 0,19,20
 271 -66 271 -66 265.5 -71.5 c 128,-1,21
 260 -77 260 -77 258 -85 c 128,-1,22
 256 -93 256 -93 256 -99 c 0,23,24
 256 -115 256 -115 281 -115 c 1,25,26
 271 -155 271 -155 225 -212 c 1,27,-1
 243 -212 l 1,12,13
EndSplineSet
EndChar

StartChar: u0146
Encoding: 326 326 261
Width: 548
GlyphClass: 3
Flags: W
LayerCount: 2
Fore
SplineSet
481 0 m 1,0,-1
 485 19 l 1,1,-1
 400 19 l 1,2,-1
 460 321 l 2,3,4
 467 356 467 356 467 386 c 0,5,6
 467 449 467 449 433 483.5 c 128,-1,7
 399 518 399 518 335 518 c 0,8,9
 272 518 272 518 229.5 488 c 128,-1,10
 187 458 187 458 157 401 c 1,11,-1
 154 401 l 1,12,-1
 175 506 l 1,13,-1
 154 506 l 1,14,-1
 53 0 l 1,15,-1
 74 0 l 1,16,-1
 136 312 l 2,17,18
 152 384 152 384 199 437 c 0,19,20
 253 499 253 499 332 499 c 0,21,22
 446 499 446 499 446 383 c 0,23,24
 446 361 446 361 439 320 c 0,25,26
 380 25 380 25 380 19 c 0,27,28
 380 0 380 0 403 0 c 2,29,-1
 481 0 l 1,0,-1
185 -212 m 1,30,31
 209 -186 209 -186 225 -154.5 c 128,-1,32
 241 -123 241 -123 245 -99 c 2,33,-1
 246 -94 l 1,34,-1
 247 -82 l 2,35,36
 247 -66 247 -66 226 -66 c 0,37,38
 213 -66 213 -66 207.5 -71.5 c 128,-1,39
 202 -77 202 -77 200 -85 c 128,-1,40
 198 -93 198 -93 198 -99 c 0,41,42
 198 -115 198 -115 223 -115 c 1,43,44
 213 -155 213 -155 167 -212 c 1,45,-1
 185 -212 l 1,30,31
EndSplineSet
EndChar

StartChar: Ncaron
Encoding: 327 327 262
Width: 680
GlyphClass: 3
Flags: W
LayerCount: 2
Fore
SplineSet
524 0 m 1,0,-1
 664 698 l 1,1,-1
 643 698 l 1,2,-1
 509 27 l 1,3,-1
 506 27 l 1,4,-1
 224 698 l 1,5,-1
 194 698 l 1,6,-1
 54 0 l 1,7,-1
 75 0 l 1,8,-1
 209 671 l 1,9,-1
 212 671 l 1,10,-1
 494 0 l 1,11,-1
 524 0 l 1,0,-1
468 783 m 1,12,-1
 618 915 l 1,13,-1
 605 927 l 1,14,-1
 457 800 l 1,15,-1
 353 927 l 1,16,-1
 338 917 l 1,17,-1
 444 783 l 1,18,-1
 468 783 l 1,12,-1
EndSplineSet
EndChar

StartChar: ncaron
Encoding: 328 328 263
Width: 548
Flags: W
LayerCount: 2
Fore
SplineSet
481 0 m 1,0,-1
 485 19 l 1,1,-1
 400 19 l 1,2,-1
 460 321 l 2,3,4
 467 356 467 356 467 386 c 0,5,6
 467 449 467 449 433 483.5 c 128,-1,7
 399 518 399 518 335 518 c 0,8,9
 272 518 272 518 229.5 488 c 128,-1,10
 187 458 187 458 157 401 c 1,11,-1
 154 401 l 1,12,-1
 175 506 l 1,13,-1
 154 506 l 1,14,-1
 53 0 l 1,15,-1
 74 0 l 1,16,-1
 136 312 l 2,17,18
 152 384 152 384 199 437 c 0,19,20
 253 499 253 499 332 499 c 0,21,22
 446 499 446 499 446 383 c 0,23,24
 446 361 446 361 439 320 c 0,25,26
 380 25 380 25 380 19 c 0,27,28
 380 0 380 0 403 0 c 2,29,-1
 481 0 l 1,0,-1
358 603 m 1,30,-1
 508 735 l 1,31,-1
 495 747 l 1,32,-1
 347 620 l 1,33,-1
 243 747 l 1,34,-1
 228 737 l 1,35,-1
 334 603 l 1,36,-1
 358 603 l 1,30,-1
EndSplineSet
EndChar

StartChar: napostrophe
Encoding: 329 329 264
Width: 788
Flags: W
LayerCount: 2
Fore
SplineSet
138 550 m 1,0,1
 176 581 176 581 205.5 625.5 c 128,-1,2
 235 670 235 670 245 712 c 0,3,4
 248 724 248 724 248 731 c 0,5,6
 248 750 248 750 223 750 c 0,7,8
 191 750 191 750 191 711 c 0,9,10
 191 692 191 692 218 692 c 1,11,12
 198 621 198 621 117 550 c 1,13,-1
 138 550 l 1,0,1
721 0 m 1,14,-1
 725 19 l 1,15,-1
 640 19 l 1,16,-1
 700 321 l 2,17,18
 707 356 707 356 707 386 c 0,19,20
 707 449 707 449 673 483.5 c 128,-1,21
 639 518 639 518 575 518 c 0,22,23
 512 518 512 518 469.5 488 c 128,-1,24
 427 458 427 458 397 401 c 1,25,-1
 394 401 l 1,26,-1
 415 506 l 1,27,-1
 394 506 l 1,28,-1
 293 0 l 1,29,-1
 314 0 l 1,30,-1
 376 312 l 2,31,32
 392 384 392 384 439 437 c 0,33,34
 493 499 493 499 572 499 c 0,35,36
 686 499 686 499 686 383 c 0,37,38
 686 361 686 361 679 320 c 0,39,40
 620 25 620 25 620 19 c 0,41,42
 620 0 620 0 643 0 c 2,43,-1
 721 0 l 1,14,-1
EndSplineSet
EndChar

StartChar: Eng
Encoding: 330 330 265
Width: 680
Flags: W
LayerCount: 2
Fore
SplineSet
455 -200 m 2,0,1
 484 -200 484 -200 490 -171 c 2,2,-1
 664 698 l 1,3,-1
 643 698 l 1,4,-1
 509 27 l 1,5,-1
 506 27 l 1,6,-1
 224 698 l 1,7,-1
 194 698 l 1,8,-1
 54 0 l 1,9,-1
 75 0 l 1,10,-1
 209 671 l 1,11,-1
 212 671 l 1,12,-1
 494 0 l 1,13,-1
 503 0 l 1,14,-1
 467 -181 l 1,15,-1
 382 -181 l 1,16,-1
 378 -200 l 1,17,-1
 455 -200 l 2,0,1
EndSplineSet
EndChar

StartChar: eng
Encoding: 331 331 266
Width: 548
Flags: W
LayerCount: 2
Fore
SplineSet
320 -200 m 2,0,1
 341 -200 341 -200 350.5 -193.5 c 128,-1,2
 360 -187 360 -187 363 -167 c 2,3,-1
 460 321 l 2,4,5
 467 356 467 356 467 386 c 0,6,7
 467 449 467 449 433 483.5 c 128,-1,8
 399 518 399 518 335 518 c 0,9,10
 272 518 272 518 229.5 488 c 128,-1,11
 187 458 187 458 157 401 c 1,12,-1
 154 401 l 1,13,-1
 175 506 l 1,14,-1
 154 506 l 1,15,-1
 53 0 l 1,16,-1
 74 0 l 1,17,-1
 136 312 l 2,18,19
 152 384 152 384 199 437 c 0,20,21
 253 499 253 499 332 499 c 0,22,23
 446 499 446 499 446 383 c 0,24,25
 446 361 446 361 439 320 c 2,26,-1
 339 -181 l 1,27,-1
 254 -181 l 1,28,-1
 250 -200 l 1,29,-1
 320 -200 l 2,0,1
EndSplineSet
EndChar

StartChar: Omacron
Encoding: 332 332 267
Width: 658
Flags: W
LayerCount: 2
Fore
SplineSet
291 -12 m 0,0,1
 407 -12 407 -12 486 71 c 0,2,3
 559 151 559 151 592 263 c 0,4,5
 623 366 623 366 623 478 c 0,6,7
 623 592 623 592 561 651 c 128,-1,8
 499 710 499 710 401 710 c 0,9,10
 284 710 284 710 207 627 c 0,11,12
 134 547 134 547 101 435 c 0,13,14
 69 318 69 318 69 220 c 0,15,16
 69 106 69 106 131 48 c 0,17,18
 191 -12 191 -12 291 -12 c 0,0,1
291 8 m 0,19,20
 194 8 194 8 142.5 65 c 128,-1,21
 91 122 91 122 91 220 c 0,22,23
 91 279 91 279 112 384 c 0,24,25
 142 526 142 526 217.5 608 c 128,-1,26
 293 690 293 690 401 690 c 0,27,28
 498 690 498 690 549.5 633 c 128,-1,29
 601 576 601 576 601 478 c 0,30,31
 601 419 601 419 580 314 c 0,32,33
 551 173 551 173 475 90.5 c 128,-1,34
 399 8 399 8 291 8 c 0,19,20
577 838 m 1,35,-1
 580 856 l 1,36,-1
 322 856 l 1,37,-1
 319 838 l 1,38,-1
 577 838 l 1,35,-1
EndSplineSet
EndChar

StartChar: omacron
Encoding: 333 333 268
Width: 534
Flags: W
LayerCount: 2
Fore
SplineSet
225 -12 m 0,0,1
 287 -12 287 -12 334 16 c 128,-1,2
 381 44 381 44 412.5 92.5 c 128,-1,3
 444 141 444 141 459.5 204 c 128,-1,4
 475 267 475 267 475 337 c 0,5,6
 475 411 475 411 432 464.5 c 128,-1,7
 389 518 389 518 309 518 c 0,8,9
 190 518 190 518 123 414 c 0,10,11
 59 309 59 309 59 169 c 0,12,13
 59 93 59 93 102.5 40.5 c 128,-1,14
 146 -12 146 -12 225 -12 c 0,0,1
227 7 m 0,15,16
 154 7 154 7 115 55 c 0,17,18
 80 103 80 103 80 169 c 0,19,20
 80 210 80 210 85 241 c 2,21,-1
 93 281 l 2,22,23
 114 384 114 384 168 441.5 c 128,-1,24
 222 499 222 499 307 499 c 0,25,26
 380 499 380 499 419 451 c 0,27,28
 454 403 454 403 454 337 c 0,29,30
 454 297 454 297 449 265 c 2,31,-1
 441 225 l 2,32,33
 421 122 421 122 366.5 64.5 c 128,-1,34
 312 7 312 7 227 7 c 0,15,16
465 658 m 1,35,-1
 468 676 l 1,36,-1
 210 676 l 1,37,-1
 207 658 l 1,38,-1
 465 658 l 1,35,-1
EndSplineSet
EndChar

StartChar: Obreve
Encoding: 334 334 269
Width: 658
Flags: W
LayerCount: 2
Fore
SplineSet
291 -12 m 0,0,1
 407 -12 407 -12 486 71 c 0,2,3
 559 151 559 151 592 263 c 0,4,5
 623 366 623 366 623 478 c 0,6,7
 623 592 623 592 561 651 c 128,-1,8
 499 710 499 710 401 710 c 0,9,10
 284 710 284 710 207 627 c 0,11,12
 134 547 134 547 101 435 c 0,13,14
 69 318 69 318 69 220 c 0,15,16
 69 106 69 106 131 48 c 0,17,18
 191 -12 191 -12 291 -12 c 0,0,1
291 8 m 0,19,20
 194 8 194 8 142.5 65 c 128,-1,21
 91 122 91 122 91 220 c 0,22,23
 91 279 91 279 112 384 c 0,24,25
 142 526 142 526 217.5 608 c 128,-1,26
 293 690 293 690 401 690 c 0,27,28
 498 690 498 690 549.5 633 c 128,-1,29
 601 576 601 576 601 478 c 0,30,31
 601 419 601 419 580 314 c 0,32,33
 551 173 551 173 475 90.5 c 128,-1,34
 399 8 399 8 291 8 c 0,19,20
439 786 m 0,35,36
 492 786 492 786 522 816.5 c 128,-1,37
 552 847 552 847 584 899 c 1,38,-1
 587 903 l 1,39,-1
 571 910 l 1,40,-1
 546 874 l 2,41,42
 520 836 520 836 496.5 820.5 c 128,-1,43
 473 805 473 805 439 805 c 0,44,45
 378 805 378 805 355 873 c 1,46,-1
 340 910 l 1,47,-1
 324 903 l 1,48,49
 341 847 341 847 365.5 816.5 c 128,-1,50
 390 786 390 786 439 786 c 0,35,36
EndSplineSet
EndChar

StartChar: obreve
Encoding: 335 335 270
Width: 534
Flags: W
LayerCount: 2
Fore
SplineSet
225 -12 m 0,0,1
 287 -12 287 -12 334 16 c 128,-1,2
 381 44 381 44 412.5 92.5 c 128,-1,3
 444 141 444 141 459.5 204 c 128,-1,4
 475 267 475 267 475 337 c 0,5,6
 475 411 475 411 432 464.5 c 128,-1,7
 389 518 389 518 309 518 c 0,8,9
 190 518 190 518 123 414 c 0,10,11
 59 309 59 309 59 169 c 0,12,13
 59 93 59 93 102.5 40.5 c 128,-1,14
 146 -12 146 -12 225 -12 c 0,0,1
227 7 m 0,15,16
 154 7 154 7 115 55 c 0,17,18
 80 103 80 103 80 169 c 0,19,20
 80 210 80 210 85 241 c 2,21,-1
 93 281 l 2,22,23
 114 384 114 384 168 441.5 c 128,-1,24
 222 499 222 499 307 499 c 0,25,26
 380 499 380 499 419 451 c 0,27,28
 454 403 454 403 454 337 c 0,29,30
 454 297 454 297 449 265 c 2,31,-1
 441 225 l 2,32,33
 421 122 421 122 366.5 64.5 c 128,-1,34
 312 7 312 7 227 7 c 0,15,16
328 606 m 0,35,36
 381 606 381 606 411 636.5 c 128,-1,37
 441 667 441 667 473 719 c 1,38,-1
 476 723 l 1,39,-1
 460 730 l 1,40,-1
 435 694 l 2,41,42
 409 656 409 656 385.5 640.5 c 128,-1,43
 362 625 362 625 328 625 c 0,44,45
 267 625 267 625 244 693 c 1,46,-1
 229 730 l 1,47,-1
 213 723 l 1,48,49
 230 667 230 667 254.5 636.5 c 128,-1,50
 279 606 279 606 328 606 c 0,35,36
EndSplineSet
EndChar

StartChar: Ohungarumlaut
Encoding: 336 336 271
Width: 658
Flags: W
LayerCount: 2
Fore
SplineSet
291 -12 m 0,0,1
 407 -12 407 -12 486 71 c 0,2,3
 559 151 559 151 592 263 c 0,4,5
 623 366 623 366 623 478 c 0,6,7
 623 592 623 592 561 651 c 128,-1,8
 499 710 499 710 401 710 c 0,9,10
 284 710 284 710 207 627 c 0,11,12
 134 547 134 547 101 435 c 0,13,14
 69 318 69 318 69 220 c 0,15,16
 69 106 69 106 131 48 c 0,17,18
 191 -12 191 -12 291 -12 c 0,0,1
291 8 m 0,19,20
 194 8 194 8 142.5 65 c 128,-1,21
 91 122 91 122 91 220 c 0,22,23
 91 279 91 279 112 384 c 0,24,25
 142 526 142 526 217.5 608 c 128,-1,26
 293 690 293 690 401 690 c 0,27,28
 498 690 498 690 549.5 633 c 128,-1,29
 601 576 601 576 601 478 c 0,30,31
 601 419 601 419 580 314 c 0,32,33
 551 173 551 173 475 90.5 c 128,-1,34
 399 8 399 8 291 8 c 0,19,20
347 767 m 1,35,-1
 494 918 l 1,36,-1
 477 931 l 1,37,-1
 334 778 l 1,38,-1
 347 767 l 1,35,-1
507 767 m 1,39,-1
 654 918 l 1,40,-1
 637 931 l 1,41,-1
 494 778 l 1,42,-1
 507 767 l 1,39,-1
EndSplineSet
EndChar

StartChar: ohungarumlaut
Encoding: 337 337 272
Width: 534
Flags: W
LayerCount: 2
Fore
SplineSet
225 -12 m 0,0,1
 287 -12 287 -12 334 16 c 128,-1,2
 381 44 381 44 412.5 92.5 c 128,-1,3
 444 141 444 141 459.5 204 c 128,-1,4
 475 267 475 267 475 337 c 0,5,6
 475 411 475 411 432 464.5 c 128,-1,7
 389 518 389 518 309 518 c 0,8,9
 190 518 190 518 123 414 c 0,10,11
 59 309 59 309 59 169 c 0,12,13
 59 93 59 93 102.5 40.5 c 128,-1,14
 146 -12 146 -12 225 -12 c 0,0,1
227 7 m 0,15,16
 154 7 154 7 115 55 c 0,17,18
 80 103 80 103 80 169 c 0,19,20
 80 210 80 210 85 241 c 2,21,-1
 93 281 l 2,22,23
 114 384 114 384 168 441.5 c 128,-1,24
 222 499 222 499 307 499 c 0,25,26
 380 499 380 499 419 451 c 0,27,28
 454 403 454 403 454 337 c 0,29,30
 454 297 454 297 449 265 c 2,31,-1
 441 225 l 2,32,33
 421 122 421 122 366.5 64.5 c 128,-1,34
 312 7 312 7 227 7 c 0,15,16
240 587 m 1,35,-1
 387 738 l 1,36,-1
 370 751 l 1,37,-1
 227 598 l 1,38,-1
 240 587 l 1,35,-1
400 587 m 1,39,-1
 547 738 l 1,40,-1
 530 751 l 1,41,-1
 387 598 l 1,42,-1
 400 587 l 1,39,-1
EndSplineSet
EndChar

StartChar: OE
Encoding: 338 338 273
Width: 928
Flags: W
LayerCount: 2
Fore
SplineSet
312 -12 m 0,0,1
 391 -12 391 -12 432 0 c 1,2,-1
 807 0 l 1,3,-1
 811 20 l 1,4,-1
 455 20 l 1,5,-1
 520 344 l 1,6,-1
 864 344 l 1,7,-1
 868 364 l 1,8,-1
 524 364 l 1,9,-1
 587 678 l 1,10,-1
 943 678 l 1,11,-1
 947 698 l 1,12,-1
 569 698 l 1,13,14
 506 710 506 710 426 710 c 0,15,16
 276 710 276 710 189 605 c 0,17,18
 117 520 117 520 90 391 c 0,19,20
 69 298 69 298 69 217 c 0,21,22
 69 103 69 103 136.5 45.5 c 128,-1,23
 204 -12 204 -12 312 -12 c 0,0,1
341 8 m 2,24,-1
 312 8 l 2,25,26
 206 8 206 8 148.5 61.5 c 128,-1,27
 91 115 91 115 91 217 c 0,28,29
 91 265 91 265 104 341 c 2,30,-1
 116 400 l 2,31,32
 142 527 142 527 220 607 c 0,33,34
 302 690 302 690 424 690 c 0,35,36
 507 690 507 690 565 677 c 1,37,-1
 433 22 l 1,38,39
 395 8 395 8 341 8 c 2,24,-1
EndSplineSet
EndChar

